<?xml version="1.0" encoding="utf-8"?>
<!-- Generator: Adobe Illustrator 15.1.0, SVG Export Plug-In . SVG Version: 6.00 Build 0)  -->
<!DOCTYPE svg PUBLIC "-//W3C//DTD SVG 1.1//EN" "http://www.w3.org/Graphics/SVG/1.1/DTD/svg11.dtd">
<svg version="1.1" id="Ebene_1" xmlns="http://www.w3.org/2000/svg" xmlns:xlink="http://www.w3.org/1999/xlink" x="0px" y="0px"
	 width="286.299px" height="286.299px" viewBox="0 0 286.299 286.299" enable-background="new 0 0 286.299 286.299"
	 xml:space="preserve">
<g id="Ebene_2">
	<g>
		
			<linearGradient id="SVGID_1_" gradientUnits="userSpaceOnUse" x1="241.9043" y1="43.5112" x2="42.646" y2="242.7695" gradientTransform="matrix(1 0 0 -1 0.04 285.4531)">
			<stop  offset="0" style="stop-color:#0095D8"/>
			<stop  offset="0.4961" style="stop-color:#F5FAF9"/>
			<stop  offset="1" style="stop-color:#6AB023"/>
		</linearGradient>
		<path fill="url(#SVGID_1_)" stroke="#000000" stroke-width="1.714" d="M283.209,142.313c0,77.814-63.069,140.896-140.894,140.896
			c-77.814,0-140.898-63.082-140.898-140.896C1.417,64.5,64.501,1.417,142.315,1.417C220.14,1.417,283.209,64.5,283.209,142.313z"/>
		<path fill="#FFFFFF" stroke="#000000" stroke-width="1.714" d="M17.442,142.313c0-68.967,55.904-124.883,124.874-124.883
			c68.974,0,124.88,55.916,124.88,124.883c0,68.967-55.906,124.881-124.88,124.881C73.346,267.194,17.442,211.28,17.442,142.313z"/>
		<g>
			<polygon fill="#4D4D4D" stroke="#000000" stroke-width="1.0284" points="155.658,123.034 166.222,123.034 147.094,147.599 
				147.094,160.769 138.107,160.769 138.107,147.599 118.983,123.034 129.554,123.034 142.604,140.532 			"/>
			<polygon fill="#4D4D4D" stroke="#000000" stroke-width="1.0284" points="206.337,123.034 206.337,130.713 180.985,130.713 
				180.985,137.934 205.291,137.934 205.291,145.34 180.985,145.34 180.985,153.041 206.337,153.041 206.337,160.769 
				172.209,160.769 172.209,123.034 			"/>
			<polygon fill="#4D4D4D" stroke="#000000" stroke-width="1.0284" points="159.629,170.272 159.629,177.961 134.28,177.961 
				134.28,185.179 158.587,185.179 158.587,192.582 134.28,192.582 134.28,200.283 159.629,200.283 159.629,208.008 
				125.504,208.008 125.504,170.272 			"/>
			<path fill="#4D4D4D" stroke="#000000" stroke-width="1.0284" d="M235.707,146.392h-7.151v14.377h-8.802v-37.733h22.929
				c6.441,0.022,11.658,5.246,11.658,11.693c0,5.313-3.523,9.791-8.392,11.195l11.075,14.846h-10.539L235.707,146.392z
				 M241.824,130.724h-13.271v8.185h13.271c2.256,0,4.067-1.992,4.067-4.057C245.894,132.769,244.129,130.724,241.824,130.724z"/>
			<path fill="#4D4D4D" stroke="#000000" stroke-width="1.0284" d="M153.957,230.658c0-2.069-1.671-4.158-4.11-4.158h-15.505v8.269
				h15.505C152.212,234.769,153.957,232.72,153.957,230.658z M125.538,256.577v-37.73h25.199c6.416,0.041,11.601,5.264,11.601,11.69
				c0,4.896-3.003,9.086-7.265,10.836l11.336,15.204h-10.526l-10.782-14.375h-10.758v14.375H125.538z"/>
			<path fill="#4D4D4D" stroke="#000000" stroke-width="1.0284" d="M121.647,160.746h-9.464l-3.148-6.515H87.72l-3.139,6.515h-9.404
				l18.859-37.712h8.737L121.647,160.746z M98.409,131.976l-7.492,14.917h14.816L98.409,131.976z"/>
			<path fill="#4D4D4D" stroke="#000000" stroke-width="1.0284" d="M165.84,112.693h-9.466l-3.146-6.514h-21.315l-3.139,6.514
				h-9.406l18.859-37.714h8.74L165.84,112.693z M142.599,83.92l-7.492,14.92h14.816L142.599,83.92z"/>
			<path fill="#4D4D4D" stroke="#000000" stroke-width="1.0284" d="M38.922,138.035h15.982c1.828,0,3.602-1.617,3.602-3.653
				c0-1.984-1.588-3.682-3.602-3.682H38.922V138.035z M38.932,153.254h16.665c2.394,0,4.28-1.993,4.28-4.137
				c0-2.084-1.973-4.283-4.28-4.283H38.932V153.254z M64.421,141.104c2.248,2.072,4.045,4.598,4.045,8.213
				c0,6.308-5.036,11.455-12.19,11.455H30.163v-37.738l25.844,0.009c6.067,0.007,10.981,4.938,10.981,10.998
				C66.988,136.736,66.021,139.203,64.421,141.104z"/>
			<path fill="#4D4D4D" stroke="#000000" stroke-width="1.0284" d="M134.32,43.792h15.884c1.828,0,3.604-1.617,3.604-3.648
				c0-1.989-1.591-3.686-3.604-3.686H134.32V43.792z M134.316,59.015h16.646c2.395,0,4.279-1.996,4.279-4.139
				c0-2.086-1.975-4.281-4.279-4.281h-16.646V59.015z M159.749,46.862c2.249,2.072,4.046,4.601,4.046,8.215
				c0,6.307-5.035,11.455-12.188,11.455h-26.112v-37.74l25.844,0.013c6.065,0.003,10.979,4.935,10.979,10.994
				C162.315,42.494,161.351,44.961,159.749,46.862z"/>
		</g>
	</g>
</g>
</svg>
