<?xml version="1.0" encoding="utf-8"?>
<!-- Generator: Adobe Illustrator 14.0.0, SVG Export Plug-In . SVG Version: 6.00 Build 43363)  -->
<!DOCTYPE svg PUBLIC "-//W3C//DTD SVG 1.1//EN" "http://www.w3.org/Graphics/SVG/1.1/DTD/svg11.dtd">
<svg version="1.1" id="Layer_1" xmlns="http://www.w3.org/2000/svg" xmlns:xlink="http://www.w3.org/1999/xlink" x="0px" y="0px"
	 width="762px" height="124px" viewBox="0 0 762 124" enable-background="new 0 0 762 124" xml:space="preserve">
<g id="Ebene_1" display="none">
	<g id="Ebene_2" display="inline">
		<g id="kNlUYb_1_">
			
				<image overflow="visible" enable-background="new    " width="762" height="124" id="kNlUYb" xlink:href="694D656E.jpeg"  transform="matrix(1 0 0 1 -130.0002 323)">
			</image>
		</g>
	</g>
	<g id="wzqyto_1_" display="inline">
		
			<image overflow="visible" enable-background="new    " width="763" height="124" id="wzqyto" xlink:href="694D6572.jpeg"  transform="matrix(0.9855 0 0 0.9855 -129.9836 322.8975)">
		</image>
	</g>
</g>
<g id="Ebene_3" display="none">
	<g id="rEmLJd_1_" display="inline">
		
			<image overflow="visible" enable-background="new    " width="763" height="124" id="rEmLJd" xlink:href="694D6572.jpeg"  transform="matrix(1 0 0 1 -130.0002 323)">
		</image>
	</g>
</g>
<g id="Trenner" display="none">
	<rect x="323" y="379" display="inline" fill="#6BC200" width="1" height="34"/>
</g>
<g>
	<path fill="#339900" d="M545.144,59.194v1.716h-7.368v19.41h-2.01V60.91h-7.338v-1.716H545.144z"/>
	<path fill="#339900" d="M549.05,59.194v8.493h0.061c0.354-0.931,0.985-1.673,1.894-2.234c0.904-0.563,1.902-0.846,2.987-0.846
		c1.064,0,1.958,0.138,2.679,0.416c0.72,0.276,1.297,0.665,1.729,1.171c0.435,0.503,0.738,1.12,0.918,1.848
		c0.177,0.731,0.266,1.55,0.266,2.456v9.825h-1.864v-9.526c0-0.652-0.061-1.259-0.18-1.82c-0.117-0.562-0.326-1.049-0.621-1.462
		c-0.297-0.414-0.695-0.74-1.198-0.976c-0.501-0.237-1.129-0.354-1.878-0.354c-0.75,0-1.414,0.129-2,0.396
		c-0.582,0.266-1.076,0.633-1.479,1.093c-0.404,0.464-0.72,1.017-0.946,1.658c-0.225,0.641-0.348,1.336-0.369,2.085v8.905h-1.864
		V59.196h1.867V59.194z"/>
	<path fill="#339900" d="M563.93,67.419c0.315-0.654,0.744-1.183,1.288-1.598c0.542-0.416,1.177-0.721,1.909-0.915
		c0.729-0.198,1.538-0.3,2.426-0.3c0.672,0,1.341,0.064,2.011,0.194c0.67,0.125,1.272,0.369,1.807,0.723
		c0.533,0.356,0.965,0.855,1.3,1.494c0.337,0.641,0.505,1.475,0.505,2.5v8.108c0,0.749,0.362,1.122,1.092,1.122
		c0.219,0,0.417-0.036,0.592-0.116v1.569c-0.218,0.039-0.408,0.069-0.576,0.091c-0.165,0.02-0.38,0.03-0.635,0.03
		c-0.473,0-0.854-0.064-1.137-0.194c-0.287-0.127-0.51-0.309-0.668-0.544c-0.158-0.237-0.258-0.521-0.308-0.847
		c-0.053-0.323-0.073-0.687-0.073-1.079h-0.061c-0.338,0.494-0.676,0.933-1.02,1.314c-0.346,0.387-0.731,0.706-1.155,0.963
		s-0.906,0.453-1.451,0.59c-0.542,0.138-1.189,0.209-1.937,0.209c-0.711,0-1.375-0.086-1.997-0.252
		c-0.622-0.169-1.166-0.435-1.629-0.799c-0.464-0.367-0.828-0.829-1.094-1.391c-0.265-0.565-0.398-1.229-0.398-2.001
		c0-1.064,0.237-1.897,0.71-2.5c0.474-0.601,1.099-1.058,1.878-1.373c0.779-0.317,1.658-0.538,2.634-0.667
		c0.977-0.125,1.969-0.251,2.973-0.367c0.395-0.041,0.738-0.091,1.036-0.149c0.297-0.06,0.542-0.164,0.738-0.309
		c0.2-0.148,0.351-0.352,0.458-0.608c0.109-0.257,0.164-0.592,0.164-1.006c0-0.633-0.104-1.148-0.311-1.553
		c-0.207-0.405-0.494-0.728-0.857-0.965c-0.363-0.232-0.79-0.396-1.271-0.487c-0.484-0.087-1.001-0.132-1.554-0.132
		c-1.184,0-2.15,0.282-2.899,0.844c-0.749,0.563-1.145,1.464-1.184,2.707h-1.862C563.429,68.84,563.615,68.071,563.93,67.419z
		 M573.252,71.975c-0.117,0.218-0.346,0.377-0.679,0.475c-0.338,0.1-0.633,0.166-0.891,0.207c-0.788,0.141-1.603,0.259-2.441,0.369
		c-0.838,0.11-1.603,0.272-2.292,0.49c-0.69,0.218-1.257,0.528-1.698,0.933c-0.445,0.403-0.669,0.979-0.669,1.729
		c0,0.475,0.096,0.896,0.283,1.258c0.186,0.365,0.438,0.681,0.755,0.948c0.314,0.263,0.682,0.466,1.094,0.606
		c0.411,0.136,0.838,0.205,1.271,0.205c0.712,0,1.391-0.108,2.043-0.324c0.652-0.218,1.218-0.53,1.701-0.945
		c0.484-0.414,0.867-0.917,1.152-1.509c0.288-0.592,0.431-1.263,0.431-2.012v-2.427h-0.062v-0.002h0.002V71.975z"/>
	<path fill="#339900" d="M581.242,59.194v2.988h-1.866v-2.988H581.242z M581.242,65.051v15.27h-1.866v-15.27H581.242z"/>
	<path fill="#339900" d="M587.157,59.194V80.32h-1.865V59.194H587.157z"/>
	<path fill="#339900" d="M591.565,67.419c0.315-0.654,0.744-1.183,1.288-1.598c0.542-0.416,1.177-0.721,1.91-0.915
		c0.729-0.198,1.537-0.3,2.423-0.3c0.672,0,1.341,0.064,2.013,0.194c0.669,0.125,1.271,0.369,1.805,0.723
		c0.533,0.356,0.967,0.855,1.302,1.494c0.337,0.641,0.503,1.475,0.503,2.5v8.108c0,0.749,0.364,1.122,1.092,1.122
		c0.218,0,0.417-0.036,0.592-0.116v1.569c-0.218,0.039-0.41,0.069-0.576,0.091c-0.163,0.02-0.378,0.03-0.634,0.03
		c-0.474,0-0.853-0.064-1.138-0.194c-0.287-0.127-0.508-0.309-0.665-0.544c-0.159-0.237-0.261-0.521-0.311-0.847
		c-0.05-0.323-0.073-0.687-0.073-1.079h-0.059c-0.337,0.494-0.676,0.933-1.021,1.314c-0.347,0.385-0.729,0.706-1.152,0.963
		c-0.427,0.257-0.909,0.453-1.452,0.59c-0.542,0.138-1.189,0.209-1.938,0.209c-0.711,0-1.375-0.086-1.997-0.252
		c-0.62-0.169-1.167-0.435-1.629-0.799c-0.462-0.367-0.826-0.829-1.095-1.391c-0.264-0.565-0.396-1.229-0.396-2.001
		c0-1.064,0.235-1.897,0.708-2.5c0.473-0.601,1.099-1.058,1.88-1.373c0.777-0.317,1.656-0.538,2.634-0.667
		c0.977-0.125,1.969-0.251,2.973-0.367c0.396-0.041,0.738-0.091,1.036-0.149c0.297-0.06,0.54-0.164,0.738-0.309
		c0.198-0.148,0.351-0.352,0.458-0.608c0.109-0.257,0.164-0.592,0.164-1.006c0-0.633-0.104-1.148-0.311-1.553
		c-0.209-0.405-0.494-0.728-0.856-0.965c-0.367-0.232-0.791-0.396-1.273-0.487c-0.484-0.087-1.002-0.132-1.552-0.132
		c-1.184,0-2.15,0.282-2.899,0.844c-0.752,0.563-1.145,1.464-1.184,2.707h-1.865C591.062,68.84,591.25,68.071,591.565,67.419z
		 M600.885,71.975c-0.116,0.218-0.345,0.377-0.68,0.475c-0.337,0.1-0.631,0.166-0.888,0.207c-0.791,0.141-1.604,0.259-2.442,0.369
		c-0.84,0.11-1.603,0.272-2.292,0.49c-0.69,0.218-1.257,0.528-1.701,0.933c-0.442,0.403-0.666,0.979-0.666,1.729
		c0,0.475,0.096,0.896,0.281,1.258c0.188,0.365,0.44,0.681,0.757,0.948c0.313,0.263,0.68,0.466,1.091,0.606
		c0.414,0.136,0.841,0.205,1.273,0.205c0.709,0,1.391-0.108,2.04-0.324c0.653-0.218,1.219-0.53,1.705-0.945
		c0.481-0.414,0.866-0.917,1.152-1.509c0.285-0.592,0.428-1.263,0.428-2.012v-2.427h-0.059V71.975L600.885,71.975z"/>
	<path fill="#339900" d="M608.816,65.051v2.634h0.058c0.354-0.926,0.988-1.671,1.894-2.232c0.907-0.563,1.903-0.846,2.988-0.846
		c1.066,0,1.958,0.138,2.679,0.416c0.719,0.276,1.295,0.667,1.729,1.168c0.434,0.503,0.738,1.121,0.917,1.851
		c0.18,0.731,0.266,1.55,0.266,2.454v9.825h-1.864v-9.527c0-0.651-0.061-1.258-0.179-1.819s-0.326-1.05-0.622-1.464
		c-0.297-0.414-0.695-0.738-1.196-0.974c-0.503-0.237-1.131-0.354-1.88-0.354s-1.416,0.13-1.997,0.397
		c-0.583,0.266-1.076,0.633-1.481,1.093c-0.403,0.464-0.721,1.017-0.945,1.658c-0.227,0.641-0.352,1.336-0.371,2.085v8.905h-1.864
		V65.053h1.87V65.051z"/>
	<path fill="#339900" d="M635.028,80.32v-2.899h-0.061c-0.196,0.492-0.488,0.943-0.872,1.36c-0.385,0.412-0.822,0.764-1.316,1.049
		c-0.495,0.287-1.021,0.51-1.583,0.667s-1.12,0.237-1.673,0.237c-1.165,0-2.175-0.214-3.033-0.639
		c-0.857-0.421-1.571-1.004-2.144-1.744c-0.571-0.738-0.997-1.598-1.273-2.573c-0.274-0.974-0.413-2.008-0.413-3.09
		c0-1.086,0.139-2.117,0.413-3.094c0.276-0.976,0.702-1.832,1.273-2.573c0.573-0.738,1.286-1.325,2.144-1.759
		c0.858-0.437,1.868-0.654,3.033-0.654c0.574,0,1.13,0.069,1.673,0.209c0.54,0.139,1.052,0.348,1.524,0.635s0.894,0.635,1.256,1.052
		c0.365,0.414,0.648,0.896,0.846,1.45h0.059v-8.758h1.865v21.122h-1.718V80.32z M624.806,75.037
		c0.186,0.779,0.482,1.475,0.887,2.088c0.404,0.615,0.922,1.107,1.553,1.496c0.632,0.384,1.39,0.574,2.28,0.574
		c0.986,0,1.819-0.19,2.5-0.574c0.68-0.389,1.232-0.885,1.656-1.496c0.423-0.611,0.731-1.306,0.917-2.088
		c0.188-0.779,0.281-1.563,0.281-2.351c0-0.79-0.094-1.571-0.281-2.354c-0.186-0.779-0.494-1.474-0.917-2.087
		c-0.424-0.611-0.977-1.107-1.656-1.492c-0.68-0.384-1.514-0.576-2.5-0.576c-0.891,0-1.647,0.192-2.28,0.576
		c-0.631,0.385-1.148,0.883-1.553,1.492c-0.404,0.613-0.699,1.308-0.887,2.087c-0.19,0.782-0.283,1.563-0.283,2.354
		C624.523,73.475,624.618,74.258,624.806,75.037z"/>
</g>
<rect x="507.55" y="52.642" fill="#6BC200" width="0.954" height="32.449"/>
<g>
	<path fill="#0190C5" d="M60.361,59.194c0.455,0,0.942,0.004,1.466,0.015c0.521,0.011,1.04,0.041,1.552,0.089
		c0.513,0.049,0.992,0.123,1.435,0.22c0.443,0.101,0.823,0.248,1.14,0.444c0.69,0.415,1.277,0.984,1.759,1.716
		c0.484,0.73,0.726,1.628,0.726,2.692c0,1.127-0.272,2.096-0.813,2.916c-0.544,0.816-1.315,1.425-2.325,1.818v0.061
		c1.302,0.275,2.298,0.867,2.989,1.774c0.691,0.908,1.035,2.012,1.035,3.313c0,0.771-0.138,1.52-0.414,2.249
		c-0.276,0.728-0.684,1.376-1.227,1.937c-0.544,0.563-1.213,1.017-2.011,1.36c-0.8,0.346-1.723,0.519-2.766,0.519H52.699V59.194
		H60.361L60.361,59.194z M61.129,68.276c1.599,0,2.747-0.281,3.446-0.845c0.701-0.561,1.05-1.405,1.05-2.527
		c0-0.749-0.118-1.343-0.355-1.777c-0.234-0.432-0.562-0.766-0.975-1.003c-0.414-0.237-0.894-0.391-1.435-0.458
		c-0.543-0.069-1.12-0.102-1.73-0.102H55.51v6.716h5.62V68.276L61.129,68.276z M62.55,77.952c1.242,0,2.213-0.335,2.915-1.006
		c0.7-0.67,1.051-1.598,1.051-2.781c0-0.692-0.13-1.263-0.384-1.716c-0.256-0.456-0.597-0.816-1.021-1.084
		c-0.423-0.264-0.914-0.453-1.463-0.562c-0.553-0.107-1.125-0.164-1.717-0.164h-6.42v7.31h7.04V77.952z"/>
	<path fill="#0190C5" d="M86.544,80.26c-0.433,0.257-1.035,0.387-1.804,0.387c-0.65,0-1.169-0.184-1.553-0.549
		s-0.576-0.963-0.576-1.79c-0.692,0.827-1.493,1.425-2.41,1.79s-1.909,0.549-2.975,0.549c-0.691,0-1.346-0.08-1.968-0.238
		c-0.622-0.159-1.161-0.403-1.612-0.74c-0.454-0.337-0.813-0.772-1.079-1.314s-0.399-1.2-0.399-1.969
		c0-0.868,0.148-1.578,0.443-2.131c0.296-0.553,0.686-1.002,1.168-1.348c0.485-0.343,1.038-0.606,1.658-0.781
		c0.623-0.179,1.257-0.326,1.909-0.442c0.691-0.141,1.346-0.244,1.969-0.311c0.621-0.069,1.169-0.169,1.643-0.298
		c0.473-0.13,0.846-0.315,1.124-0.562c0.276-0.248,0.416-0.608,0.416-1.082c0-0.552-0.104-0.995-0.311-1.334
		c-0.208-0.332-0.474-0.589-0.8-0.767c-0.326-0.179-0.692-0.298-1.095-0.355c-0.405-0.061-0.804-0.089-1.197-0.089
		c-1.066,0-1.954,0.203-2.663,0.606c-0.711,0.404-1.093,1.17-1.154,2.293h-2.515c0.041-0.947,0.236-1.744,0.593-2.396
		c0.355-0.651,0.829-1.179,1.418-1.584c0.593-0.404,1.268-0.695,2.026-0.87c0.759-0.18,1.573-0.268,2.442-0.268
		c0.69,0,1.374,0.049,2.055,0.148s1.296,0.298,1.85,0.604c0.552,0.305,0.994,0.736,1.332,1.284c0.336,0.551,0.502,1.27,0.502,2.155
		v7.854c0,0.592,0.035,1.025,0.104,1.302c0.067,0.271,0.299,0.41,0.695,0.41c0.217,0,0.473-0.039,0.77-0.117v1.952H86.544
		L86.544,80.26z M82.462,72.419c-0.316,0.235-0.731,0.408-1.243,0.516c-0.512,0.11-1.05,0.196-1.611,0.264
		c-0.562,0.069-1.13,0.148-1.702,0.235c-0.573,0.091-1.084,0.23-1.539,0.428c-0.452,0.196-0.821,0.477-1.107,0.84
		c-0.288,0.364-0.43,0.858-0.43,1.487c0,0.412,0.084,0.76,0.251,1.047c0.167,0.282,0.385,0.514,0.652,0.69
		c0.265,0.18,0.576,0.303,0.933,0.382c0.357,0.078,0.729,0.117,1.124,0.117c0.829,0,1.54-0.112,2.132-0.337
		c0.591-0.227,1.074-0.512,1.449-0.853c0.376-0.348,0.652-0.719,0.829-1.121c0.178-0.401,0.267-0.781,0.267-1.133v-2.563H82.462
		L82.462,72.419z"/>
	<path fill="#0190C5" d="M95.33,82.36c-0.295,0.749-0.585,1.382-0.873,1.893c-0.286,0.515-0.602,0.933-0.945,1.257
		c-0.346,0.328-0.731,0.565-1.154,0.713c-0.425,0.146-0.913,0.22-1.466,0.22c-0.298,0-0.591-0.02-0.889-0.061
		c-0.296-0.039-0.579-0.107-0.856-0.207v-2.308c0.217,0.099,0.468,0.181,0.754,0.25c0.285,0.071,0.528,0.105,0.725,0.105
		c0.513,0,0.941-0.123,1.287-0.371c0.346-0.248,0.609-0.596,0.785-1.051l1.035-2.571l-6.063-15.211h2.84l4.467,12.515h0.062
		l4.29-12.515h2.663L95.33,82.36z"/>
	<path fill="#0190C5" d="M115.391,79.342c-1.145,0.868-2.584,1.305-4.321,1.305c-1.224,0-2.284-0.199-3.181-0.594
		c-0.897-0.394-1.65-0.946-2.264-1.656c-0.612-0.71-1.072-1.557-1.374-2.545c-0.307-0.986-0.479-2.06-0.517-3.226
		c0-1.163,0.176-2.228,0.531-3.195c0.355-0.969,0.854-1.805,1.495-2.515c0.639-0.71,1.4-1.263,2.278-1.655
		c0.876-0.396,1.839-0.592,2.883-0.592c1.362,0,2.49,0.28,3.39,0.842c0.896,0.563,1.615,1.278,2.16,2.146
		c0.543,0.868,0.917,1.815,1.125,2.841c0.207,1.028,0.292,2.004,0.253,2.928h-11.449c-0.021,0.669,0.059,1.306,0.237,1.908
		c0.176,0.604,0.461,1.136,0.856,1.6c0.394,0.462,0.898,0.834,1.509,1.107c0.611,0.276,1.333,0.417,2.16,0.417
		c1.065,0,1.938-0.248,2.62-0.738c0.679-0.492,1.129-1.243,1.345-2.25h2.486C117.275,77.184,116.536,78.475,115.391,79.342z
		 M114.785,69.52c-0.228-0.531-0.534-0.991-0.919-1.375c-0.384-0.382-0.839-0.691-1.361-0.918c-0.522-0.225-1.098-0.336-1.73-0.336
		c-0.652,0-1.237,0.111-1.763,0.336c-0.522,0.227-0.97,0.54-1.345,0.936c-0.376,0.393-0.671,0.853-0.888,1.373
		c-0.218,0.521-0.346,1.081-0.384,1.673h8.787C115.144,70.614,115.01,70.053,114.785,69.52z"/>
	<path fill="#0190C5" d="M123.172,65.021v3.226h0.061c0.611-1.239,1.361-2.157,2.249-2.751c0.888-0.589,2.011-0.865,3.372-0.826
		v2.661c-1.006,0-1.864,0.139-2.572,0.417c-0.71,0.274-1.285,0.68-1.717,1.214c-0.433,0.528-0.748,1.176-0.946,1.936
		c-0.197,0.761-0.297,1.633-0.297,2.619v6.805h-2.515v-15.3H123.172z"/>
	<path fill="#0190C5" d="M131.752,68.307v-3.286h3.284v3.286H131.752z M135.035,77.034v3.286h-3.284v-3.286H135.035z"/>
	<path fill="#0190C5" d="M159.518,62.081c-0.936-0.682-2.133-1.023-3.594-1.023c-0.591,0-1.173,0.061-1.746,0.179
		c-0.573,0.119-1.08,0.317-1.523,0.594c-0.443,0.274-0.8,0.646-1.065,1.107c-0.267,0.462-0.399,1.04-0.399,1.729
		c0,0.651,0.192,1.179,0.578,1.582c0.383,0.406,0.895,0.736,1.537,0.993c0.64,0.255,1.368,0.469,2.174,0.635
		c0.808,0.168,1.633,0.348,2.47,0.546c0.837,0.198,1.661,0.43,2.469,0.697c0.808,0.264,1.535,0.624,2.176,1.079
		c0.641,0.454,1.154,1.025,1.538,1.717c0.383,0.69,0.577,1.557,0.577,2.604c0,1.125-0.251,2.087-0.756,2.882
		c-0.504,0.799-1.149,1.453-1.938,1.954c-0.789,0.503-1.671,0.867-2.646,1.094c-0.978,0.225-1.949,0.342-2.917,0.342
		c-1.181,0-2.301-0.149-3.358-0.447c-1.057-0.294-1.982-0.742-2.781-1.345c-0.799-0.601-1.43-1.371-1.895-2.308
		c-0.462-0.938-0.695-2.047-0.695-3.327h2.663c0,0.888,0.172,1.649,0.517,2.291c0.345,0.641,0.799,1.17,1.36,1.584
		c0.562,0.412,1.218,0.717,1.97,0.918c0.747,0.196,1.519,0.296,2.308,0.296c0.633,0,1.268-0.061,1.91-0.18
		c0.641-0.119,1.215-0.319,1.729-0.606c0.513-0.285,0.926-0.674,1.243-1.17c0.316-0.495,0.473-1.125,0.473-1.892
		c0-0.731-0.192-1.321-0.575-1.774c-0.384-0.453-0.899-0.824-1.538-1.109c-0.642-0.285-1.366-0.519-2.175-0.695
		c-0.808-0.182-1.632-0.36-2.47-0.548c-0.839-0.187-1.659-0.406-2.469-0.652c-0.809-0.248-1.532-0.574-2.173-0.976
		c-0.644-0.404-1.154-0.929-1.541-1.569c-0.384-0.642-0.577-1.444-0.577-2.412c0-1.063,0.219-1.985,0.652-2.765
		c0.434-0.777,1.01-1.418,1.73-1.923c0.719-0.503,1.538-0.876,2.456-1.123c0.918-0.249,1.859-0.374,2.825-0.374
		c1.084,0,2.092,0.129,3.018,0.384c0.926,0.257,1.741,0.663,2.441,1.215c0.699,0.553,1.253,1.248,1.658,2.085
		c0.404,0.837,0.625,1.839,0.666,3.002h-2.662C161.003,63.859,160.455,62.758,159.518,62.081z"/>
	<path fill="#0190C5" d="M177.285,67.685c-0.633-0.531-1.479-0.799-2.545-0.799c-0.908,0-1.667,0.169-2.277,0.503
		c-0.61,0.337-1.1,0.779-1.465,1.332c-0.366,0.553-0.626,1.189-0.785,1.908s-0.236,1.464-0.236,2.234
		c0,0.711,0.086,1.401,0.252,2.07c0.167,0.67,0.431,1.268,0.785,1.792c0.353,0.522,0.817,0.941,1.392,1.257
		c0.571,0.317,1.251,0.473,2.041,0.473c1.242,0,2.214-0.326,2.915-0.976c0.701-0.65,1.131-1.567,1.288-2.753h2.573
		c-0.276,1.896-0.979,3.354-2.116,4.38c-1.132,1.028-2.677,1.54-4.629,1.54c-1.167,0-2.197-0.188-3.094-0.563
		c-0.898-0.376-1.648-0.905-2.249-1.598c-0.602-0.691-1.054-1.514-1.361-2.47c-0.307-0.957-0.457-2.006-0.457-3.152
		c0-1.144,0.146-2.215,0.443-3.21c0.296-0.995,0.743-1.865,1.347-2.604c0.6-0.74,1.356-1.321,2.261-1.744
		c0.907-0.426,1.964-0.637,3.166-0.637c0.868,0,1.681,0.102,2.44,0.309c0.76,0.209,1.43,0.531,2.012,0.963
		c0.581,0.436,1.06,0.982,1.435,1.643c0.375,0.661,0.611,1.444,0.71,2.354h-2.602C178.331,68.967,177.916,68.218,177.285,67.685z"/>
	<path fill="#0190C5" d="M184.624,62.271v-3.077h2.515v3.077H184.624z M187.137,65.021v15.3h-2.515v-15.3H187.137z"/>
	<path fill="#0190C5" d="M202.314,79.342c-1.144,0.868-2.584,1.305-4.319,1.305c-1.223,0-2.283-0.199-3.181-0.594
		c-0.898-0.394-1.651-0.946-2.264-1.656c-0.611-0.71-1.071-1.557-1.374-2.545c-0.305-0.986-0.479-2.06-0.517-3.226
		c0-1.163,0.177-2.228,0.532-3.195c0.354-0.969,0.853-1.805,1.492-2.515c0.642-0.71,1.402-1.263,2.28-1.655
		c0.877-0.396,1.839-0.592,2.883-0.592c1.362,0,2.49,0.28,3.389,0.842c0.897,0.563,1.617,1.278,2.162,2.146
		c0.54,0.868,0.917,1.815,1.124,2.841c0.206,1.028,0.29,2.004,0.25,2.928h-11.449c-0.021,0.669,0.06,1.306,0.236,1.908
		c0.179,0.604,0.463,1.136,0.859,1.6c0.393,0.462,0.897,0.834,1.508,1.107c0.612,0.276,1.331,0.417,2.16,0.417
		c1.065,0,1.938-0.248,2.62-0.738c0.681-0.492,1.13-1.243,1.346-2.25h2.485C204.198,77.184,203.459,78.475,202.314,79.342z
		 M201.708,69.52c-0.226-0.531-0.533-0.991-0.917-1.375c-0.383-0.382-0.837-0.691-1.361-0.918c-0.522-0.225-1.099-0.336-1.729-0.336
		c-0.652,0-1.24,0.111-1.763,0.336c-0.523,0.227-0.97,0.54-1.347,0.936c-0.375,0.393-0.668,0.853-0.887,1.373
		c-0.217,0.521-0.345,1.081-0.384,1.673h8.788C202.067,70.614,201.934,70.053,201.708,69.52z"/>
	<path fill="#0190C5" d="M210.184,65.021v2.429h0.058c1.045-1.854,2.702-2.782,4.971-2.782c1.006,0,1.844,0.14,2.515,0.416
		c0.669,0.274,1.213,0.661,1.626,1.153c0.416,0.494,0.705,1.081,0.874,1.762c0.168,0.682,0.252,1.436,0.252,2.262V80.32h-2.515
		V69.962c0-0.945-0.276-1.694-0.829-2.247c-0.552-0.551-1.313-0.829-2.278-0.829c-0.769,0-1.435,0.119-1.996,0.356
		c-0.562,0.237-1.031,0.572-1.405,1.006c-0.376,0.434-0.657,0.941-0.845,1.524c-0.187,0.58-0.28,1.217-0.28,1.908v8.64h-2.514
		V65.022h2.367V65.021z"/>
	<path fill="#0190C5" d="M233.853,67.685c-0.632-0.531-1.479-0.799-2.544-0.799c-0.908,0-1.669,0.169-2.281,0.503
		c-0.61,0.337-1.098,0.779-1.463,1.332c-0.368,0.553-0.626,1.189-0.785,1.908s-0.236,1.464-0.236,2.234
		c0,0.711,0.084,1.401,0.252,2.07c0.167,0.67,0.43,1.268,0.785,1.792c0.354,0.522,0.819,0.941,1.39,1.257
		c0.571,0.317,1.252,0.473,2.041,0.473c1.245,0,2.214-0.326,2.917-0.976c0.697-0.652,1.128-1.567,1.287-2.753h2.573
		c-0.276,1.896-0.981,3.354-2.114,4.38c-1.136,1.028-2.68,1.54-4.633,1.54c-1.164,0-2.194-0.188-3.092-0.563
		c-0.897-0.376-1.647-0.905-2.248-1.598c-0.602-0.691-1.057-1.514-1.361-2.47c-0.305-0.957-0.458-2.006-0.458-3.152
		c0-1.144,0.149-2.215,0.444-3.21c0.298-0.995,0.745-1.865,1.346-2.604c0.602-0.74,1.356-1.321,2.263-1.744
		c0.908-0.426,1.962-0.637,3.167-0.637c0.865,0,1.682,0.102,2.44,0.309c0.76,0.209,1.43,0.531,2.012,0.963
		c0.579,0.436,1.058,0.982,1.435,1.643c0.374,0.661,0.61,1.444,0.708,2.354h-2.602C234.898,68.967,234.485,68.218,233.853,67.685z"
		/>
	<path fill="#0190C5" d="M251.871,79.342c-1.146,0.868-2.584,1.305-4.321,1.305c-1.223,0-2.282-0.199-3.181-0.594
		c-0.896-0.394-1.65-0.946-2.264-1.656c-0.611-0.71-1.071-1.557-1.374-2.545c-0.305-0.986-0.478-2.06-0.517-3.226
		c0-1.163,0.177-2.228,0.532-3.195c0.354-0.969,0.854-1.805,1.494-2.515s1.4-1.263,2.278-1.655c0.876-0.396,1.838-0.592,2.882-0.592
		c1.363,0,2.49,0.28,3.39,0.842c0.896,0.563,1.615,1.278,2.16,2.146c0.542,0.868,0.918,1.815,1.124,2.841
		c0.208,1.028,0.292,2.004,0.253,2.928h-11.45c-0.021,0.669,0.058,1.306,0.236,1.908c0.177,0.604,0.461,1.136,0.857,1.6
		c0.394,0.462,0.897,0.834,1.508,1.107c0.612,0.276,1.333,0.417,2.16,0.417c1.064,0,1.938-0.248,2.619-0.738
		c0.681-0.492,1.131-1.243,1.346-2.25h2.486C253.754,77.184,253.016,78.475,251.871,79.342z M251.265,69.52
		c-0.228-0.531-0.535-0.991-0.919-1.375c-0.383-0.382-0.837-0.691-1.36-0.918c-0.523-0.225-1.098-0.336-1.73-0.336
		c-0.652,0-1.238,0.111-1.763,0.336c-0.523,0.227-0.97,0.54-1.346,0.936c-0.376,0.393-0.67,0.853-0.889,1.373
		c-0.217,0.521-0.343,1.081-0.383,1.673h8.787C251.625,70.614,251.491,70.053,251.265,69.52z"/>
	<path fill="#0190C5" d="M280.333,59.194v2.366h-11.067v6.716h9.705v2.366h-9.705v9.678h-2.81V59.194H280.333z"/>
	<path fill="#0190C5" d="M283.113,69.532c0.315-0.976,0.789-1.821,1.419-2.545c0.632-0.717,1.412-1.284,2.338-1.699
		c0.926-0.416,1.991-0.621,3.196-0.621c1.222,0,2.292,0.207,3.21,0.621c0.917,0.415,1.691,0.982,2.323,1.699
		c0.63,0.724,1.104,1.569,1.419,2.545c0.315,0.979,0.474,2.029,0.474,3.154c0,1.123-0.16,2.17-0.474,3.135
		c-0.315,0.967-0.789,1.812-1.419,2.53c-0.63,0.721-1.405,1.282-2.323,1.686c-0.917,0.404-1.988,0.609-3.21,0.609
		c-1.205,0-2.27-0.205-3.196-0.609c-0.927-0.403-1.707-0.965-2.338-1.686c-0.63-0.719-1.105-1.563-1.419-2.53
		c-0.314-0.965-0.472-2.012-0.472-3.135C282.641,71.562,282.798,70.513,283.113,69.532z M285.672,75.154
		c0.246,0.721,0.587,1.323,1.019,1.809c0.434,0.481,0.943,0.853,1.525,1.107c0.58,0.257,1.197,0.385,1.85,0.385
		c0.653,0,1.268-0.128,1.85-0.385c0.579-0.257,1.089-0.626,1.524-1.107c0.433-0.485,0.776-1.086,1.02-1.809
		c0.246-0.717,0.369-1.542,0.369-2.468c0-0.929-0.123-1.751-0.369-2.472c-0.248-0.719-0.587-1.325-1.02-1.817
		c-0.435-0.495-0.944-0.87-1.524-1.127c-0.583-0.255-1.197-0.385-1.85-0.385c-0.652,0-1.267,0.13-1.85,0.385
		c-0.582,0.257-1.09,0.632-1.525,1.127c-0.432,0.489-0.774,1.097-1.019,1.817c-0.246,0.721-0.372,1.543-0.372,2.472
		S285.426,74.438,285.672,75.154z"/>
	<path fill="#0190C5" d="M303.172,65.021v3.226h0.059c0.613-1.239,1.363-2.157,2.25-2.751c0.887-0.589,2.011-0.865,3.373-0.826
		v2.661c-1.007,0-1.864,0.139-2.573,0.417c-0.711,0.274-1.284,0.68-1.717,1.214c-0.434,0.528-0.75,1.176-0.946,1.936
		c-0.199,0.761-0.297,1.633-0.297,2.619v6.805h-2.515v-15.3H303.172z"/>
	<path fill="#0190C5" d="M329.12,59.194l8.255,21.126h-3.107l-2.308-6.362h-8.935l-2.366,6.362h-2.872l8.226-21.126H329.12z
		 M331.073,71.588l-3.52-9.851h-0.06l-3.581,9.851H331.073z"/>
	<path fill="#0190C5" d="M356.221,59.194c0.455,0,0.942,0.004,1.466,0.015c0.521,0.011,1.04,0.041,1.553,0.089
		c0.512,0.049,0.991,0.123,1.434,0.22c0.442,0.101,0.825,0.248,1.138,0.444c0.691,0.415,1.279,0.984,1.763,1.716
		c0.482,0.73,0.724,1.628,0.724,2.692c0,1.127-0.273,2.096-0.815,2.916c-0.543,0.818-1.317,1.425-2.324,1.818v0.061
		c1.302,0.275,2.298,0.867,2.988,1.774c0.692,0.908,1.036,2.012,1.036,3.313c0,0.771-0.138,1.52-0.415,2.249
		c-0.276,0.728-0.686,1.376-1.227,1.937c-0.544,0.563-1.213,1.017-2.012,1.36c-0.799,0.346-1.722,0.519-2.766,0.519h-10.207V59.194
		H356.221L356.221,59.194z M356.991,68.276c1.597,0,2.746-0.281,3.447-0.845c0.697-0.561,1.049-1.405,1.049-2.527
		c0-0.749-0.118-1.343-0.354-1.777c-0.237-0.432-0.562-0.766-0.976-1.003c-0.416-0.237-0.894-0.391-1.435-0.458
		c-0.542-0.069-1.119-0.102-1.73-0.102h-5.621v6.716h5.619V68.276L356.991,68.276z M358.412,77.952c1.241,0,2.214-0.335,2.913-1.006
		c0.701-0.67,1.052-1.598,1.052-2.781c0-0.692-0.13-1.263-0.386-1.716c-0.257-0.456-0.597-0.816-1.021-1.084
		c-0.423-0.264-0.914-0.453-1.465-0.562c-0.552-0.107-1.124-0.164-1.716-0.164h-6.419v7.31h7.042V77.952z"/>
	<path fill="#0190C5" d="M379.683,79.342c-1.143,0.868-2.584,1.305-4.319,1.305c-1.224,0-2.284-0.199-3.181-0.594
		c-0.897-0.394-1.652-0.946-2.265-1.656c-0.611-0.71-1.071-1.557-1.373-2.545c-0.308-0.986-0.479-2.06-0.518-3.226
		c0-1.163,0.177-2.228,0.532-3.195c0.355-0.969,0.854-1.805,1.494-2.515s1.401-1.263,2.279-1.655
		c0.876-0.396,1.839-0.592,2.882-0.592c1.362,0,2.49,0.28,3.391,0.842c0.896,0.563,1.616,1.278,2.16,2.146
		c0.543,0.868,0.917,1.815,1.125,2.841c0.209,1.028,0.293,2.004,0.253,2.928H370.69c-0.021,0.669,0.059,1.306,0.236,1.908
		c0.177,0.604,0.461,1.136,0.857,1.6c0.394,0.462,0.897,0.834,1.509,1.107c0.611,0.276,1.333,0.417,2.16,0.417
		c1.065,0,1.939-0.248,2.618-0.738c0.682-0.492,1.131-1.243,1.347-2.25h2.485C381.566,77.184,380.826,78.475,379.683,79.342z
		 M379.077,69.52c-0.228-0.531-0.533-0.991-0.917-1.375c-0.384-0.382-0.84-0.691-1.362-0.918c-0.523-0.225-1.098-0.336-1.73-0.336
		c-0.652,0-1.238,0.111-1.76,0.336c-0.525,0.227-0.973,0.54-1.347,0.936c-0.377,0.393-0.671,0.853-0.89,1.373
		c-0.217,0.521-0.344,1.081-0.383,1.673h8.787C379.436,70.614,379.303,70.053,379.077,69.52z"/>
	<path fill="#0190C5" d="M391.725,65.021v2.222h-3.048v9.496c0,0.296,0.024,0.531,0.074,0.711c0.048,0.179,0.141,0.314,0.28,0.414
		c0.138,0.1,0.33,0.164,0.577,0.194c0.246,0.026,0.567,0.043,0.962,0.043h1.154v2.22h-1.925c-0.65,0-1.208-0.046-1.67-0.134
		c-0.463-0.089-0.839-0.253-1.126-0.488c-0.286-0.237-0.497-0.574-0.636-1.006c-0.138-0.434-0.207-1.008-0.207-1.716v-9.734h-2.604
		v-2.22h2.604v-4.587h2.515v4.587h3.049V65.021z"/>
	<path fill="#0190C5" d="M401.488,65.021v2.222h-3.046v9.496c0,0.296,0.022,0.531,0.072,0.711c0.05,0.179,0.143,0.314,0.28,0.414
		c0.139,0.1,0.333,0.164,0.577,0.194c0.246,0.026,0.566,0.043,0.96,0.043h1.154v2.22h-1.922c-0.652,0-1.209-0.046-1.673-0.134
		c-0.464-0.089-0.837-0.253-1.125-0.488s-0.497-0.574-0.635-1.006c-0.14-0.434-0.209-1.008-0.209-1.716v-9.734h-2.603v-2.22h2.603
		v-4.587h2.516v4.587h3.05V65.021z"/>
	<path fill="#0190C5" d="M415.541,79.342c-1.143,0.868-2.583,1.305-4.318,1.305c-1.223,0-2.283-0.199-3.181-0.594
		c-0.898-0.394-1.652-0.946-2.264-1.656c-0.612-0.71-1.072-1.557-1.375-2.545c-0.305-0.986-0.479-2.06-0.518-3.226
		c0-1.163,0.179-2.228,0.532-3.195c0.355-0.969,0.854-1.805,1.494-2.515c0.64-0.71,1.4-1.263,2.278-1.655
		c0.878-0.396,1.839-0.592,2.883-0.592c1.361,0,2.49,0.28,3.39,0.842c0.896,0.563,1.616,1.278,2.158,2.146
		c0.544,0.868,0.917,1.815,1.125,2.841c0.208,1.026,0.292,2.004,0.253,2.928H406.55c-0.021,0.669,0.06,1.306,0.235,1.908
		c0.179,0.604,0.463,1.136,0.857,1.6c0.395,0.462,0.897,0.834,1.509,1.107c0.613,0.276,1.331,0.417,2.159,0.417
		c1.065,0,1.939-0.248,2.619-0.738c0.681-0.492,1.13-1.243,1.346-2.25h2.486C417.425,77.184,416.686,78.475,415.541,79.342z
		 M414.935,69.52c-0.228-0.531-0.533-0.991-0.917-1.375c-0.385-0.382-0.839-0.691-1.361-0.918c-0.523-0.225-1.098-0.336-1.729-0.336
		c-0.65,0-1.237,0.111-1.761,0.336c-0.524,0.227-0.971,0.54-1.347,0.936c-0.376,0.393-0.67,0.853-0.889,1.373
		c-0.218,0.524-0.345,1.081-0.384,1.673h8.787C415.295,70.614,415.161,70.053,414.935,69.52z"/>
	<path fill="#0190C5" d="M423.322,65.021v3.226h0.06c0.612-1.239,1.361-2.157,2.249-2.751c0.888-0.589,2.012-0.865,3.373-0.826
		v2.661c-1.007,0-1.864,0.139-2.575,0.417c-0.709,0.274-1.281,0.68-1.716,1.214c-0.434,0.528-0.749,1.176-0.944,1.936
		c-0.2,0.761-0.298,1.633-0.298,2.619v6.805h-2.516v-15.3H423.322z"/>
	<path fill="#0190C5" d="M443.233,59.194v18.758h11.184v2.368h-13.994V59.194H443.233L443.233,59.194z"/>
	<path fill="#0190C5" d="M457.051,62.271v-3.077h2.516v3.077H457.051z M459.566,65.021v15.3h-2.516v-15.3H459.566z"/>
	<path fill="#0190C5" d="M462.376,67.242v-2.222h2.573v-2.277c0-1.244,0.359-2.185,1.08-2.826c0.721-0.641,1.771-0.96,3.152-0.96
		c0.237,0,0.508,0.02,0.814,0.058c0.305,0.039,0.577,0.102,0.814,0.179v2.189c-0.218-0.08-0.455-0.136-0.71-0.165
		c-0.257-0.028-0.494-0.045-0.712-0.045c-0.611,0-1.083,0.119-1.418,0.356c-0.338,0.238-0.502,0.691-0.502,1.36v2.131h2.959v2.22
		h-2.959v13.078h-2.515V67.242H462.376L462.376,67.242z"/>
	<path fill="#0190C5" d="M483.942,79.342c-1.144,0.868-2.584,1.305-4.318,1.305c-1.222,0-2.283-0.199-3.181-0.594
		c-0.896-0.394-1.65-0.946-2.264-1.656c-0.612-0.71-1.068-1.557-1.375-2.545c-0.304-0.986-0.479-2.06-0.518-3.226
		c0-1.163,0.179-2.228,0.533-3.195c0.354-0.969,0.853-1.805,1.493-2.515c0.64-0.71,1.402-1.263,2.28-1.655
		c0.878-0.396,1.84-0.592,2.884-0.592c1.36,0,2.489,0.28,3.387,0.842c0.897,0.563,1.616,1.278,2.161,2.146
		c0.54,0.868,0.917,1.815,1.125,2.841c0.208,1.028,0.292,2.004,0.253,2.928h-11.45c-0.021,0.669,0.06,1.306,0.236,1.908
		c0.179,0.604,0.463,1.136,0.857,1.6c0.393,0.462,0.896,0.834,1.509,1.107c0.612,0.276,1.331,0.417,2.16,0.417
		c1.064,0,1.937-0.248,2.617-0.738c0.681-0.492,1.129-1.243,1.347-2.25h2.484C485.826,77.184,485.087,78.475,483.942,79.342z
		 M483.337,69.52c-0.227-0.531-0.532-0.991-0.917-1.375c-0.386-0.382-0.84-0.691-1.36-0.918c-0.524-0.225-1.099-0.336-1.73-0.336
		c-0.652,0-1.238,0.111-1.761,0.336c-0.525,0.227-0.973,0.54-1.346,0.936c-0.378,0.393-0.671,0.853-0.891,1.373
		c-0.217,0.524-0.343,1.081-0.383,1.673h8.787C483.697,70.614,483.563,70.053,483.337,69.52z"/>
</g>
</svg>
