<?xml version="1.0" encoding="utf-8"?>
<!-- Generator: Adobe Illustrator 15.1.0, SVG Export Plug-In . SVG Version: 6.00 Build 0)  -->
<!DOCTYPE svg PUBLIC "-//W3C//DTD SVG 1.1//EN" "http://www.w3.org/Graphics/SVG/1.1/DTD/svg11.dtd">
<svg version="1.1" id="Ebene_1" xmlns="http://www.w3.org/2000/svg" xmlns:xlink="http://www.w3.org/1999/xlink" x="0px" y="0px"
	 width="300px" height="60px" viewBox="0 0 300 60" enable-background="new 0 0 300 60" xml:space="preserve">
<g>
	<path fill="#0090C5" d="M13.064,20.906h4.861c1.793,0,2.97,0.812,2.97,2.479c0,1.009-0.519,1.737-1.429,2.13v0.027
		c1.219,0.267,1.877,1.219,1.877,2.578c0,1.568-1.093,2.787-3.684,2.787h-4.595V20.906z M14.815,25.093h2.857
		c0.841,0,1.471-0.49,1.471-1.387c0-1.008-0.519-1.372-1.471-1.372h-2.857V25.093z M14.815,29.478h3.096
		c1.064,0,1.681-0.574,1.681-1.583c0-0.98-0.617-1.541-1.681-1.541h-3.096V29.478z"/>
	<path fill="#0090C5" d="M28.762,29.295c0,0.393,0.084,0.547,0.378,0.547c0.098,0,0.225,0,0.393-0.028v1.106
		c-0.238,0.084-0.743,0.183-1.009,0.183c-0.644,0-1.106-0.225-1.232-0.883c-0.63,0.616-1.653,0.883-2.507,0.883
		c-1.303,0-2.479-0.7-2.479-2.115c0-1.807,1.443-2.102,2.788-2.255c1.148-0.211,2.171-0.084,2.171-1.023
		c0-0.826-0.854-0.98-1.499-0.98c-0.896,0-1.527,0.364-1.597,1.149H22.57c0.112-1.863,1.695-2.41,3.292-2.41
		c1.415,0,2.899,0.575,2.899,2.102V29.295z M27.165,27.279c-0.49,0.322-1.261,0.309-1.961,0.435
		c-0.686,0.111-1.303,0.364-1.303,1.204c0,0.715,0.911,0.925,1.471,0.925c0.7,0,1.793-0.364,1.793-1.373V27.279z"/>
	<path fill="#0090C5" d="M29.682,23.665h1.751l1.891,5.407h0.028l1.835-5.407h1.667l-2.815,7.635
		c-0.519,1.303-0.896,2.479-2.563,2.479c-0.378,0-0.742-0.027-1.106-0.084v-1.345c0.252,0.042,0.504,0.099,0.756,0.099
		c0.742,0,0.924-0.393,1.121-1.009l0.182-0.561L29.682,23.665z"/>
	<path fill="#0090C5" d="M38.993,27.699c0,1.135,0.617,2.144,1.947,2.144c0.924,0,1.485-0.406,1.765-1.205h1.513
		c-0.35,1.583-1.695,2.466-3.278,2.466c-2.269,0-3.544-1.583-3.544-3.811c0-2.059,1.345-3.824,3.502-3.824
		c2.283,0,3.684,2.06,3.418,4.23H38.993z M42.719,26.649c-0.056-1.009-0.742-1.92-1.821-1.92c-1.106,0-1.863,0.841-1.905,1.92
		H42.719z"/>
	<path fill="#0090C5" d="M45.531,23.665h1.499v1.401h0.028c0.182-0.771,1.135-1.598,2.115-1.598c0.364,0,0.462,0.028,0.603,0.042
		v1.541c-0.224-0.027-0.462-0.069-0.687-0.069c-1.093,0-1.961,0.882-1.961,2.479v3.446h-1.597V23.665z"/>
	<path fill="#0090C5" d="M50.584,23.819h1.947v1.891h-1.947V23.819z M50.584,29.016h1.947v1.891h-1.947V29.016z"/>
	<path fill="#0090C5" d="M59.616,27.573c0,1.541,1.134,2.144,2.535,2.144c1.541,0,2.115-0.757,2.115-1.513
		c0-0.771-0.42-1.079-0.827-1.233c-0.7-0.266-1.611-0.448-2.983-0.826c-1.709-0.462-2.213-1.499-2.213-2.535
		c0-2.003,1.849-2.941,3.656-2.941c2.087,0,3.838,1.106,3.838,3.193h-1.751c-0.084-1.289-0.953-1.765-2.157-1.765
		c-0.812,0-1.835,0.294-1.835,1.303c0,0.7,0.477,1.093,1.191,1.288c0.154,0.042,2.367,0.616,2.885,0.771
		c1.317,0.393,1.947,1.513,1.947,2.55c0,2.241-1.989,3.138-3.978,3.138c-2.283,0-4.132-1.093-4.174-3.572H59.616z"/>
	<path fill="#0090C5" d="M72.203,26.088c-0.126-0.883-0.771-1.359-1.653-1.359c-0.827,0-1.989,0.435-1.989,2.634
		c0,1.205,0.533,2.479,1.919,2.479c0.924,0,1.569-0.616,1.723-1.653H73.8c-0.294,1.877-1.457,2.914-3.32,2.914
		c-2.27,0-3.516-1.611-3.516-3.74c0-2.186,1.191-3.895,3.572-3.895c1.681,0,3.11,0.841,3.264,2.62H72.203z"/>
	<path fill="#0090C5" d="M75.141,20.906h1.597v1.513h-1.597V20.906z M75.141,23.665h1.597v7.242h-1.597V23.665z"/>
	<path fill="#0090C5" d="M79.719,27.699c0,1.135,0.617,2.144,1.947,2.144c0.924,0,1.485-0.406,1.765-1.205h1.513
		c-0.35,1.583-1.695,2.466-3.278,2.466c-2.269,0-3.544-1.583-3.544-3.811c0-2.059,1.345-3.824,3.502-3.824
		c2.283,0,3.684,2.06,3.418,4.23H79.719z M83.445,26.649c-0.056-1.009-0.742-1.92-1.821-1.92c-1.106,0-1.863,0.841-1.905,1.92
		H83.445z"/>
	<path fill="#0090C5" d="M86.257,23.665h1.513v1.064l0.028,0.028c0.476-0.798,1.303-1.289,2.255-1.289
		c1.569,0,2.563,0.841,2.563,2.466v4.973H91.02v-4.553c-0.028-1.135-0.476-1.625-1.415-1.625c-1.065,0-1.751,0.841-1.751,1.905
		v4.272h-1.597V23.665z"/>
	<path fill="#0090C5" d="M99.181,26.088c-0.126-0.883-0.771-1.359-1.653-1.359c-0.826,0-1.989,0.435-1.989,2.634
		c0,1.205,0.533,2.479,1.919,2.479c0.924,0,1.569-0.616,1.723-1.653h1.597c-0.294,1.877-1.457,2.914-3.32,2.914
		c-2.27,0-3.516-1.611-3.516-3.74c0-2.186,1.19-3.895,3.572-3.895c1.681,0,3.11,0.841,3.264,2.62H99.181z"/>
	<path fill="#0090C5" d="M103.323,27.699c0,1.135,0.617,2.144,1.947,2.144c0.924,0,1.485-0.406,1.765-1.205h1.513
		c-0.35,1.583-1.695,2.466-3.278,2.466c-2.269,0-3.544-1.583-3.544-3.811c0-2.059,1.345-3.824,3.502-3.824
		c2.283,0,3.684,2.06,3.418,4.23H103.323z M107.049,26.649c-0.056-1.009-0.742-1.92-1.821-1.92c-1.106,0-1.863,0.841-1.905,1.92
		H107.049z"/>
	<path fill="#0090C5" d="M113.977,20.906h6.906v1.513h-5.154v2.619h4.524v1.429h-4.524v4.44h-1.751V20.906z"/>
	<path fill="#0090C5" d="M121.719,27.279c0-2.213,1.331-3.811,3.656-3.811s3.656,1.598,3.656,3.811c0,2.228-1.331,3.824-3.656,3.824
		S121.719,29.506,121.719,27.279z M127.435,27.279c0-1.247-0.631-2.55-2.06-2.55s-2.059,1.303-2.059,2.55
		c0,1.261,0.63,2.563,2.059,2.563S127.435,28.54,127.435,27.279z"/>
	<path fill="#0090C5" d="M130.357,23.665h1.498v1.401h0.028c0.183-0.771,1.135-1.598,2.115-1.598c0.364,0,0.462,0.028,0.603,0.042
		v1.541c-0.225-0.027-0.463-0.069-0.687-0.069c-1.093,0-1.961,0.882-1.961,2.479v3.446h-1.597V23.665z"/>
	<path fill="#0090C5" d="M142.076,20.906h1.863l3.852,10.001h-1.877l-0.938-2.647h-3.992l-0.938,2.647h-1.807L142.076,20.906z
		 M141.46,26.928h3.054l-1.499-4.3H143h-0.027L141.46,26.928z"/>
	<path fill="#0090C5" d="M152.629,20.906h4.861c1.793,0,2.969,0.812,2.969,2.479c0,1.009-0.518,1.737-1.428,2.13v0.027
		c1.219,0.267,1.877,1.219,1.877,2.578c0,1.568-1.094,2.787-3.684,2.787h-4.596V20.906z M154.381,25.093h2.857
		c0.84,0,1.471-0.49,1.471-1.387c0-1.008-0.518-1.372-1.471-1.372h-2.857V25.093z M154.381,29.478h3.096
		c1.064,0,1.68-0.574,1.68-1.583c0-0.98-0.615-1.541-1.68-1.541h-3.096V29.478z"/>
	<path fill="#0090C5" d="M163.508,27.699c0,1.135,0.615,2.144,1.947,2.144c0.924,0,1.484-0.406,1.764-1.205h1.514
		c-0.35,1.583-1.695,2.466-3.277,2.466c-2.27,0-3.545-1.583-3.545-3.811c0-2.059,1.346-3.824,3.502-3.824
		c2.283,0,3.684,2.06,3.418,4.23H163.508z M167.235,26.649c-0.057-1.009-0.744-1.92-1.822-1.92c-1.105,0-1.863,0.841-1.904,1.92
		H167.235z"/>
	<path fill="#0090C5" d="M169.317,23.665h1.205v-2.171h1.598v2.171h1.441v1.191h-1.441v3.865c0,0.659,0.055,0.995,0.77,0.995
		c0.225,0,0.447,0,0.672-0.057v1.233c-0.35,0.027-0.686,0.084-1.037,0.084c-1.666,0-1.975-0.645-2.002-1.85v-4.271h-1.205V23.665z"
		/>
	<path fill="#0090C5" d="M173.979,23.665h1.205v-2.171h1.598v2.171h1.441v1.191h-1.441v3.865c0,0.659,0.055,0.995,0.77,0.995
		c0.225,0,0.447,0,0.672-0.057v1.233c-0.35,0.027-0.686,0.084-1.037,0.084c-1.666,0-1.975-0.645-2.002-1.85v-4.271h-1.205V23.665z"
		/>
	<path fill="#0090C5" d="M180.616,27.699c0,1.135,0.617,2.144,1.947,2.144c0.926,0,1.484-0.406,1.766-1.205h1.512
		c-0.35,1.583-1.693,2.466-3.277,2.466c-2.27,0-3.543-1.583-3.543-3.811c0-2.059,1.344-3.824,3.502-3.824
		c2.283,0,3.684,2.06,3.418,4.23H180.616z M184.342,26.649c-0.057-1.009-0.742-1.92-1.82-1.92c-1.107,0-1.863,0.841-1.906,1.92
		H184.342z"/>
	<path fill="#0090C5" d="M187.155,23.665h1.498v1.401h0.027c0.184-0.771,1.135-1.598,2.115-1.598c0.365,0,0.463,0.028,0.604,0.042
		v1.541c-0.225-0.027-0.463-0.069-0.688-0.069c-1.092,0-1.961,0.882-1.961,2.479v3.446h-1.596V23.665z"/>
	<path fill="#0090C5" d="M196.198,20.906h1.75v8.488h5.086v1.513h-6.836V20.906z"/>
	<path fill="#0090C5" d="M204.051,20.906h1.598v1.513h-1.598V20.906z M204.051,23.665h1.598v7.242h-1.598V23.665z"/>
	<path fill="#0090C5" d="M206.668,23.665h1.191v-0.602c0-1.85,0.967-2.157,2.002-2.157c0.506,0,0.869,0.027,1.121,0.098v1.247
		c-0.209-0.057-0.42-0.084-0.742-0.084c-0.434,0-0.783,0.153-0.783,0.756v0.742h1.357v1.191h-1.357v6.051h-1.598v-6.051h-1.191
		V23.665z"/>
	<path fill="#0090C5" d="M213.04,27.699c0,1.135,0.617,2.144,1.947,2.144c0.926,0,1.484-0.406,1.766-1.205h1.512
		c-0.35,1.583-1.693,2.466-3.277,2.466c-2.27,0-3.543-1.583-3.543-3.811c0-2.059,1.344-3.824,3.502-3.824
		c2.283,0,3.684,2.06,3.418,4.23H213.04z M216.766,26.649c-0.057-1.009-0.742-1.92-1.82-1.92c-1.107,0-1.863,0.841-1.906,1.92
		H216.766z"/>
</g>
<g>
	<path fill="#339900" d="M104.554,39.785h6.933v1.296h-2.723v7.268h-1.499v-7.268h-2.711V39.785z"/>
	<path fill="#339900" d="M112.294,39.785h1.367v3.179h0.024c0.336-0.564,1.043-0.983,1.859-0.983c1.343,0,2.195,0.72,2.195,2.11
		v4.258h-1.367v-3.897c-0.024-0.972-0.408-1.392-1.211-1.392c-0.912,0-1.499,0.72-1.499,1.631v3.658h-1.367V39.785z"/>
	<path fill="#339900" d="M124.375,46.969c0,0.336,0.072,0.468,0.324,0.468c0.084,0,0.192,0,0.336-0.024v0.947
		c-0.204,0.072-0.636,0.156-0.863,0.156c-0.552,0-0.948-0.192-1.056-0.756c-0.54,0.528-1.415,0.756-2.146,0.756
		c-1.116,0-2.123-0.6-2.123-1.812c0-1.547,1.235-1.799,2.387-1.931c0.983-0.18,1.859-0.072,1.859-0.875
		c0-0.708-0.731-0.84-1.283-0.84c-0.768,0-1.307,0.312-1.367,0.983h-1.367c0.096-1.595,1.451-2.062,2.818-2.062
		c1.211,0,2.482,0.491,2.482,1.799V46.969z M123.008,45.242c-0.419,0.276-1.079,0.264-1.679,0.372
		c-0.587,0.096-1.115,0.312-1.115,1.031c0,0.611,0.78,0.792,1.259,0.792c0.6,0,1.535-0.312,1.535-1.176V45.242z"/>
	<path fill="#339900" d="M125.89,39.785h1.368v1.296h-1.368V39.785z M125.89,42.148h1.368v6.2h-1.368V42.148z"/>
	<path fill="#339900" d="M128.782,39.785h1.367v8.563h-1.367V39.785z"/>
	<path fill="#339900" d="M136.832,46.969c0,0.336,0.071,0.468,0.323,0.468c0.084,0,0.192,0,0.336-0.024v0.947
		c-0.204,0.072-0.636,0.156-0.863,0.156c-0.552,0-0.947-0.192-1.056-0.756c-0.54,0.528-1.415,0.756-2.146,0.756
		c-1.115,0-2.123-0.6-2.123-1.812c0-1.547,1.235-1.799,2.387-1.931c0.983-0.18,1.859-0.072,1.859-0.875
		c0-0.708-0.732-0.84-1.284-0.84c-0.768,0-1.307,0.312-1.367,0.983h-1.367c0.097-1.595,1.451-2.062,2.818-2.062
		c1.212,0,2.483,0.491,2.483,1.799V46.969z M135.464,45.242c-0.42,0.276-1.08,0.264-1.68,0.372
		c-0.588,0.096-1.115,0.312-1.115,1.031c0,0.611,0.779,0.792,1.26,0.792c0.6,0,1.535-0.312,1.535-1.176V45.242z"/>
	<path fill="#339900" d="M138.31,42.148h1.295v0.911l0.024,0.024c0.407-0.685,1.115-1.104,1.931-1.104
		c1.344,0,2.195,0.72,2.195,2.11v4.258h-1.367v-3.897c-0.024-0.972-0.408-1.392-1.212-1.392c-0.911,0-1.499,0.72-1.499,1.631v3.658
		h-1.367V42.148z"/>
	<path fill="#339900" d="M151.039,48.348h-1.296v-0.84h-0.023c-0.36,0.708-1.14,1.008-1.919,1.008c-1.955,0-2.902-1.451-2.902-3.311
		c0-2.242,1.331-3.226,2.687-3.226c0.779,0,1.643,0.287,2.062,0.971h0.024v-3.166h1.367V48.348z M147.98,47.437
		c1.224,0,1.739-1.116,1.739-2.195c0-1.367-0.66-2.183-1.715-2.183c-1.283,0-1.739,1.14-1.739,2.255
		C146.265,46.381,146.792,47.437,147.98,47.437z"/>
</g>
</svg>
