<?xml version="1.0" encoding="utf-8"?>
<!-- Generator: Adobe Illustrator 16.0.0, SVG Export Plug-In . SVG Version: 6.00 Build 0)  -->
<!DOCTYPE svg PUBLIC "-//W3C//DTD SVG 1.1//EN" "http://www.w3.org/Graphics/SVG/1.1/DTD/svg11.dtd">
<svg version="1.1" id="Ebene_1" xmlns="http://www.w3.org/2000/svg" xmlns:xlink="http://www.w3.org/1999/xlink" x="0px" y="0px"
	 width="995px" height="124px" viewBox="0 0 995 124" enable-background="new 0 0 995 124" xml:space="preserve">
<g>
	<path fill="#339900" d="M611.582,78.734c0,2.841-2.102,4.266-6.307,4.266c-4.232,0-6.349-1.421-6.349-4.266v-7.259
		c-0.29,0.053-0.535,0.085-0.739,0.085c-0.928,0-1.711-0.328-2.349-0.977c-0.638-0.651-0.956-1.444-0.956-2.375
		c0-0.897,0.318-1.667,0.956-2.304s1.421-0.954,2.349-0.954c0.985,0,1.806,0.334,2.456,0.998c0.653,0.663,0.979,1.505,0.979,2.519
		v10.277c0,0.577,0.392,1.041,1.174,1.39c0.783,0.345,1.61,0.522,2.479,0.522c0.842,0,1.654-0.178,2.438-0.522
		c0.781-0.345,1.173-0.809,1.173-1.393V58.341h2.696V78.734L611.582,78.734z M599.666,68.256c0-0.407-0.145-0.754-0.435-1.043
		c-0.291-0.29-0.639-0.436-1.044-0.436s-0.755,0.146-1.043,0.436c-0.291,0.289-0.436,0.639-0.436,1.043
		c0,0.407,0.145,0.753,0.436,1.039c0.288,0.291,0.638,0.437,1.043,0.437s0.753-0.146,1.044-0.437
		C599.521,69.009,599.666,68.663,599.666,68.256z"/>
	<path fill="#339900" d="M625.588,79.736c0,0.93-0.327,1.702-0.979,2.325c-0.652,0.625-1.442,0.938-2.37,0.938
		s-1.718-0.321-2.369-0.955c-0.653-0.64-0.979-1.42-0.979-2.347c0-0.932,0.326-1.713,0.979-2.353
		c0.651-0.639,1.439-0.954,2.369-0.954c0.348,0,0.564,0.015,0.653,0.041v-3.739c0-0.464-0.965-0.92-2.894-1.369
		c-1.928-0.45-3.674-0.804-5.24-1.065c0.059-1.596,0.479-2.88,1.262-3.848c0.782-0.973,1.913-1.46,3.392-1.46
		c0.609,0,1.44,0.138,2.501,0.416c1.058,0.272,1.819,0.414,2.283,0.414c0.492,0,0.769-0.322,0.826-0.956l2.131,0.567
		c-0.521,1.775-1.479,2.653-2.87,2.653c-0.521,0-1.268-0.116-2.239-0.367c-0.972-0.246-1.704-0.369-2.197-0.369
		c-1.275,0-2,0.482-2.174,1.434c2.229,0.468,4.109,0.956,5.632,1.476c1.522,0.521,2.284,1.42,2.284,2.694V79.736L625.588,79.736z
		 M623.717,79.698c0-0.409-0.147-0.754-0.441-1.045c-0.294-0.29-0.647-0.435-1.058-0.435c-0.412,0-0.766,0.145-1.06,0.435
		c-0.295,0.291-0.442,0.642-0.442,1.045s0.147,0.754,0.442,1.04c0.293,0.29,0.647,0.432,1.06,0.432c0.41,0,0.764-0.142,1.058-0.432
		C623.571,80.452,623.717,80.098,623.717,79.698z"/>
	<path fill="#339900" d="M641.244,65.385c-0.145,4.608-2.304,6.912-6.481,6.912c-1.738,0-3.072-0.354-4-1.066
		c-0.927-0.714-1.392-1.62-1.392-2.719c0-0.841,0.29-1.549,0.869-2.131c0.58-0.581,1.291-0.869,2.132-0.869
		c0.899,0,1.631,0.298,2.196,0.891c0.565,0.594,0.848,1.301,0.848,2.109c0,0.783-0.217,1.362-0.653,1.741
		c2.698-0.114,4.046-1.741,4.046-4.871h2.436V65.385z M641.244,75.259c-0.145,4.609-2.304,6.912-6.481,6.912
		c-1.738,0-3.072-0.353-4-1.064c-0.927-0.715-1.392-1.621-1.392-2.718c0-0.841,0.29-1.551,0.869-2.135
		c0.58-0.577,1.291-0.869,2.132-0.869c0.899,0,1.631,0.298,2.196,0.89c0.565,0.596,0.848,1.298,0.848,2.11
		c0,0.786-0.217,1.362-0.653,1.739c2.698-0.115,4.046-1.739,4.046-4.872h2.436V75.259z M633.676,68.521
		c0-0.38-0.13-0.699-0.392-0.959c-0.26-0.259-0.579-0.39-0.956-0.39c-0.376,0-0.689,0.129-0.936,0.39
		c-0.245,0.266-0.368,0.579-0.368,0.959c0,0.373,0.123,0.687,0.368,0.935c0.246,0.249,0.56,0.368,0.936,0.368
		c0.377,0,0.696-0.119,0.956-0.368C633.546,69.207,633.676,68.894,633.676,68.521z M633.676,78.391c0-0.378-0.13-0.699-0.392-0.955
		c-0.26-0.263-0.579-0.395-0.956-0.395c-0.376,0-0.689,0.13-0.936,0.395c-0.245,0.26-0.368,0.577-0.368,0.955
		c0,0.376,0.123,0.689,0.368,0.936c0.246,0.248,0.56,0.372,0.936,0.372c0.377,0,0.696-0.124,0.956-0.372
		C633.546,79.08,633.676,78.767,633.676,78.391z"/>
	<path fill="#339900" d="M651.77,79.698c0,0.927-0.33,1.707-0.979,2.347c-0.653,0.641-1.428,0.955-2.328,0.955
		c-0.985,0-1.811-0.336-2.479-1.002c-0.667-0.665-1-1.507-1-2.522v-14.18h2.696v11.178c0.145-0.055,0.406-0.088,0.782-0.088
		c0.9,0,1.675,0.321,2.328,0.957C651.443,77.978,651.77,78.767,651.77,79.698z M649.941,79.698c0-0.409-0.146-0.754-0.434-1.045
		c-0.29-0.29-0.638-0.435-1.045-0.435c-0.405,0-0.753,0.145-1.043,0.435c-0.289,0.291-0.435,0.642-0.435,1.045
		s0.146,0.754,0.435,1.04c0.29,0.29,0.638,0.432,1.043,0.432c0.407,0,0.755-0.142,1.045-0.432
		C649.796,80.452,649.941,80.098,649.941,79.698z"/>
	<path fill="#339900" d="M668.774,82.653h-2.695V68.605c0-0.899-0.219-1.349-0.65-1.349c-0.377,0-0.642,0.216-0.785,0.65
		l-5.173,14.746h-3.048V71.476c-0.287,0.055-0.535,0.085-0.736,0.085c-0.931,0-1.71-0.327-2.35-0.977
		c-0.641-0.649-0.955-1.444-0.955-2.373c0-0.897,0.318-1.668,0.955-2.303c0.64-0.64,1.419-0.955,2.35-0.955
		c0.986,0,1.806,0.332,2.453,1.002c0.653,0.665,0.979,1.507,0.979,2.52v6.48c0,0.987-0.174,2.526-0.522,4.611
		c0.319-1.277,0.727-2.693,1.219-4.263l2.438-7.742c0.553-1.767,1.637-2.637,3.263-2.605c2.174,0.032,3.262,1.26,3.262,3.697
		L668.774,82.653L668.774,82.653z M657.16,68.256c0-0.407-0.145-0.754-0.435-1.043c-0.287-0.29-0.639-0.436-1.041-0.436
		c-0.41,0-0.754,0.146-1.043,0.436c-0.291,0.289-0.435,0.639-0.435,1.043c0,0.407,0.144,0.753,0.435,1.039
		c0.289,0.291,0.638,0.437,1.043,0.437c0.406,0,0.754-0.146,1.041-0.437C657.016,69.009,657.16,68.663,657.16,68.256z"/>
	<path fill="#339900" d="M686.299,82.653h-2.695V70.814c0-1.039-0.45-1.908-1.346-2.605c-0.843-0.605-1.811-0.91-2.913-0.91
		c-1.306,0-2.349,0.435-3.133,1.31c-0.783,0.867-1.171,1.883-1.171,3.044c0,0.321,0.065,0.85,0.192,1.586
		c0.129,0.74,0.195,1.388,0.195,1.937v1.133c0-0.117,0.038-0.411,0.111-0.871c0.071-0.464,0.153-0.913,0.239-1.347
		c0.291-1.22,0.722-2.246,1.305-3.088c0.784-1.017,1.667-1.524,2.653-1.524c0.782,0,1.468,0.274,2.044,0.827
		c0.58,0.552,0.87,1.219,0.87,2c0,0.754-0.29,1.413-0.87,1.978c-0.58,0.568-1.262,0.852-2.044,0.852
		c-0.723,0-1.376-0.264-1.956-0.784c-0.87,2.637-1.306,5.407-1.306,8.307h-2.696v-2.785c0-1.363-0.239-2.844-0.718-4.456
		c-0.481-1.61-0.717-2.877-0.717-3.805c0-2.003,0.723-3.624,2.174-4.874c1.362-1.182,3.045-1.776,5.045-1.776
		c1.131,0,2.229,0.231,3.305,0.701c0.665-0.496,1.001-1.189,1.001-2.089h3.044c-0.344,1.593-1.017,2.768-2,3.522
		c0.928,1.072,1.391,2.332,1.391,3.783L686.299,82.653L686.299,82.653z M681.037,72.305c0-0.38-0.127-0.699-0.393-0.959
		c-0.26-0.261-0.576-0.391-0.952-0.391c-0.377,0-0.691,0.13-0.939,0.391c-0.245,0.265-0.368,0.579-0.368,0.959
		c0,0.374,0.123,0.687,0.368,0.934c0.248,0.25,0.563,0.368,0.939,0.368c0.375,0,0.697-0.118,0.952-0.368
		C680.906,72.991,681.037,72.679,681.037,72.305z"/>
	<path fill="#339900" d="M699.304,79.698c0,0.927-0.326,1.707-0.979,2.347c-0.648,0.641-1.431,0.955-2.323,0.955
		c-0.989,0-1.813-0.336-2.479-1.002c-0.666-0.665-1.004-1.507-1.004-2.522V57.991l-2.606,3.826l-1.738-0.524
		c-0.116-2.725-0.521-5.259-1.218-7.609h2.348c0.345,2.295,0.537,4.02,0.566,5.174l3.088-4.828c0.58,0.088,1.1,0.363,1.565,0.829
		c0.464,0.464,0.696,1.016,0.696,1.65v19.964c0.145-0.055,0.409-0.088,0.786-0.088c0.895,0,1.675,0.321,2.323,0.957
		C698.978,77.981,699.304,78.767,699.304,79.698z M697.477,79.698c0-0.409-0.145-0.754-0.434-1.045
		c-0.287-0.29-0.639-0.435-1.041-0.435c-0.41,0-0.755,0.145-1.043,0.435c-0.291,0.291-0.436,0.642-0.436,1.045
		s0.145,0.754,0.436,1.04c0.288,0.29,0.637,0.432,1.043,0.432c0.405,0,0.754-0.142,1.041-0.432
		C697.332,80.452,697.477,80.098,697.477,79.698z"/>
	<path fill="#339900" d="M716.309,82.653h-2.696V68.605c0-0.899-0.218-1.349-0.652-1.349c-0.378,0-0.639,0.216-0.783,0.65
		l-5.175,14.746h-3.045V71.476c-0.29,0.055-0.536,0.085-0.739,0.085c-0.928,0-1.707-0.327-2.349-0.977
		c-0.639-0.649-0.956-1.444-0.956-2.373c0-0.897,0.321-1.668,0.956-2.303c0.642-0.64,1.421-0.955,2.349-0.955
		c0.986,0,1.804,0.332,2.457,1.002c0.649,0.665,0.979,1.507,0.979,2.52v6.48c0,0.987-0.177,2.526-0.521,4.611
		c0.319-1.277,0.722-2.693,1.218-4.263l2.435-7.742c0.552-1.767,1.64-2.637,3.263-2.605c2.174,0.032,3.265,1.26,3.265,3.697
		L716.309,82.653L716.309,82.653z M704.695,68.256c0-0.407-0.144-0.754-0.434-1.043c-0.29-0.29-0.638-0.436-1.044-0.436
		c-0.405,0-0.754,0.146-1.044,0.436c-0.286,0.289-0.432,0.639-0.432,1.043c0,0.407,0.146,0.753,0.432,1.039
		c0.29,0.291,0.642,0.437,1.044,0.437c0.41,0,0.754-0.146,1.044-0.437C704.552,69.009,704.695,68.663,704.695,68.256z"/>
	<path fill="#339900" d="M733.097,78.261c0,3.159-2.149,4.739-6.437,4.739c-4.267,0-6.394-1.58-6.394-4.739v-2.003
		c0-1.392,0.583-2.379,1.751-2.96c-1.314-0.895-1.969-2.215-1.969-3.956c0-1.274,0.355-2.325,1.065-3.153
		c0.715-0.825,1.692-1.239,2.937-1.239c0.869,0,1.609,0.266,2.218,0.804c0.609,0.538,0.916,1.241,0.916,2.108
		c0,0.785-0.278,1.467-0.839,2.043c-0.556,0.581-1.287,0.867-2.195,0.867c-0.468,0-0.875-0.07-1.23-0.215
		c0.231,1.1,0.753,1.651,1.565,1.651h3.088v2.135h-3.088c-0.464,0-0.842,0.196-1.131,0.605c-0.291,0.403-0.435,0.864-0.435,1.381
		v1.988c0,1.554,1.242,2.332,3.719,2.332c2.511,0,3.761-0.781,3.761-2.343V65.296h2.697V78.261L733.097,78.261z M725.572,67.91
		c0-0.408-0.132-0.738-0.398-1.004c-0.265-0.262-0.604-0.393-1.021-0.393c-0.412,0-0.746,0.131-1.017,0.393
		c-0.265,0.266-0.397,0.596-0.397,1.004c0,0.404,0.132,0.738,0.397,1c0.265,0.263,0.604,0.393,1.017,0.393
		c0.416,0,0.752-0.13,1.021-0.393C725.44,68.648,725.572,68.314,725.572,67.91z"/>
</g>
<g>
	<path fill="#0090C5" d="M90.727,78.607c0,0.934-0.328,1.72-0.983,2.362c-0.656,0.641-1.436,0.962-2.34,0.962
		c-0.991,0-1.822-0.335-2.493-1.006c-0.671-0.672-1.005-1.516-1.005-2.536V56.787l-2.624,3.849l-1.75-0.525
		c-0.116-2.739-0.524-5.291-1.224-7.652h2.361c0.35,2.303,0.539,4.038,0.568,5.204l3.104-4.854c0.583,0.087,1.107,0.366,1.575,0.831
		c0.466,0.467,0.699,1.021,0.699,1.662v20.072c0.146-0.061,0.409-0.088,0.787-0.088c0.904,0,1.684,0.321,2.34,0.962
		C90.399,76.887,90.727,77.674,90.727,78.607z M88.891,78.607c0-0.407-0.146-0.759-0.438-1.05c-0.291-0.29-0.641-0.437-1.049-0.437
		c-0.409,0-0.759,0.146-1.049,0.437c-0.292,0.291-0.437,0.643-0.437,1.05c0,0.408,0.146,0.758,0.437,1.049
		c0.292,0.293,0.641,0.438,1.049,0.438s0.758-0.145,1.049-0.438C88.745,79.365,88.891,79.016,88.891,78.607z"/>
	<path fill="#0090C5" d="M108.131,77.646c0,2.856-2.114,4.284-6.341,4.284c-4.256,0-6.384-1.428-6.384-4.284v-7.303
		c-0.292,0.06-0.541,0.088-0.743,0.088c-0.933,0-1.72-0.327-2.361-0.984c-0.643-0.656-0.962-1.45-0.962-2.383
		c0-0.903,0.32-1.676,0.962-2.318c0.64-0.641,1.427-0.962,2.361-0.962c0.991,0,1.814,0.334,2.471,1.002
		c0.656,0.67,0.983,1.514,0.983,2.531v10.335c0,0.582,0.394,1.046,1.181,1.396c0.788,0.35,1.618,0.522,2.493,0.522
		c0.845,0,1.662-0.173,2.449-0.522c0.788-0.35,1.181-0.813,1.181-1.396V64.133h2.711V77.646z M96.149,67.107
		c0-0.408-0.146-0.758-0.437-1.05c-0.292-0.291-0.641-0.438-1.049-0.438s-0.758,0.147-1.05,0.438
		c-0.292,0.292-0.438,0.642-0.438,1.05c0,0.409,0.146,0.759,0.438,1.05s0.642,0.438,1.05,0.438s0.758-0.146,1.049-0.438
		C96.002,67.866,96.149,67.517,96.149,67.107z"/>
	<path fill="#0090C5" d="M119.28,78.607c0,0.934-0.328,1.72-0.984,2.362c-0.656,0.641-1.436,0.962-2.34,0.962
		c-0.991,0-1.822-0.335-2.492-1.006c-0.672-0.672-1.006-1.516-1.006-2.536V64.133h2.711v11.239c0.146-0.061,0.408-0.088,0.787-0.088
		c0.904,0,1.684,0.321,2.34,0.962C118.953,76.887,119.28,77.674,119.28,78.607z M117.444,78.607c0-0.407-0.147-0.759-0.438-1.05
		c-0.292-0.29-0.642-0.437-1.05-0.437c-0.409,0-0.758,0.146-1.049,0.437c-0.291,0.291-0.437,0.643-0.437,1.05
		c0,0.408,0.146,0.758,0.437,1.049c0.291,0.293,0.641,0.438,1.049,0.438c0.408,0,0.758-0.145,1.05-0.438
		C117.298,79.365,117.444,79.016,117.444,78.607z"/>
	<path fill="#0090C5" d="M134.454,77.646c0,1.517-0.685,2.64-2.055,3.367c-1.108,0.612-2.536,0.917-4.286,0.917
		c-1.749,0-3.164-0.307-4.242-0.921c-1.312-0.73-1.967-1.856-1.967-3.378v-4.433c0-1.055,0.29-1.938,0.875-2.654
		c0.583-0.718,1.414-1.075,2.492-1.075c0.933,0,1.72,0.315,2.361,0.945c0.641,0.632,0.962,1.416,0.962,2.354
		c0,0.911-0.321,1.688-0.962,2.335c-0.641,0.645-1.428,0.968-2.361,0.968c-0.262,0-0.481-0.029-0.656-0.089v1.34
		c0,1.497,1.181,2.247,3.542,2.247c2.389,0,3.585-0.767,3.585-2.304v-8.341c0-0.956-0.452-1.68-1.355-2.172
		c-0.759-0.405-1.69-0.609-2.798-0.609c-2.771,0-4.271,0.701-4.504,2.101h-2.624c0.379-2.944,2.682-4.432,6.909-4.461
		c1.952,0,3.557,0.366,4.81,1.094c1.516,0.933,2.274,2.332,2.274,4.197V77.646z M126.758,72.769c0-0.4-0.148-0.746-0.444-1.032
		c-0.296-0.287-0.651-0.432-1.064-0.432c-0.413,0-0.77,0.145-1.065,0.432c-0.296,0.286-0.444,0.632-0.444,1.032
		c0,0.403,0.148,0.749,0.444,1.035c0.295,0.286,0.651,0.432,1.065,0.432c0.415,0,0.769-0.146,1.064-0.432
		S126.758,73.172,126.758,72.769z"/>
	<path fill="#0090C5" d="M151.683,77.646c0,1.517-0.685,2.64-2.055,3.367c-1.108,0.612-2.536,0.917-4.286,0.917
		c-1.749,0-3.164-0.307-4.241-0.921c-1.313-0.73-1.968-1.856-1.968-3.378v-4.433c0-1.055,0.291-1.938,0.875-2.654
		c0.583-0.718,1.414-1.075,2.493-1.075c0.933,0,1.72,0.315,2.361,0.945c0.642,0.632,0.962,1.416,0.962,2.354
		c0,0.911-0.32,1.688-0.962,2.335c-0.641,0.645-1.429,0.968-2.361,0.968c-0.262,0-0.481-0.029-0.656-0.089v1.34
		c0,1.497,1.18,2.247,3.542,2.247c2.39,0,3.586-0.767,3.586-2.304v-8.341c0-0.956-0.452-1.68-1.356-2.172
		c-0.759-0.405-1.691-0.609-2.799-0.609c-2.771,0-4.271,0.701-4.504,2.101h-2.624c0.379-2.944,2.683-4.432,6.91-4.461
		c1.952,0,3.557,0.366,4.81,1.094c1.516,0.933,2.274,2.332,2.274,4.197V77.646L151.683,77.646z M143.987,72.769
		c0-0.4-0.149-0.746-0.445-1.032c-0.295-0.287-0.65-0.432-1.064-0.432c-0.413,0-0.769,0.145-1.065,0.432
		c-0.296,0.286-0.443,0.632-0.443,1.032c0,0.403,0.147,0.749,0.443,1.035s0.65,0.432,1.065,0.432s0.769-0.146,1.064-0.432
		C143.838,73.518,143.987,73.172,143.987,72.769z"/>
	<path fill="#0090C5" d="M165.764,78.652c0,0.933-0.328,1.712-0.984,2.338c-0.656,0.627-1.45,0.939-2.383,0.939
		c-0.933,0-1.728-0.321-2.383-0.962c-0.656-0.641-0.984-1.427-0.984-2.361c0-0.933,0.328-1.72,0.984-2.362
		c0.656-0.64,1.45-0.962,2.383-0.962c0.35,0,0.568,0.016,0.656,0.045v-3.761c0-0.466-0.969-0.927-2.908-1.377
		c-1.939-0.452-3.695-0.809-5.27-1.07c0.058-1.604,0.481-2.894,1.268-3.871c0.788-0.977,1.924-1.465,3.411-1.465
		c0.613,0,1.451,0.138,2.515,0.416c1.064,0.277,1.83,0.413,2.296,0.413c0.496,0,0.772-0.321,0.831-0.962l2.142,0.57
		c-0.524,1.776-1.486,2.666-2.886,2.666c-0.525,0-1.276-0.124-2.252-0.371c-0.977-0.246-1.712-0.371-2.208-0.371
		c-1.283,0-2.012,0.481-2.187,1.443c2.244,0.468,4.132,0.962,5.663,1.486c1.53,0.526,2.296,1.43,2.296,2.712V78.652L165.764,78.652z
		 M163.883,78.607c0-0.407-0.149-0.759-0.444-1.05c-0.296-0.29-0.651-0.437-1.065-0.437c-0.413,0-0.769,0.146-1.065,0.437
		c-0.295,0.291-0.443,0.643-0.443,1.05c0,0.408,0.148,0.758,0.443,1.049c0.296,0.293,0.651,0.438,1.065,0.438
		c0.415,0,0.769-0.145,1.065-0.438C163.734,79.365,163.883,79.016,163.883,78.607z"/>
	<path fill="#0090C5" d="M167.863,52.414c-0.117,1.224-0.511,2.106-1.181,2.646c-0.67,0.54-1.574,0.969-2.711,1.29
		c0.466,0.233,0.839,0.576,1.115,1.027c0.277,0.453,0.416,0.955,0.416,1.509c0,0.787-0.277,1.458-0.832,2.012
		c-0.554,0.553-1.224,0.832-2.011,0.832c-0.788,0-1.458-0.278-2.012-0.832c-0.553-0.553-0.832-1.238-0.832-2.055
		c0-2.099,1.079-3.455,3.236-4.066c1.224-0.321,2.004-0.729,2.34-1.225c0.335-0.496,0.502-0.874,0.502-1.137H167.863z
		 M163.926,58.886c0-0.321-0.124-0.605-0.372-0.853c-0.247-0.247-0.531-0.372-0.853-0.372c-0.321,0-0.605,0.125-0.853,0.372
		c-0.248,0.248-0.372,0.532-0.372,0.853s0.124,0.605,0.372,0.853c0.248,0.248,0.532,0.372,0.853,0.372
		c0.321,0,0.606-0.124,0.853-0.372C163.803,59.492,163.926,59.208,163.926,58.886z"/>
	<path fill="#0090C5" d="M192.524,78.39c0,1.021-0.335,1.858-1.006,2.514c-0.671,0.656-1.501,0.983-2.492,0.983
		c-0.933,0-1.72-0.323-2.361-0.968c-0.641-0.646-0.962-1.423-0.962-2.334c0-0.938,0.321-1.73,0.962-2.375
		c0.641-0.646,1.428-0.971,2.361-0.971c0.321,0,0.583,0.017,0.787,0.045v-6.366c0-1.849-1.34-2.773-4.022-2.773
		c-1.108,0-2.049,0.339-2.82,1.016c-0.773,0.678-1.159,1.578-1.159,2.703h-2.624c0.087-1.926,0.722-3.417,1.902-4.484
		c1.181-1.063,2.748-1.596,4.701-1.596c1.924,0,3.469,0.38,4.635,1.139c1.399,0.902,2.099,2.287,2.099,4.152V78.39L192.524,78.39z
		 M190.514,78.564c0-0.409-0.147-0.759-0.437-1.049c-0.292-0.291-0.642-0.438-1.05-0.438c-0.409,0-0.759,0.147-1.049,0.438
		c-0.292,0.29-0.438,0.64-0.438,1.049s0.146,0.759,0.438,1.049c0.29,0.291,0.64,0.438,1.049,0.438c0.408,0,0.758-0.146,1.05-0.438
		C190.367,79.323,190.514,78.974,190.514,78.564z"/>
	<path fill="#0090C5" d="M192.611,61.904c-3.615-1.166-6.923-1.75-9.926-1.75c-1.37,0-2.755,0.087-4.155,0.262
		c0.35-3.905,2.479-5.86,6.385-5.86c2.246,0,4.023,0.678,5.335,2.033C191.562,57.946,192.349,59.716,192.611,61.904z
		 M189.813,59.323c-0.175-0.729-0.7-1.414-1.574-2.055c-0.875-0.642-1.866-0.962-2.974-0.962c-1.05,0-1.953,0.212-2.711,0.634
		c-0.758,0.423-1.239,0.984-1.443,1.684c0.497-0.116,1.269-0.175,2.318-0.175C185.587,58.45,187.714,58.74,189.813,59.323z"/>
	<path fill="#0090C5" d="M211.677,81.58h-2.711V67.458c0-0.903-0.219-1.356-0.656-1.356c-0.379,0-0.641,0.218-0.787,0.656
		l-5.204,14.822h-3.061V70.343c-0.292,0.06-0.541,0.088-0.743,0.088c-0.933,0-1.72-0.327-2.361-0.984
		c-0.643-0.656-0.962-1.45-0.962-2.383c0-0.903,0.321-1.676,0.962-2.318c0.64-0.641,1.427-0.962,2.361-0.962
		c0.991,0,1.814,0.334,2.471,1.007c0.656,0.671,0.983,1.515,0.983,2.535v6.516c0,0.992-0.175,2.538-0.524,4.636
		c0.321-1.282,0.729-2.71,1.224-4.286l2.449-7.783c0.553-1.778,1.647-2.652,3.28-2.624c2.187,0.029,3.279,1.269,3.279,3.716
		L211.677,81.58L211.677,81.58z M200.001,67.107c0-0.408-0.147-0.758-0.437-1.05c-0.292-0.291-0.641-0.438-1.049-0.438
		s-0.758,0.147-1.05,0.438c-0.292,0.292-0.438,0.642-0.438,1.05c0,0.409,0.146,0.759,0.438,1.05s0.642,0.438,1.05,0.438
		s0.758-0.146,1.049-0.438C199.855,67.866,200.001,67.517,200.001,67.107z"/>
	<path fill="#0090C5" d="M228.556,77.164c0,3.178-2.157,4.766-6.472,4.766c-4.285,0-6.428-1.588-6.428-4.766v-2.012
		c0-1.399,0.586-2.39,1.761-2.973c-1.32-0.903-1.979-2.231-1.979-3.979c0-1.281,0.355-2.339,1.071-3.171
		c0.714-0.829,1.699-1.246,2.952-1.246c0.875,0,1.618,0.271,2.23,0.81c0.612,0.54,0.918,1.246,0.918,2.12
		c0,0.787-0.28,1.473-0.84,2.057c-0.559,0.584-1.296,0.874-2.209,0.874c-0.472,0-0.884-0.072-1.237-0.218
		c0.233,1.107,0.758,1.661,1.574,1.661h3.105v2.143h-3.105c-0.466,0-0.846,0.203-1.137,0.608c-0.291,0.407-0.437,0.871-0.437,1.392
		v1.997c0,1.563,1.246,2.345,3.739,2.345c2.521,0,3.783-0.785,3.783-2.355V64.133h2.711L228.556,77.164L228.556,77.164z
		 M220.991,66.758c0-0.408-0.133-0.744-0.4-1.007c-0.267-0.262-0.607-0.394-1.021-0.394s-0.754,0.132-1.021,0.394
		c-0.266,0.263-0.399,0.599-0.399,1.007c0,0.409,0.133,0.742,0.399,1.005c0.267,0.262,0.607,0.395,1.021,0.395
		s0.755-0.133,1.021-0.395C220.858,67.5,220.991,67.167,220.991,66.758z"/>
	<path fill="#0090C5" d="M243.248,81.58h-2.711V68.894c0-0.813-0.278-1.477-0.831-1.985c-0.554-0.507-1.312-0.763-2.274-0.763
		c-0.962,0-1.75,0.317-2.361,0.951c-0.612,0.631-0.933,1.438-0.962,2.417h-2.624c0.088-1.751,0.663-3.142,1.727-4.177
		c1.063-1.035,2.471-1.554,4.22-1.554c1.632,0,3.01,0.417,4.132,1.246c1.123,0.832,1.684,2.093,1.684,3.782V81.58L243.248,81.58z"/>
	<path fill="#0090C5" d="M260.87,81.58h-2.711V69.676c0-1.045-0.452-1.917-1.355-2.615c-0.847-0.609-1.822-0.916-2.93-0.916
		c-1.313,0-2.361,0.438-3.148,1.313c-0.788,0.874-1.181,1.895-1.181,3.06c0,0.321,0.066,0.853,0.197,1.597
		c0.131,0.742,0.197,1.393,0.197,1.946v1.137c0-0.116,0.037-0.41,0.109-0.875c0.072-0.465,0.153-0.92,0.241-1.357
		c0.291-1.224,0.728-2.258,1.312-3.104c0.787-1.019,1.676-1.529,2.667-1.529c0.787,0,1.473,0.276,2.056,0.829
		c0.583,0.555,0.875,1.225,0.875,2.013c0,0.76-0.292,1.42-0.875,1.989c-0.584,0.567-1.269,0.853-2.056,0.853
		c-0.729,0-1.385-0.263-1.968-0.788c-0.875,2.654-1.312,5.438-1.312,8.353h-2.711v-2.799c0-1.37-0.241-2.863-0.722-4.482
		c-0.481-1.617-0.722-2.893-0.722-3.825c0-2.014,0.729-3.645,2.187-4.899c1.37-1.194,3.061-1.793,5.072-1.793
		c1.137,0,2.245,0.234,3.323,0.701c0.671-0.496,1.006-1.194,1.006-2.101h3.061c-0.35,1.604-1.02,2.786-2.011,3.542
		c0.933,1.078,1.399,2.347,1.399,3.805V81.58L260.87,81.58z M255.58,71.174c0-0.378-0.132-0.7-0.394-0.963s-0.584-0.393-0.962-0.393
		c-0.379,0-0.693,0.13-0.94,0.393c-0.248,0.263-0.372,0.585-0.372,0.963c0,0.379,0.124,0.692,0.372,0.94
		c0.247,0.247,0.561,0.371,0.94,0.371s0.7-0.124,0.962-0.371C255.448,71.866,255.58,71.553,255.58,71.174z"/>
	<path fill="#0090C5" d="M275.563,81.58h-2.711V68.894c0-0.813-0.278-1.477-0.831-1.985c-0.554-0.507-1.313-0.763-2.274-0.763
		s-1.749,0.317-2.361,0.951c-0.612,0.631-0.933,1.438-0.962,2.417H263.8c0.088-1.751,0.664-3.142,1.728-4.177
		c1.063-1.035,2.471-1.554,4.22-1.554c1.633,0,3.01,0.417,4.132,1.246c1.123,0.832,1.684,2.093,1.684,3.782V81.58z"/>
	<path fill="#0090C5" d="M293.01,81.58h-2.711v-7.564c0-0.876-0.497-1.546-1.486-2.013c-0.759-0.35-1.604-0.524-2.537-0.524
		c-0.904,0-1.676,0.219-2.317,0.657c-0.787,0.524-1.181,1.224-1.181,2.1v1.092c0.408-0.058,0.67-0.088,0.788-0.088
		c0.933,0,1.734,0.329,2.405,0.983c0.67,0.658,1.005,1.437,1.005,2.341c0,0.933-0.35,1.721-1.049,2.362
		c-0.7,0.64-1.502,0.961-2.405,0.961c-0.962,0-1.778-0.313-2.449-0.939c-0.671-0.628-1.006-1.421-1.006-2.383V74.54
		c0-1.717,0.642-3.06,1.924-4.022c1.138-0.846,2.551-1.269,4.242-1.269c1.807,0,3.163,0.497,4.066,1.488v-1.949
		c0-0.895-0.525-1.588-1.574-2.079c-0.817-0.374-1.735-0.563-2.755-0.563c-1.137,0-2.114,0.26-2.93,0.776
		c-0.904,0.575-1.443,1.353-1.618,2.327h-2.624c0.175-1.777,0.948-3.146,2.318-4.109c1.283-0.902,2.93-1.356,4.941-1.356
		c1.312,0,2.492,0.234,3.542,0.701c0.612-0.554,0.918-1.255,0.918-2.101h3.061c-0.35,1.488-0.977,2.64-1.88,3.455
		c0.875,0.934,1.312,2.011,1.312,3.235V81.58L293.01,81.58z M285.052,78.564c0-0.409-0.146-0.759-0.437-1.049
		c-0.292-0.291-0.641-0.438-1.049-0.438c-0.409,0-0.759,0.147-1.05,0.438c-0.292,0.29-0.437,0.64-0.437,1.049
		s0.146,0.759,0.437,1.049c0.291,0.291,0.641,0.438,1.05,0.438c0.408,0,0.758-0.146,1.049-0.438
		C284.906,79.323,285.052,78.974,285.052,78.564z"/>
	<path fill="#0090C5" d="M310.72,81.58h-2.711V70.123c0-1.864-0.51-3.206-1.531-4.021l-2.711,1.945l-2.667-1.945
		c-1.224,0.611-1.837,1.996-1.837,4.154c0,0.699,0.212,1.734,0.635,3.104c0.421,1.371,0.634,2.391,0.634,3.06
		c0,0.468-0.087,0.948-0.262,1.445c0.175-0.41,0.596-0.978,1.268-1.707c0.67-0.728,1.312-1.282,1.924-1.662
		c-0.787-0.059-1.407-0.363-1.858-0.919c-0.452-0.553-0.678-1.165-0.678-1.836c0-0.787,0.27-1.456,0.809-2.012
		c0.54-0.553,1.203-0.831,1.99-0.831c0.787,0,1.458,0.278,2.012,0.831c0.553,0.554,0.831,1.225,0.831,2.012
		c0,1.255-0.656,2.58-1.968,3.979c-1.749,1.864-2.769,3.076-3.061,3.63c-0.438,0.846-0.656,1.587-0.656,2.229h-2.711
		c0.059-1.106,0.087-2.229,0.087-3.365c0-1.166-0.183-2.245-0.549-3.235c-0.771-2.101-1.156-3.674-1.156-4.724
		c0-1.603,0.405-2.987,1.214-4.153c0.81-1.166,1.965-1.952,3.466-2.362l2.493,1.881l2.317-1.881c3.12,0.466,4.679,2.566,4.679,6.298
		L310.72,81.58L310.72,81.58z M305.035,71.698c0-0.378-0.125-0.692-0.372-0.94c-0.248-0.246-0.561-0.37-0.94-0.37
		c-0.378,0-0.693,0.124-0.94,0.37c-0.248,0.248-0.372,0.563-0.372,0.94c0,0.379,0.124,0.692,0.372,0.94
		c0.247,0.248,0.562,0.371,0.94,0.371c0.379,0,0.693-0.123,0.94-0.371C304.911,72.391,305.035,72.077,305.035,71.698z"/>
	<path fill="#0090C5" d="M324.8,78.652c0,0.933-0.328,1.712-0.984,2.338c-0.656,0.627-1.45,0.939-2.383,0.939
		s-1.728-0.321-2.383-0.962c-0.656-0.641-0.984-1.427-0.984-2.361c0-0.933,0.328-1.72,0.984-2.362
		c0.656-0.64,1.45-0.962,2.383-0.962c0.35,0,0.568,0.016,0.656,0.045v-3.761c0-0.466-0.969-0.927-2.908-1.377
		c-1.939-0.452-3.695-0.809-5.27-1.07c0.059-1.604,0.481-2.894,1.268-3.871c0.788-0.977,1.924-1.465,3.411-1.465
		c0.612,0,1.45,0.138,2.514,0.416c1.065,0.277,1.83,0.413,2.296,0.413c0.496,0,0.773-0.321,0.832-0.962l2.142,0.57
		c-0.525,1.776-1.486,2.666-2.886,2.666c-0.524,0-1.275-0.124-2.252-0.371c-0.976-0.246-1.712-0.371-2.208-0.371
		c-1.283,0-2.011,0.481-2.187,1.443c2.245,0.468,4.132,0.962,5.663,1.486c1.531,0.526,2.296,1.43,2.296,2.712V78.652L324.8,78.652z
		 M322.919,78.607c0-0.407-0.149-0.759-0.444-1.05c-0.296-0.29-0.65-0.437-1.064-0.437c-0.413,0-0.77,0.146-1.065,0.437
		c-0.295,0.291-0.443,0.643-0.443,1.05c0,0.408,0.148,0.758,0.443,1.049c0.296,0.293,0.651,0.438,1.065,0.438
		s0.768-0.145,1.064-0.438C322.771,79.365,322.919,79.016,322.919,78.607z"/>
	<path fill="#0090C5" d="M326.899,52.414c-0.117,1.224-0.51,2.106-1.181,2.646c-0.67,0.54-1.574,0.969-2.711,1.29
		c0.467,0.233,0.839,0.576,1.116,1.027c0.276,0.453,0.415,0.955,0.415,1.509c0,0.787-0.277,1.458-0.831,2.012
		c-0.554,0.553-1.224,0.832-2.011,0.832c-0.788,0-1.458-0.278-2.012-0.832c-0.553-0.553-0.831-1.238-0.831-2.055
		c0-2.099,1.078-3.455,3.236-4.066c1.224-0.321,2.004-0.729,2.339-1.225c0.335-0.496,0.503-0.874,0.503-1.137H326.899z
		 M322.962,58.886c0-0.321-0.124-0.605-0.372-0.853c-0.247-0.247-0.531-0.372-0.853-0.372c-0.321,0-0.605,0.125-0.853,0.372
		c-0.248,0.248-0.372,0.532-0.372,0.853s0.124,0.605,0.372,0.853c0.248,0.248,0.532,0.372,0.853,0.372
		c0.321,0,0.606-0.124,0.853-0.372C322.839,59.492,322.962,59.208,322.962,58.886z"/>
	<path fill="#0090C5" d="M336.257,78.607c0,0.934-0.328,1.72-0.984,2.362c-0.656,0.641-1.436,0.962-2.339,0.962
		c-0.991,0-1.822-0.335-2.493-1.006c-0.671-0.672-1.006-1.516-1.006-2.536V64.133h2.711v11.239c0.146-0.061,0.408-0.088,0.788-0.088
		c0.903,0,1.683,0.321,2.339,0.962C335.929,76.887,336.257,77.674,336.257,78.607z M334.42,78.607c0-0.407-0.146-0.759-0.437-1.05
		c-0.292-0.29-0.641-0.437-1.049-0.437c-0.409,0-0.759,0.146-1.05,0.437c-0.292,0.291-0.438,0.643-0.438,1.05
		c0,0.408,0.146,0.758,0.438,1.049c0.291,0.293,0.641,0.438,1.05,0.438c0.408,0,0.758-0.145,1.049-0.438
		C334.273,79.365,334.42,79.016,334.42,78.607z"/>
	<path fill="#0090C5" d="M355.279,81.58h-3.061l-4.111-13.557l-4.241,13.557h-2.93V70.343c-0.292,0.06-0.541,0.088-0.744,0.088
		c-0.933,0-1.72-0.327-2.361-0.984c-0.643-0.656-0.962-1.45-0.962-2.383c0-0.903,0.321-1.676,0.962-2.318
		c0.64-0.641,1.427-0.962,2.361-0.962c0.992,0,1.815,0.334,2.471,1.007c0.656,0.671,0.984,1.515,0.984,2.535v6.516
		c0,0.759-0.175,2.304-0.524,4.636c0.641-2.653,1.005-4.081,1.093-4.286l3.061-9.313h1.662l3.061,9.313
		c0.058,0.175,0.421,1.604,1.093,4.286c-0.35-2.332-0.525-3.877-0.525-4.636v-9.706h2.711V81.58z M341.679,67.107
		c0-0.408-0.147-0.758-0.438-1.05c-0.292-0.291-0.642-0.438-1.05-0.438c-0.408,0-0.758,0.147-1.049,0.438
		c-0.291,0.292-0.437,0.642-0.437,1.05c0,0.409,0.146,0.759,0.437,1.05c0.292,0.291,0.642,0.438,1.049,0.438
		c0.408,0,0.758-0.146,1.05-0.438C341.532,67.866,341.679,67.517,341.679,67.107z"/>
	<path fill="#0090C5" d="M355.365,61.904c-3.615-1.166-6.924-1.75-9.927-1.75c-1.37,0-2.755,0.087-4.154,0.262
		c0.35-3.905,2.478-5.86,6.384-5.86c0.437,0,0.846,0.029,1.225,0.087v-1.399h1.967v1.836c0.642,0.263,1.239,0.656,1.793,1.181
		v-3.017h2.624v8.047L355.365,61.904z M352.566,59.323c-0.175-0.729-0.7-1.414-1.574-2.055c-0.875-0.642-1.866-0.962-2.974-0.962
		c-1.049,0-1.953,0.212-2.711,0.634c-0.758,0.423-1.239,0.984-1.442,1.684c0.497-0.116,1.268-0.175,2.317-0.175
		C348.339,58.45,350.467,58.74,352.566,59.323z"/>
	<path fill="#0090C5" d="M355.277,51.977h-2.624v-4.985h2.624V51.977z"/>
	<path fill="#0090C5" d="M372.506,77.646c0,1.517-0.685,2.64-2.055,3.367c-1.108,0.612-2.537,0.917-4.285,0.917
		c-1.75,0-3.164-0.307-4.242-0.921c-1.312-0.73-1.967-1.856-1.967-3.378v-4.433c0-1.055,0.291-1.938,0.875-2.654
		c0.583-0.718,1.414-1.075,2.493-1.075c0.933,0,1.72,0.315,2.361,0.945c0.641,0.632,0.962,1.416,0.962,2.354
		c0,0.911-0.321,1.688-0.962,2.335c-0.642,0.645-1.429,0.968-2.361,0.968c-0.263,0-0.481-0.029-0.656-0.089v1.34
		c0,1.497,1.18,2.247,3.542,2.247c2.39,0,3.586-0.767,3.586-2.304v-8.341c0-0.956-0.452-1.68-1.355-2.172
		c-0.759-0.405-1.691-0.609-2.799-0.609c-2.771,0-4.271,0.701-4.504,2.101h-2.624c0.379-2.944,2.682-4.432,6.91-4.461
		c1.952,0,3.556,0.366,4.81,1.094c1.516,0.933,2.274,2.332,2.274,4.197V77.646z M364.81,72.769c0-0.4-0.149-0.746-0.444-1.032
		c-0.296-0.287-0.651-0.432-1.064-0.432c-0.414,0-0.77,0.145-1.065,0.432c-0.296,0.286-0.444,0.632-0.444,1.032
		c0,0.403,0.148,0.749,0.444,1.035c0.295,0.286,0.65,0.432,1.065,0.432c0.414,0,0.768-0.146,1.064-0.432
		C364.661,73.518,364.81,73.172,364.81,72.769z"/>
	<path fill="#0090C5" d="M390.129,81.58h-2.711V69.676c0-1.045-0.453-1.917-1.356-2.615c-0.846-0.609-1.822-0.916-2.93-0.916
		c-1.312,0-2.361,0.44-3.148,1.319c-0.787,0.878-1.181,1.897-1.181,3.054c0,0.322,0.066,0.853,0.197,1.597
		c0.131,0.744,0.197,1.393,0.197,1.946v1.224c0-0.027,0.05-0.342,0.153-0.939c0.102-0.597,0.167-1.058,0.197-1.378
		c0.29-1.224,0.743-2.243,1.355-3.059c0.758-1.05,1.632-1.574,2.624-1.574c0.787,0,1.472,0.276,2.055,0.83s0.875,1.224,0.875,2.012
		c0,0.76-0.292,1.42-0.875,1.99c-0.584,0.568-1.268,0.852-2.055,0.852c-0.729,0-1.385-0.263-1.968-0.788
		c-0.875,2.655-1.312,5.438-1.312,8.353h-2.711v-2.799c0-1.37-0.24-2.863-0.721-4.482c-0.481-1.617-0.722-2.893-0.722-3.825
		c0-2.014,0.729-3.645,2.187-4.898c1.37-1.195,3.061-1.794,5.073-1.794c1.836,0,3.381,0.481,4.635,1.443
		c1.429,1.108,2.143,2.61,2.143,4.505V81.58z M384.838,71.174c0-0.378-0.131-0.7-0.394-0.963c-0.263-0.263-0.584-0.393-0.962-0.393
		s-0.693,0.13-0.94,0.393c-0.248,0.263-0.372,0.585-0.372,0.963c0,0.379,0.124,0.692,0.372,0.94c0.247,0.247,0.562,0.371,0.94,0.371
		c0.379,0,0.7-0.124,0.962-0.371C384.707,71.866,384.838,71.553,384.838,71.174z"/>
	<path fill="#0090C5" d="M390.129,91.857h-2.624v-3.322h-0.175c-0.729,0-1.349-0.257-1.859-0.768
		c-0.509-0.51-0.765-1.114-0.765-1.813c0-0.728,0.256-1.356,0.765-1.881c0.51-0.524,1.146-0.787,1.902-0.787
		c0.729,0,1.37,0.234,1.924,0.699c0.554,0.466,0.831,1.108,0.831,1.926V91.857z M388.598,85.824c0-0.322-0.116-0.598-0.35-0.832
		c-0.233-0.233-0.509-0.35-0.831-0.35c-0.321,0-0.605,0.116-0.853,0.35c-0.248,0.234-0.372,0.51-0.372,0.832
		c0,0.32,0.124,0.604,0.372,0.852c0.248,0.246,0.532,0.37,0.853,0.37c0.321,0,0.597-0.124,0.831-0.37
		C388.482,86.428,388.598,86.144,388.598,85.824z"/>
	<path fill="#0090C5" d="M416.147,78.607c0,0.904-0.293,1.684-0.88,2.34c-0.586,0.655-1.365,0.982-2.333,0.982
		c-0.852,0-1.599-0.269-2.246-0.807c-0.645-0.541-1.041-1.219-1.188-2.034c-0.787,0.524-1.662,1.356-2.624,2.493h-2.755V69.993
		c0-1.137-0.357-2.061-1.072-2.775c-0.715-0.716-1.596-1.072-2.646-1.072c-1.778,0-3.046,0.729-3.804,2.188
		c1.137,0.088,2.099,0.742,2.886,1.967c-1.487,0.817-2.23,1.866-2.23,3.149v2.054c0.204-0.116,0.481-0.175,0.832-0.175
		c0.903,0,1.669,0.315,2.295,0.941c0.626,0.627,0.94,1.405,0.94,2.338s-0.32,1.72-0.962,2.361c-0.641,0.641-1.428,0.963-2.361,0.963
		c-0.962,0-1.778-0.335-2.449-1.005c-0.671-0.673-1.006-1.516-1.006-2.537v-5.116c0-1.225,0.597-2.188,1.793-2.887
		c-0.729-0.494-1.618-0.67-2.667-0.524c0.059-1.806,0.729-3.294,2.012-4.46c1.195-1.077,2.725-1.618,4.591-1.618
		c1.953,0,3.535,0.546,4.745,1.641c1.209,1.092,1.814,2.617,1.814,4.569v8.833c0.438-0.525,1.225-1.239,2.362-2.144
		c1.574-1.226,2.506-1.97,2.798-2.231c0.408-0.525,0.612-1.208,0.612-2.055v-8.264h2.711v9.182c0,1.137-0.306,1.939-0.918,2.405
		C415.563,76.364,416.147,77.324,416.147,78.607z M399.574,78.672c0-0.412-0.147-0.768-0.438-1.063
		c-0.291-0.295-0.641-0.444-1.049-0.444c-0.41,0-0.759,0.149-1.05,0.444c-0.292,0.296-0.438,0.651-0.438,1.063
		c0,0.414,0.146,0.771,0.438,1.064c0.291,0.297,0.64,0.444,1.05,0.444c0.408,0,0.757-0.147,1.049-0.444
		C399.427,79.443,399.574,79.087,399.574,78.672z M414.311,78.585c0-0.413-0.147-0.768-0.438-1.063
		c-0.291-0.295-0.641-0.444-1.049-0.444s-0.758,0.149-1.049,0.444c-0.292,0.296-0.438,0.65-0.438,1.063
		c0,0.414,0.146,0.771,0.438,1.064c0.292,0.297,0.641,0.444,1.049,0.444s0.758-0.147,1.049-0.444
		C414.164,79.355,414.311,79,414.311,78.585z"/>
	<path fill="#0090C5" d="M433.9,81.58h-2.711V70.025c0-1.163-0.388-2.101-1.159-2.812c-0.772-0.712-1.743-1.068-2.908-1.068
		c-1.778,0-3.077,0.729-3.892,2.188c1.428,0.29,2.405,0.946,2.93,1.967c-0.788,0.437-1.312,0.803-1.575,1.094
		c-0.378,0.466-0.568,1.094-0.568,1.881c0,0.641,0.073,1.567,0.219,2.775c0.146,1.21,0.219,2.064,0.219,2.559
		c0,0.934-0.313,1.72-0.94,2.362c-0.628,0.641-1.392,0.962-2.296,0.962c-0.933,0-1.72-0.323-2.361-0.968
		c-0.641-0.646-0.962-1.439-0.962-2.377c0-0.911,0.321-1.687,0.962-2.333c0.642-0.646,1.399-0.97,2.274-0.97
		c0.35,0,0.568,0.045,0.656,0.135l-0.262-2.688c0-1.013,0.496-1.794,1.487-2.343c-0.788-0.496-1.677-0.671-2.667-0.524
		c0.028-1.807,0.7-3.294,2.011-4.461c1.253-1.077,2.827-1.619,4.723-1.619c2.041,0,3.688,0.569,4.941,1.707
		c1.254,1.137,1.88,2.653,1.88,4.548V81.58L433.9,81.58z M422.705,78.607c0-0.407-0.146-0.759-0.437-1.05
		c-0.292-0.29-0.641-0.437-1.049-0.437s-0.758,0.146-1.049,0.437c-0.292,0.291-0.438,0.643-0.438,1.05
		c0,0.408,0.146,0.758,0.438,1.049c0.291,0.293,0.641,0.438,1.049,0.438s0.758-0.145,1.049-0.438
		C422.56,79.365,422.705,79.016,422.705,78.607z"/>
	<path fill="#0090C5" d="M448.593,81.58h-2.711V68.894c0-0.813-0.278-1.477-0.832-1.985c-0.553-0.507-1.312-0.763-2.273-0.763
		s-1.749,0.317-2.361,0.951c-0.613,0.631-0.934,1.438-0.963,2.417h-2.624c0.087-1.751,0.663-3.142,1.728-4.177
		c1.063-1.035,2.471-1.554,4.22-1.554c1.633,0,3.009,0.417,4.132,1.246c1.123,0.832,1.684,2.093,1.684,3.782V81.58z"/>
	<path fill="#0090C5" d="M469.67,81.58h-3.062l-4.11-13.557l-4.242,13.557h-2.93V70.343c-0.292,0.06-0.54,0.088-0.744,0.088
		c-0.932,0-1.72-0.327-2.361-0.984c-0.643-0.656-0.963-1.45-0.963-2.383c0-0.903,0.321-1.676,0.963-2.318
		c0.64-0.641,1.428-0.962,2.361-0.962c0.992,0,1.815,0.334,2.471,1.007c0.656,0.671,0.984,1.515,0.984,2.535v6.516
		c0,0.759-0.175,2.304-0.524,4.636c0.64-2.653,1.005-4.081,1.093-4.286l3.061-9.313h1.662l3.061,9.313
		c0.059,0.175,0.422,1.604,1.093,4.286c-0.35-2.332-0.525-3.877-0.525-4.636v-9.706h2.712V81.58z M456.07,67.107
		c0-0.408-0.146-0.758-0.438-1.05c-0.291-0.291-0.641-0.438-1.049-0.438c-0.408,0-0.757,0.147-1.049,0.438
		c-0.292,0.292-0.437,0.642-0.437,1.05c0,0.409,0.146,0.759,0.437,1.05c0.292,0.291,0.642,0.438,1.049,0.438
		c0.409,0,0.759-0.146,1.049-0.438C455.923,67.866,456.07,67.517,456.07,67.107z"/>
	<path fill="#0090C5" d="M487.815,77.471c0,1.43-0.444,2.529-1.334,3.302c-0.889,0.773-2.062,1.157-3.52,1.157
		c-1.457,0-2.63-0.384-3.52-1.155c-0.888-0.771-1.333-1.866-1.333-3.292v-2.834c0-0.845,0.386-1.971,1.159-3.38
		c0.772-1.409,1.159-2.521,1.159-3.337c0-0.669-0.235-1.221-0.699-1.656c-0.467-0.437-1.007-0.656-1.619-0.656
		c-0.933,0-1.56,0.176-1.88,0.525c0.875,0.03,1.582,0.307,2.121,0.831s0.81,1.195,0.81,2.011c0,0.877-0.307,1.613-0.919,2.209
		c-0.612,0.598-1.34,0.896-2.186,0.896c-0.992,0-1.786-0.355-2.383-1.071c-0.598-0.714-0.896-1.58-0.896-2.602
		c0-1.34,0.533-2.449,1.596-3.322c1.064-0.874,2.296-1.313,3.695-1.313c1.458,0,2.646,0.35,3.565,1.047
		c0.918,0.699,1.376,1.717,1.376,3.054c0,0.872-0.365,2.093-1.093,3.665c-0.729,1.57-1.093,2.673-1.093,3.313v3.185
		c0,0.494,0.226,0.872,0.678,1.135c0.451,0.26,0.939,0.391,1.464,0.391c0.554,0,1.05-0.138,1.488-0.412
		c0.437-0.277,0.656-0.647,0.656-1.112v-7.195c0-1.076-0.423-1.746-1.268-2.007c0.116-0.524,0.131-1.031,0.043-1.526
		c1.487-0.554,2.23-1.948,2.23-4.187h2.711c-0.204,2.244-0.976,3.892-2.317,4.941c0.875,0.7,1.312,1.617,1.312,2.754V77.471
		L487.815,77.471z M477.408,69.074c0-0.378-0.131-0.699-0.394-0.962s-0.583-0.393-0.962-0.393c-0.379,0-0.699,0.13-0.962,0.393
		c-0.262,0.263-0.394,0.584-0.394,0.962c0,0.38,0.131,0.701,0.394,0.964c0.263,0.263,0.583,0.393,0.962,0.393
		c0.378,0,0.7-0.13,0.962-0.393S477.408,69.454,477.408,69.074z"/>
	<path fill="#0090C5" d="M487.903,61.904c-3.614-1.166-6.923-1.75-9.926-1.75c-1.37,0-2.754,0.087-4.153,0.262
		c0.35-3.905,2.478-5.86,6.384-5.86c2.07,0,3.731,0.569,4.985,1.706v-3.017h2.623v8.047
		C487.845,61.495,487.875,61.701,487.903,61.904z M485.105,59.323c-0.175-0.729-0.7-1.414-1.575-2.055
		c-0.874-0.642-1.866-0.962-2.973-0.962c-1.049,0-1.953,0.212-2.712,0.634c-0.757,0.423-1.238,0.984-1.443,1.684
		c0.498-0.116,1.268-0.175,2.318-0.175C480.877,58.45,483.005,58.74,485.105,59.323z"/>
	<path fill="#0090C5" d="M504.389,78.39c0,1.021-0.336,1.858-1.006,2.514c-0.671,0.656-1.502,0.983-2.492,0.983
		c-0.933,0-1.72-0.323-2.361-0.968c-0.642-0.646-0.962-1.423-0.962-2.334c0-0.938,0.32-1.73,0.962-2.375
		c0.642-0.646,1.429-0.971,2.361-0.971c0.32,0,0.583,0.017,0.787,0.045v-6.366c0-1.849-1.341-2.773-4.023-2.773
		c-1.108,0-2.049,0.339-2.821,1.016c-0.772,0.678-1.159,1.578-1.159,2.703h-2.624c0.087-1.926,0.721-3.417,1.902-4.484
		c1.181-1.063,2.748-1.596,4.701-1.596c1.923,0,3.469,0.38,4.635,1.139c1.399,0.902,2.099,2.287,2.099,4.152V78.39L504.389,78.39z
		 M502.377,78.564c0-0.409-0.146-0.759-0.437-1.049c-0.292-0.291-0.642-0.438-1.05-0.438c-0.409,0-0.759,0.147-1.05,0.438
		c-0.291,0.29-0.438,0.64-0.438,1.049s0.146,0.759,0.438,1.049c0.291,0.291,0.641,0.438,1.05,0.438c0.408,0,0.758-0.146,1.05-0.438
		C502.231,79.323,502.377,78.974,502.377,78.564z"/>
	<path fill="#0090C5" d="M504.476,61.904c-3.614-1.166-6.923-1.75-9.926-1.75c-1.37,0-2.754,0.087-4.153,0.262
		c0.35-3.905,2.478-5.86,6.384-5.86c2.246,0,4.023,0.678,5.335,2.033C503.427,57.946,504.214,59.716,504.476,61.904z
		 M501.678,59.323c-0.175-0.729-0.699-1.414-1.575-2.055c-0.874-0.642-1.865-0.962-2.973-0.962c-1.049,0-1.953,0.212-2.711,0.634
		c-0.758,0.423-1.239,0.984-1.443,1.684c0.497-0.116,1.268-0.175,2.318-0.175C497.45,58.45,499.578,58.74,501.678,59.323z"/>
	<path fill="#0090C5" d="M522.099,81.58h-2.711V70.123c0-1.864-0.511-3.206-1.531-4.021l-2.712,1.945l-2.667-1.945
		c-1.225,0.611-1.837,1.996-1.837,4.154c0,0.699,0.211,1.734,0.635,3.104c0.422,1.371,0.634,2.391,0.634,3.06
		c0,0.468-0.088,0.948-0.263,1.445c0.175-0.41,0.597-0.978,1.269-1.707c0.67-0.728,1.312-1.282,1.924-1.662
		c-0.787-0.059-1.406-0.363-1.858-0.919c-0.452-0.553-0.678-1.165-0.678-1.836c0-0.787,0.27-1.456,0.809-2.012
		c0.54-0.553,1.203-0.831,1.989-0.831c0.787,0,1.457,0.278,2.013,0.831c0.553,0.554,0.83,1.225,0.83,2.012
		c0,1.255-0.655,2.58-1.968,3.979c-1.749,1.864-2.77,3.076-3.061,3.63c-0.438,0.846-0.656,1.587-0.656,2.229h-2.711
		c0.058-1.106,0.087-2.229,0.087-3.365c0-1.166-0.183-2.245-0.55-3.235c-0.77-2.101-1.155-3.674-1.155-4.724
		c0-1.603,0.405-2.987,1.214-4.153s1.965-1.952,3.467-2.362l2.491,1.881l2.318-1.881c3.118,0.466,4.679,2.566,4.679,6.298V81.58
		L522.099,81.58z M516.415,71.698c0-0.378-0.124-0.692-0.371-0.94c-0.248-0.246-0.562-0.37-0.941-0.37
		c-0.379,0-0.693,0.124-0.94,0.37c-0.247,0.248-0.371,0.563-0.371,0.94c0,0.379,0.124,0.692,0.371,0.94s0.562,0.371,0.94,0.371
		c0.38,0,0.693-0.123,0.941-0.371C516.29,72.391,516.415,72.077,516.415,71.698z"/>
	<path fill="#0090C5" d="M541.252,81.58h-2.712V67.458c0-0.903-0.22-1.356-0.657-1.356c-0.377,0-0.643,0.218-0.786,0.656
		l-5.204,14.822h-3.06V70.343c-0.293,0.06-0.542,0.088-0.744,0.088c-0.934,0-1.721-0.327-2.362-0.984
		c-0.643-0.656-0.961-1.45-0.961-2.383c0-0.903,0.318-1.676,0.961-2.318c0.641-0.641,1.428-0.962,2.362-0.962
		c0.989,0,1.814,0.334,2.47,1.007c0.658,0.671,0.984,1.515,0.984,2.535v6.516c0,0.992-0.175,2.538-0.524,4.636
		c0.319-1.282,0.728-2.71,1.224-4.286l2.449-7.783c0.553-1.778,1.647-2.652,3.279-2.624c2.187,0.029,3.28,1.269,3.28,3.716
		L541.252,81.58L541.252,81.58z M529.575,67.107c0-0.408-0.147-0.758-0.437-1.05c-0.291-0.291-0.641-0.438-1.051-0.438
		c-0.409,0-0.759,0.147-1.049,0.438c-0.29,0.292-0.438,0.642-0.438,1.05c0,0.409,0.147,0.759,0.438,1.05s0.64,0.438,1.049,0.438
		c0.41,0,0.76-0.146,1.051-0.438C529.428,67.866,529.575,67.517,529.575,67.107z"/>
	<path fill="#0090C5" d="M541.339,61.904c-3.615-1.166-6.924-1.75-9.927-1.75c-1.37,0-2.755,0.087-4.155,0.262
		c0.351-3.905,2.48-5.86,6.387-5.86c2.069,0,3.731,0.569,4.983,1.706v-3.017h2.625v8.047
		C541.28,61.495,541.309,61.701,541.339,61.904z M538.539,59.323c-0.175-0.729-0.699-1.414-1.574-2.055
		c-0.874-0.642-1.864-0.962-2.972-0.962c-1.051,0-1.952,0.212-2.712,0.634c-0.758,0.423-1.239,0.984-1.443,1.684
		c0.496-0.116,1.269-0.175,2.318-0.175C534.313,58.45,536.44,58.74,538.539,59.323z"/>
	<path fill="#0090C5" d="M541.252,51.977h-2.625v-4.985h2.625V51.977z"/>
	<path fill="#0090C5" d="M558.961,81.58h-2.711V69.896c0-1.105-0.413-2.006-1.238-2.704c-0.828-0.697-1.806-1.047-2.938-1.047
		c-1.219,0-2.275,0.414-3.177,1.242c-0.898,0.827-1.348,1.821-1.348,2.982c0,0.726,0.239,1.757,0.722,3.094
		c0.479,1.336,0.721,2.336,0.721,3.005c0,0.203-0.029,0.48-0.088,0.828c0.833-1.369,1.766-2.521,2.8-3.455
		c-0.817-0.057-1.458-0.378-1.925-0.962c-0.438-0.496-0.657-1.106-0.657-1.836c0-0.759,0.285-1.422,0.854-1.99
		c0.567-0.568,1.244-0.853,2.033-0.853c0.787,0,1.455,0.284,2.011,0.853c0.554,0.568,0.83,1.233,0.83,1.99
		c0,1.312-0.636,2.77-1.907,4.372c-1.765,2.188-2.763,3.498-2.995,3.937c-0.434,0.759-0.651,1.5-0.651,2.229h-2.753
		c0.027-1.078,0.043-2.068,0.043-2.973c0-1.574-0.18-2.784-0.54-3.628c-0.269-0.759-0.537-1.538-0.807-2.341
		c-0.269-0.801-0.403-1.508-0.403-2.121c0-1.981,0.691-3.599,2.076-4.853c1.385-1.253,3.068-1.882,5.052-1.882
		c2.012,0,3.658,0.526,4.941,1.576c1.37,1.137,2.056,2.697,2.056,4.679V81.58L558.961,81.58z M553.32,71.043
		c0-0.379-0.126-0.691-0.371-0.939c-0.248-0.248-0.562-0.372-0.939-0.372c-0.38,0-0.693,0.124-0.941,0.372
		c-0.247,0.248-0.371,0.561-0.371,0.939c0,0.378,0.124,0.693,0.371,0.939c0.248,0.247,0.562,0.371,0.941,0.371
		c0.378,0,0.691-0.124,0.939-0.371C553.194,71.736,553.32,71.421,553.32,71.043z"/>
	<path fill="#0090C5" d="M559.049,61.904c-3.615-1.166-6.923-1.75-9.928-1.75c-1.369,0-2.754,0.087-4.153,0.262
		c0.35-3.905,2.479-5.86,6.386-5.86c2.069,0,3.731,0.569,4.983,1.706v-3.017h2.624v8.047
		C558.99,61.495,559.02,61.701,559.049,61.904z M556.249,59.323c-0.175-0.729-0.701-1.414-1.575-2.055
		c-0.874-0.642-1.865-0.962-2.972-0.962c-1.05,0-1.952,0.212-2.712,0.634c-0.759,0.423-1.239,0.984-1.443,1.684
		c0.496-0.116,1.269-0.175,2.317-0.175C552.023,58.45,554.15,58.74,556.249,59.323z"/>
</g>
<rect x="579" y="52" fill="#6BC200" width="1" height="34"/>
<text transform="matrix(1 0 0 1 522.0986 468.8779)" fill="#339900" font-family="'THSarabunNew'" font-size="40">ประเทศไทย</text>
</svg>
