<?xml version="1.0" encoding="utf-8"?>
<!-- Generator: Adobe Illustrator 15.1.0, SVG Export Plug-In . SVG Version: 6.00 Build 0)  -->
<!DOCTYPE svg PUBLIC "-//W3C//DTD SVG 1.1//EN" "http://www.w3.org/Graphics/SVG/1.1/DTD/svg11.dtd">
<svg version="1.1" id="Ebene_2" xmlns="http://www.w3.org/2000/svg" xmlns:xlink="http://www.w3.org/1999/xlink" x="0px" y="0px"
	 width="995px" height="124px" viewBox="0 0 995 124" enable-background="new 0 0 995 124" xml:space="preserve">
<g>
	<path fill="#339900" d="M287.741,102.229c0,1.566-1.16,2.354-3.48,2.354c-2.336,0-3.504-0.784-3.504-2.354v-4.006
		c-0.16,0.028-0.296,0.047-0.408,0.047c-0.512,0-0.944-0.183-1.296-0.539c-0.352-0.359-0.528-0.797-0.528-1.312
		c0-0.495,0.176-0.92,0.528-1.271c0.352-0.352,0.784-0.526,1.296-0.526c0.544,0,0.996,0.185,1.356,0.551
		c0.36,0.366,0.54,0.83,0.54,1.39v5.672c0,0.318,0.216,0.574,0.648,0.768c0.432,0.189,0.888,0.288,1.368,0.288
		c0.464,0,0.912-0.099,1.344-0.288c0.432-0.189,0.648-0.445,0.648-0.77V90.976h1.488V102.229L287.741,102.229z M281.165,96.446
		c0-0.225-0.08-0.416-0.24-0.575c-0.16-0.16-0.352-0.24-0.576-0.24c-0.224,0-0.416,0.08-0.576,0.24
		c-0.16,0.159-0.24,0.353-0.24,0.575c0,0.226,0.08,0.416,0.24,0.574c0.16,0.16,0.352,0.238,0.576,0.238
		c0.224,0,0.416-0.078,0.576-0.238C281.085,96.862,281.165,96.672,281.165,96.446z"/>
	<path fill="#339900" d="M295.469,102.782c0,0.513-0.18,0.939-0.539,1.283c-0.36,0.345-0.797,0.518-1.309,0.518
		s-0.947-0.178-1.308-0.527c-0.36-0.353-0.54-0.783-0.54-1.295c0-0.514,0.18-0.945,0.54-1.298s0.795-0.526,1.308-0.526
		c0.192,0,0.312,0.008,0.36,0.022v-2.063c0-0.256-0.532-0.508-1.597-0.756c-1.063-0.248-2.027-0.441-2.892-0.588
		c0.032-0.88,0.264-1.589,0.696-2.123c0.432-0.537,1.056-0.806,1.871-0.806c0.337,0,0.796,0.076,1.381,0.229
		c0.584,0.149,1.004,0.229,1.26,0.229c0.271,0,0.424-0.178,0.456-0.527l1.176,0.313c-0.288,0.979-0.815,1.464-1.584,1.464
		c-0.288,0-0.7-0.064-1.235-0.203c-0.537-0.136-0.94-0.203-1.213-0.203c-0.703,0-1.104,0.266-1.199,0.791
		c1.23,0.258,2.268,0.527,3.107,0.815c0.84,0.286,1.26,0.782,1.26,1.485V102.782L295.469,102.782z M294.438,102.761
		c0-0.226-0.082-0.416-0.244-0.576s-0.357-0.24-0.584-0.24s-0.422,0.08-0.584,0.24c-0.163,0.16-0.244,0.354-0.244,0.576
		c0,0.223,0.081,0.416,0.244,0.574c0.162,0.16,0.357,0.238,0.584,0.238s0.422-0.078,0.584-0.238
		C294.356,103.177,294.438,102.981,294.438,102.761z"/>
	<path fill="#339900" d="M304.109,94.862c-0.08,2.543-1.271,3.812-3.576,3.812c-0.96,0-1.695-0.193-2.208-0.588
		c-0.512-0.395-0.769-0.895-0.769-1.5c0-0.464,0.16-0.854,0.48-1.176c0.32-0.32,0.712-0.479,1.176-0.479
		c0.496,0,0.9,0.164,1.213,0.49c0.312,0.328,0.467,0.719,0.467,1.164c0,0.434-0.119,0.752-0.359,0.961
		c1.488-0.062,2.232-0.961,2.232-2.688h1.344V94.862z M304.109,100.312c-0.08,2.543-1.271,3.814-3.576,3.814
		c-0.96,0-1.695-0.195-2.208-0.588c-0.512-0.395-0.769-0.895-0.769-1.5c0-0.464,0.16-0.855,0.48-1.178
		c0.32-0.318,0.712-0.479,1.176-0.479c0.496,0,0.9,0.164,1.213,0.491c0.312,0.328,0.467,0.716,0.467,1.164
		c0,0.433-0.119,0.752-0.359,0.96c1.488-0.063,2.232-0.96,2.232-2.688h1.344V100.312z M299.934,96.593
		c0-0.21-0.072-0.386-0.217-0.529c-0.144-0.143-0.319-0.215-0.527-0.215s-0.381,0.071-0.516,0.215
		c-0.137,0.146-0.205,0.319-0.205,0.529c0,0.206,0.068,0.379,0.205,0.516c0.135,0.139,0.308,0.203,0.516,0.203
		s0.384-0.064,0.527-0.203C299.861,96.972,299.934,96.799,299.934,96.593z M299.934,102.039c0-0.208-0.072-0.386-0.217-0.526
		c-0.144-0.146-0.319-0.218-0.527-0.218s-0.381,0.071-0.516,0.218c-0.137,0.145-0.205,0.318-0.205,0.526s0.068,0.381,0.205,0.517
		c0.135,0.137,0.308,0.205,0.516,0.205s0.384-0.068,0.527-0.205C299.861,102.42,299.934,102.247,299.934,102.039z"/>
	<path fill="#339900" d="M309.917,102.761c0,0.512-0.182,0.942-0.54,1.295c-0.358,0.354-0.788,0.527-1.283,0.527
		c-0.545,0-1-0.186-1.369-0.553c-0.367-0.367-0.551-0.832-0.551-1.393v-7.824h1.487v6.168c0.08-0.03,0.224-0.049,0.433-0.049
		c0.495,0,0.924,0.178,1.283,0.527C309.737,101.812,309.917,102.247,309.917,102.761z M308.909,102.761
		c0-0.226-0.081-0.416-0.24-0.576c-0.158-0.16-0.352-0.24-0.575-0.24c-0.225,0-0.416,0.08-0.576,0.24s-0.24,0.354-0.24,0.576
		c0,0.223,0.08,0.416,0.24,0.574c0.16,0.16,0.352,0.238,0.576,0.238c0.224,0,0.417-0.078,0.575-0.238
		C308.828,103.177,308.909,102.981,308.909,102.761z"/>
	<path fill="#339900" d="M319.301,104.392h-1.486V96.64c0-0.496-0.12-0.744-0.358-0.744c-0.208,0-0.354,0.119-0.434,0.358
		l-2.854,8.138h-1.682v-6.168c-0.158,0.03-0.296,0.047-0.406,0.047c-0.514,0-0.943-0.181-1.297-0.539
		c-0.353-0.357-0.527-0.797-0.527-1.31c0-0.495,0.178-0.92,0.527-1.271c0.354-0.354,0.783-0.527,1.297-0.527
		c0.544,0,0.996,0.184,1.354,0.553c0.358,0.367,0.54,0.832,0.54,1.391v3.576c0,0.545-0.098,1.396-0.288,2.545
		c0.176-0.705,0.398-1.485,0.672-2.353l1.346-4.272c0.304-0.975,0.902-1.455,1.8-1.438c1.2,0.018,1.802,0.695,1.802,2.04
		L319.301,104.392L319.301,104.392z M312.893,96.446c0-0.225-0.08-0.416-0.24-0.575c-0.158-0.16-0.352-0.24-0.574-0.24
		c-0.226,0-0.416,0.08-0.576,0.24c-0.16,0.159-0.238,0.353-0.238,0.575c0,0.226,0.078,0.416,0.238,0.574
		c0.16,0.16,0.354,0.238,0.576,0.238c0.226,0,0.416-0.078,0.574-0.238C312.812,96.862,312.893,96.672,312.893,96.446z"/>
	<path fill="#339900" d="M328.973,104.392h-1.488v-6.533c0-0.572-0.248-1.053-0.742-1.438c-0.466-0.334-1-0.502-1.608-0.502
		c-0.72,0-1.296,0.239-1.729,0.723c-0.432,0.479-0.646,1.039-0.646,1.681c0,0.177,0.036,0.469,0.106,0.875
		c0.072,0.407,0.108,0.766,0.108,1.067v0.625c0-0.063,0.021-0.227,0.062-0.479c0.039-0.257,0.084-0.504,0.132-0.743
		c0.16-0.673,0.397-1.238,0.722-1.704c0.432-0.562,0.92-0.841,1.464-0.841c0.432,0,0.81,0.15,1.128,0.456
		c0.318,0.305,0.479,0.673,0.479,1.104c0,0.416-0.16,0.779-0.479,1.092c-0.32,0.312-0.696,0.47-1.128,0.47
		c-0.399,0-0.762-0.146-1.08-0.433c-0.479,1.455-0.722,2.982-0.722,4.584h-1.486v-1.537c0-0.752-0.132-1.569-0.396-2.459
		c-0.266-0.89-0.396-1.588-0.396-2.101c0-1.104,0.397-2,1.2-2.688c0.752-0.652,1.68-0.98,2.782-0.98c0.624,0,1.23,0.128,1.824,0.387
		c0.366-0.272,0.552-0.656,0.552-1.151h1.682c-0.19,0.879-0.562,1.526-1.104,1.942c0.513,0.592,0.77,1.287,0.77,2.088
		L328.973,104.392L328.973,104.392z M326.068,98.681c0-0.209-0.07-0.386-0.216-0.529s-0.318-0.215-0.526-0.215
		s-0.382,0.071-0.518,0.215c-0.138,0.146-0.204,0.32-0.204,0.529c0,0.207,0.066,0.379,0.204,0.518
		c0.136,0.137,0.31,0.201,0.518,0.201c0.207,0,0.384-0.064,0.526-0.201C325.996,99.06,326.068,98.888,326.068,98.681z"/>
	<path fill="#339900" d="M336.148,102.761c0,0.512-0.18,0.942-0.54,1.295c-0.358,0.354-0.789,0.527-1.282,0.527
		c-0.546,0-1-0.186-1.368-0.553s-0.554-0.832-0.554-1.393V90.782l-1.438,2.111l-0.96-0.289c-0.062-1.504-0.286-2.902-0.672-4.199
		h1.296c0.19,1.267,0.296,2.218,0.313,2.854l1.704-2.662c0.318,0.049,0.605,0.199,0.864,0.455c0.256,0.258,0.384,0.562,0.384,0.912
		v11.018c0.08-0.03,0.226-0.049,0.434-0.049c0.494,0,0.924,0.178,1.282,0.527C335.969,101.813,336.148,102.247,336.148,102.761z
		 M335.141,102.761c0-0.226-0.08-0.416-0.24-0.576c-0.158-0.16-0.354-0.24-0.574-0.24c-0.226,0-0.416,0.08-0.576,0.24
		s-0.238,0.354-0.238,0.576c0,0.223,0.078,0.416,0.238,0.574c0.16,0.16,0.354,0.238,0.576,0.238s0.416-0.078,0.574-0.238
		C335.061,103.177,335.141,102.981,335.141,102.761z"/>
	<path fill="#339900" d="M345.532,104.392h-1.488V96.64c0-0.496-0.12-0.744-0.358-0.744c-0.208,0-0.354,0.119-0.434,0.358
		l-2.854,8.138h-1.682v-6.168c-0.158,0.03-0.296,0.047-0.406,0.047c-0.514,0-0.942-0.181-1.296-0.539
		c-0.354-0.357-0.528-0.797-0.528-1.31c0-0.495,0.178-0.92,0.528-1.271c0.354-0.354,0.782-0.527,1.296-0.527
		c0.544,0,0.996,0.184,1.354,0.553c0.358,0.367,0.54,0.832,0.54,1.391v3.576c0,0.545-0.098,1.396-0.288,2.545
		c0.176-0.705,0.398-1.485,0.672-2.353l1.346-4.272c0.304-0.975,0.902-1.455,1.8-1.438c1.2,0.018,1.802,0.695,1.802,2.04
		L345.532,104.392L345.532,104.392z M339.124,96.446c0-0.225-0.08-0.416-0.239-0.575c-0.159-0.16-0.353-0.24-0.575-0.24
		c-0.226,0-0.416,0.08-0.576,0.24c-0.158,0.159-0.238,0.353-0.238,0.575c0,0.226,0.08,0.416,0.238,0.574
		c0.16,0.16,0.354,0.238,0.576,0.238c0.226,0,0.416-0.078,0.575-0.238C339.044,96.862,339.124,96.672,339.124,96.446z"/>
	<path fill="#339900" d="M354.796,101.968c0,1.743-1.186,2.615-3.552,2.615c-2.354,0-3.528-0.872-3.528-2.615v-1.104
		c0-0.77,0.322-1.313,0.968-1.635c-0.727-0.494-1.086-1.223-1.086-2.184c0-0.703,0.194-1.283,0.588-1.74
		c0.394-0.455,0.934-0.684,1.62-0.684c0.479,0,0.888,0.146,1.224,0.443s0.506,0.685,0.506,1.164c0,0.433-0.154,0.809-0.463,1.127
		c-0.307,0.318-0.711,0.479-1.212,0.479c-0.258,0-0.483-0.039-0.679-0.118c0.128,0.606,0.416,0.911,0.862,0.911h1.704v1.178h-1.704
		c-0.256,0-0.464,0.108-0.624,0.334c-0.158,0.224-0.238,0.478-0.238,0.762V102c0,0.856,0.686,1.287,2.052,1.287
		c1.386,0,2.076-0.433,2.076-1.293v-7.181h1.486V101.968L354.796,101.968z M350.645,96.256c0-0.226-0.073-0.407-0.222-0.554
		c-0.146-0.145-0.333-0.217-0.562-0.217s-0.412,0.072-0.562,0.217c-0.146,0.146-0.219,0.328-0.219,0.554
		c0,0.224,0.072,0.407,0.219,0.552c0.146,0.146,0.333,0.217,0.562,0.217c0.229,0,0.415-0.07,0.562-0.217
		C350.571,96.663,350.645,96.479,350.645,96.256z"/>
</g>
<g>
	<path fill="#0090C5" d="M93.052,79.478c0,0.896-0.315,1.652-0.945,2.269c-0.63,0.614-1.379,0.924-2.247,0.924
		c-0.952,0-1.75-0.321-2.394-0.966c-0.645-0.645-0.966-1.456-0.966-2.438V58.519l-2.52,3.696l-1.68-0.504
		c-0.112-2.631-0.504-5.082-1.176-7.351h2.268c0.336,2.213,0.518,3.879,0.546,4.998l2.982-4.661c0.56,0.084,1.063,0.351,1.512,0.798
		c0.448,0.447,0.672,0.98,0.672,1.596v19.278c0.14-0.056,0.392-0.084,0.756-0.084c0.868,0,1.617,0.308,2.247,0.924
		C92.737,77.825,93.052,78.581,93.052,79.478z M91.288,79.478c0-0.393-0.14-0.729-0.42-1.008c-0.28-0.279-0.616-0.421-1.008-0.421
		c-0.393,0-0.729,0.142-1.008,0.421c-0.28,0.279-0.42,0.615-0.42,1.008c0,0.394,0.14,0.729,0.42,1.008
		c0.28,0.279,0.616,0.421,1.008,0.421s0.728-0.142,1.008-0.421C91.148,80.206,91.288,79.87,91.288,79.478z"/>
	<path fill="#0090C5" d="M109.768,78.554c0,2.744-2.03,4.115-6.09,4.115c-4.088,0-6.132-1.371-6.132-4.115v-7.015
		c-0.28,0.056-0.519,0.084-0.714,0.084c-0.896,0-1.652-0.315-2.268-0.944c-0.617-0.631-0.924-1.393-0.924-2.289
		c0-0.867,0.308-1.609,0.924-2.227c0.615-0.615,1.371-0.924,2.268-0.924c0.952,0,1.743,0.32,2.373,0.963
		c0.63,0.643,0.945,1.453,0.945,2.43v9.926c0,0.56,0.378,1.006,1.134,1.342c0.756,0.334,1.554,0.502,2.394,0.502
		c0.812,0,1.596-0.168,2.352-0.502c0.756-0.336,1.134-0.782,1.134-1.342V65.575h2.604V78.554z M98.26,68.431
		c0-0.392-0.141-0.728-0.42-1.008c-0.28-0.279-0.616-0.42-1.008-0.42c-0.392,0-0.728,0.141-1.008,0.42
		c-0.28,0.28-0.42,0.616-0.42,1.008c0,0.394,0.14,0.729,0.42,1.008c0.28,0.281,0.616,0.42,1.008,0.42
		c0.392,0,0.728-0.139,1.008-0.42C98.119,69.159,98.26,68.823,98.26,68.431z"/>
	<path fill="#0090C5" d="M120.477,79.478c0,0.896-0.315,1.652-0.945,2.269s-1.379,0.924-2.247,0.924
		c-0.952,0-1.75-0.321-2.394-0.966c-0.645-0.645-0.966-1.456-0.966-2.438V65.575h2.604v10.794c0.14-0.056,0.392-0.084,0.756-0.084
		c0.868,0,1.617,0.308,2.247,0.924S120.477,78.581,120.477,79.478z M118.714,79.478c0-0.393-0.141-0.729-0.42-1.008
		c-0.28-0.279-0.616-0.421-1.008-0.421c-0.393,0-0.729,0.142-1.008,0.421c-0.28,0.279-0.42,0.615-0.42,1.008
		c0,0.394,0.14,0.729,0.42,1.008c0.279,0.279,0.615,0.421,1.008,0.421c0.392,0,0.728-0.142,1.008-0.421
		C118.574,80.207,118.714,79.87,118.714,79.478z"/>
	<path fill="#0090C5" d="M135.051,78.554c0,1.455-0.658,2.533-1.974,3.233c-1.064,0.588-2.436,0.882-4.116,0.882
		c-1.68,0-3.039-0.295-4.074-0.885c-1.26-0.703-1.89-1.784-1.89-3.246v-4.257c0-1.011,0.279-1.86,0.84-2.55
		c0.56-0.688,1.358-1.032,2.394-1.032c0.896,0,1.652,0.303,2.268,0.909c0.616,0.604,0.924,1.358,0.924,2.262
		c0,0.874-0.308,1.621-0.924,2.24c-0.616,0.621-1.372,0.931-2.268,0.931c-0.252,0-0.462-0.028-0.63-0.086v1.287
		c0,1.438,1.134,2.159,3.402,2.159c2.295,0,3.444-0.737,3.444-2.213v-8.013c0-0.917-0.434-1.612-1.302-2.086
		c-0.729-0.389-1.624-0.584-2.688-0.584c-2.661,0-4.102,0.673-4.326,2.017h-2.52c0.364-2.828,2.576-4.256,6.636-4.283
		c1.875,0,3.416,0.35,4.62,1.05c1.456,0.896,2.184,2.239,2.184,4.032V78.554z M127.659,73.87c0-0.387-0.143-0.717-0.427-0.993
		c-0.284-0.274-0.625-0.414-1.022-0.414s-0.739,0.14-1.023,0.414c-0.284,0.276-0.426,0.606-0.426,0.993s0.142,0.718,0.426,0.994
		c0.284,0.275,0.625,0.412,1.023,0.412c0.398,0,0.738-0.137,1.022-0.412C127.517,74.588,127.659,74.257,127.659,73.87z"/>
	<path fill="#0090C5" d="M151.599,78.554c0,1.455-0.658,2.533-1.974,3.233c-1.064,0.588-2.436,0.882-4.116,0.882
		s-3.039-0.295-4.074-0.885c-1.26-0.703-1.89-1.784-1.89-3.246v-4.257c0-1.011,0.279-1.86,0.84-2.55
		c0.56-0.688,1.358-1.032,2.394-1.032c0.896,0,1.652,0.303,2.268,0.909c0.616,0.604,0.924,1.358,0.924,2.262
		c0,0.874-0.308,1.621-0.924,2.24c-0.616,0.621-1.372,0.931-2.268,0.931c-0.252,0-0.462-0.028-0.63-0.086v1.287
		c0,1.438,1.134,2.159,3.402,2.159c2.295,0,3.444-0.737,3.444-2.213v-8.013c0-0.917-0.434-1.612-1.302-2.086
		c-0.729-0.389-1.624-0.584-2.688-0.584c-2.661,0-4.102,0.673-4.326,2.017h-2.52c0.364-2.828,2.576-4.256,6.636-4.283
		c1.875,0,3.416,0.35,4.62,1.05c1.456,0.896,2.184,2.239,2.184,4.032V78.554L151.599,78.554z M144.207,73.87
		c0-0.387-0.143-0.717-0.427-0.993c-0.284-0.274-0.625-0.414-1.022-0.414s-0.739,0.14-1.023,0.414
		c-0.284,0.276-0.426,0.606-0.426,0.993s0.142,0.718,0.426,0.994c0.284,0.275,0.625,0.412,1.023,0.412s0.738-0.137,1.022-0.412
		C144.065,74.588,144.207,74.257,144.207,73.87z"/>
	<path fill="#0090C5" d="M165.123,79.519c0,0.896-0.315,1.646-0.945,2.248c-0.63,0.603-1.393,0.902-2.289,0.902
		s-1.659-0.309-2.289-0.924c-0.63-0.615-0.945-1.371-0.945-2.268c0-0.897,0.315-1.652,0.945-2.27
		c0.63-0.617,1.393-0.924,2.289-0.924c0.336,0,0.546,0.015,0.63,0.042v-3.612c0-0.447-0.931-0.888-2.793-1.322
		c-1.862-0.435-3.549-0.776-5.061-1.029c0.056-1.539,0.462-2.777,1.218-3.717c0.756-0.938,1.848-1.406,3.276-1.406
		c0.588,0,1.393,0.133,2.415,0.398s1.757,0.398,2.205,0.398c0.476,0,0.742-0.309,0.798-0.926l2.058,0.548
		c-0.504,1.708-1.428,2.563-2.772,2.563c-0.504,0-1.225-0.119-2.163-0.357s-1.645-0.357-2.121-0.357c-1.232,0-1.932,0.463-2.1,1.387
		c2.156,0.447,3.969,0.924,5.439,1.429c1.47,0.504,2.205,1.372,2.205,2.604V79.519L165.123,79.519z M163.317,79.478
		c0-0.393-0.143-0.729-0.427-1.008c-0.284-0.279-0.625-0.421-1.022-0.421s-0.739,0.142-1.023,0.421s-0.426,0.615-0.426,1.008
		c0,0.394,0.142,0.729,0.426,1.008c0.284,0.279,0.625,0.421,1.023,0.421s0.738-0.142,1.022-0.421
		C163.174,80.207,163.317,79.87,163.317,79.478z"/>
	<path fill="#0090C5" d="M167.139,54.319c-0.112,1.176-0.49,2.022-1.134,2.541s-1.512,0.931-2.604,1.238
		c0.448,0.225,0.806,0.553,1.071,0.987c0.266,0.435,0.399,0.917,0.399,1.449c0,0.756-0.266,1.399-0.798,1.932
		s-1.176,0.798-1.932,0.798c-0.756,0-1.4-0.266-1.932-0.798c-0.531-0.53-0.798-1.188-0.798-1.974c0-2.016,1.036-3.318,3.108-3.906
		c1.176-0.309,1.925-0.699,2.247-1.176c0.322-0.477,0.483-0.84,0.483-1.092H167.139z M163.359,60.535
		c0-0.308-0.119-0.581-0.357-0.819c-0.237-0.236-0.51-0.357-0.819-0.357c-0.308,0-0.581,0.121-0.819,0.357
		c-0.238,0.238-0.357,0.512-0.357,0.819s0.119,0.581,0.357,0.819c0.238,0.237,0.511,0.356,0.819,0.356
		c0.309,0,0.582-0.119,0.819-0.356C163.24,61.116,163.359,60.843,163.359,60.535z"/>
	<path fill="#0090C5" d="M173.188,70.362c0,0.561-0.196,1.037-0.588,1.429c-0.393,0.394-0.868,0.588-1.428,0.588
		s-1.036-0.194-1.428-0.588c-0.393-0.392-0.588-0.868-0.588-1.429c0-0.559,0.195-1.035,0.588-1.428
		c0.392-0.392,0.868-0.588,1.428-0.588s1.036,0.196,1.428,0.588C172.99,69.327,173.188,69.804,173.188,70.362z M173.188,80.694
		c0,0.561-0.196,1.037-0.588,1.429c-0.393,0.392-0.868,0.588-1.428,0.588s-1.036-0.196-1.428-0.588
		c-0.393-0.392-0.588-0.868-0.588-1.429c0-0.56,0.195-1.035,0.588-1.428c0.392-0.393,0.868-0.588,1.428-0.588
		s1.036,0.195,1.428,0.588C172.99,79.659,173.188,80.136,173.188,80.694z"/>
	<path fill="#0090C5" d="M198.051,79.267c0,0.98-0.322,1.785-0.966,2.416c-0.645,0.629-1.442,0.944-2.394,0.944
		c-0.896,0-1.652-0.31-2.268-0.93c-0.616-0.62-0.924-1.367-0.924-2.241c0-0.902,0.308-1.662,0.924-2.283
		c0.616-0.619,1.372-0.93,2.268-0.93c0.308,0,0.56,0.014,0.756,0.042v-6.116c0-1.773-1.288-2.662-3.864-2.662
		c-1.064,0-1.968,0.326-2.709,0.977c-0.742,0.65-1.113,1.516-1.113,2.595h-2.52c0.084-1.849,0.693-3.283,1.827-4.306
		c1.134-1.021,2.639-1.532,4.515-1.532c1.848,0,3.332,0.362,4.452,1.092c1.344,0.868,2.016,2.198,2.016,3.99V79.267L198.051,79.267z
		 M196.119,79.435c0-0.391-0.141-0.728-0.42-1.008c-0.28-0.279-0.616-0.42-1.008-0.42c-0.393,0-0.729,0.141-1.008,0.42
		c-0.28,0.28-0.42,0.617-0.42,1.008c0,0.394,0.14,0.729,0.42,1.008c0.279,0.281,0.615,0.42,1.008,0.42
		c0.392,0,0.728-0.139,1.008-0.42C195.978,80.163,196.119,79.827,196.119,79.435z"/>
	<path fill="#0090C5" d="M198.135,63.433c-3.472-1.119-6.65-1.68-9.534-1.68c-1.316,0-2.646,0.084-3.99,0.252
		c0.336-3.751,2.38-5.628,6.132-5.628c2.157,0,3.864,0.651,5.124,1.953C197.127,59.632,197.883,61.333,198.135,63.433z
		 M195.447,60.955c-0.168-0.7-0.672-1.358-1.512-1.974c-0.84-0.616-1.792-0.924-2.856-0.924c-1.008,0-1.876,0.202-2.604,0.608
		s-1.19,0.944-1.386,1.617c0.477-0.112,1.218-0.168,2.226-0.168C191.387,60.115,193.43,60.396,195.447,60.955z"/>
	<path fill="#0090C5" d="M216.447,82.333h-2.604V68.767c0-0.867-0.21-1.302-0.63-1.302c-0.364,0-0.616,0.21-0.756,0.63
		l-4.998,14.238h-2.94V71.539c-0.28,0.056-0.519,0.084-0.714,0.084c-0.896,0-1.652-0.315-2.268-0.944
		c-0.617-0.631-0.924-1.393-0.924-2.289c0-0.867,0.308-1.609,0.924-2.227c0.615-0.615,1.371-0.924,2.268-0.924
		c0.952,0,1.743,0.322,2.373,0.966c0.63,0.646,0.945,1.456,0.945,2.437v6.258c0,0.951-0.168,2.437-0.504,4.451
		c0.308-1.23,0.7-2.604,1.176-4.115l2.352-7.477c0.531-1.707,1.582-2.547,3.15-2.52c2.1,0.027,3.15,1.218,3.15,3.57V82.333z
		 M205.233,68.431c0-0.392-0.141-0.728-0.42-1.008c-0.28-0.279-0.616-0.42-1.008-0.42s-0.728,0.141-1.008,0.42
		c-0.28,0.28-0.42,0.616-0.42,1.008c0,0.394,0.14,0.729,0.42,1.008c0.28,0.281,0.616,0.42,1.008,0.42s0.728-0.139,1.008-0.42
		C205.092,69.159,205.233,68.823,205.233,68.431z"/>
	<path fill="#0090C5" d="M232.658,78.091c0,3.053-2.072,4.578-6.216,4.578c-4.116,0-6.174-1.525-6.174-4.578v-1.932
		c0-1.344,0.563-2.297,1.691-2.855c-1.268-0.867-1.901-2.143-1.901-3.822c0-1.231,0.342-2.248,1.029-3.045
		c0.686-0.799,1.631-1.196,2.835-1.196c0.84,0,1.554,0.259,2.142,0.776c0.588,0.519,0.882,1.196,0.882,2.037
		c0,0.756-0.269,1.414-0.807,1.973c-0.537,0.562-1.245,0.842-2.122,0.842c-0.453,0-0.849-0.069-1.188-0.21
		c0.224,1.063,0.728,1.596,1.512,1.596h2.982v2.06h-2.982c-0.448,0-0.813,0.193-1.092,0.584c-0.28,0.389-0.42,0.834-0.42,1.334v1.92
		c0,1.5,1.197,2.252,3.591,2.252c2.421,0,3.633-0.754,3.633-2.262V65.575h2.604L232.658,78.091L232.658,78.091z M225.392,68.095
		c0-0.392-0.128-0.714-0.384-0.966s-0.583-0.378-0.981-0.378s-0.725,0.126-0.981,0.378c-0.256,0.252-0.384,0.574-0.384,0.966
		c0,0.393,0.128,0.715,0.384,0.967c0.256,0.252,0.583,0.377,0.981,0.377s0.725-0.125,0.981-0.377S225.392,68.487,225.392,68.095z"/>
	<path fill="#0090C5" d="M246.771,82.333h-2.604V70.146c0-0.78-0.267-1.416-0.798-1.904c-0.532-0.488-1.26-0.733-2.184-0.733
		c-0.924,0-1.68,0.306-2.268,0.912c-0.588,0.608-0.896,1.384-0.924,2.322h-2.52c0.084-1.681,0.637-3.019,1.659-4.013
		c1.021-0.992,2.373-1.489,4.053-1.489c1.568,0,2.891,0.397,3.969,1.196c1.078,0.797,1.617,2.01,1.617,3.633L246.771,82.333
		L246.771,82.333z"/>
	<path fill="#0090C5" d="M263.696,82.333h-2.604V70.899c0-1.006-0.435-1.842-1.302-2.515c-0.813-0.586-1.75-0.879-2.814-0.879
		c-1.26,0-2.268,0.42-3.024,1.261c-0.756,0.84-1.134,1.819-1.134,2.939c0,0.309,0.063,0.818,0.189,1.533
		c0.126,0.714,0.189,1.337,0.189,1.867V76.2c0-0.112,0.035-0.393,0.105-0.842c0.069-0.446,0.147-0.881,0.231-1.301
		c0.279-1.177,0.699-2.17,1.26-2.981c0.756-0.979,1.61-1.472,2.562-1.472c0.756,0,1.414,0.269,1.974,0.799
		c0.56,0.531,0.84,1.177,0.84,1.933c0,0.729-0.28,1.365-0.84,1.911c-0.561,0.546-1.218,0.818-1.974,0.818
		c-0.7,0-1.33-0.252-1.89-0.756c-0.84,2.549-1.26,5.223-1.26,8.021H251.6v-2.688c0-1.316-0.231-2.752-0.693-4.307
		c-0.462-1.554-0.693-2.777-0.693-3.675c0-1.933,0.7-3.5,2.1-4.704c1.316-1.146,2.94-1.723,4.872-1.723
		c1.092,0,2.156,0.226,3.192,0.673c0.644-0.478,0.966-1.148,0.966-2.017h2.94c-0.336,1.541-0.98,2.674-1.932,3.402
		c0.896,1.036,1.344,2.255,1.344,3.654V82.333z M258.614,72.337c0-0.363-0.126-0.672-0.378-0.924s-0.561-0.378-0.924-0.378
		c-0.364,0-0.666,0.126-0.903,0.378c-0.238,0.252-0.357,0.561-0.357,0.924c0,0.364,0.119,0.666,0.357,0.903
		c0.237,0.237,0.539,0.356,0.903,0.356c0.364,0,0.672-0.119,0.924-0.356S258.614,72.701,258.614,72.337z"/>
	<path fill="#0090C5" d="M277.808,82.333h-2.604V70.146c0-0.78-0.267-1.416-0.798-1.904c-0.532-0.488-1.26-0.733-2.184-0.733
		c-0.924,0-1.68,0.306-2.268,0.912c-0.588,0.608-0.896,1.384-0.924,2.322h-2.52c0.084-1.681,0.637-3.019,1.659-4.013
		c1.021-0.992,2.373-1.489,4.053-1.489c1.568,0,2.891,0.397,3.969,1.196c1.078,0.797,1.617,2.01,1.617,3.633V82.333z"/>
	<path fill="#0090C5" d="M294.566,82.333h-2.604v-7.266c0-0.84-0.477-1.484-1.428-1.934c-0.729-0.336-1.54-0.504-2.436-0.504
		c-0.868,0-1.61,0.21-2.227,0.63c-0.756,0.505-1.134,1.177-1.134,2.017v1.051c0.392-0.057,0.644-0.084,0.756-0.084
		c0.896,0,1.666,0.314,2.31,0.945c0.645,0.629,0.967,1.379,0.967,2.246c0,0.896-0.336,1.651-1.008,2.269
		c-0.672,0.616-1.442,0.924-2.311,0.924c-0.924,0-1.708-0.3-2.352-0.903c-0.646-0.602-0.966-1.365-0.966-2.289v-3.862
		c0-1.652,0.616-2.94,1.848-3.864c1.092-0.812,2.45-1.218,4.073-1.218c1.736,0,3.039,0.477,3.906,1.428v-1.872
		c0-0.859-0.504-1.525-1.512-1.997c-0.784-0.36-1.666-0.541-2.646-0.541c-1.092,0-2.029,0.249-2.813,0.746
		c-0.868,0.554-1.386,1.298-1.554,2.236h-2.52c0.168-1.708,0.91-3.024,2.225-3.948c1.232-0.868,2.814-1.302,4.746-1.302
		c1.261,0,2.395,0.225,3.402,0.672c0.588-0.531,0.883-1.204,0.883-2.017h2.939c-0.336,1.429-0.938,2.535-1.807,3.318
		c0.841,0.896,1.261,1.934,1.261,3.108V82.333L294.566,82.333z M286.923,79.435c0-0.391-0.142-0.728-0.42-1.008
		c-0.281-0.279-0.617-0.42-1.009-0.42c-0.394,0-0.729,0.141-1.008,0.42c-0.28,0.28-0.42,0.617-0.42,1.008
		c0,0.394,0.14,0.729,0.42,1.008c0.278,0.281,0.614,0.42,1.008,0.42c0.392,0,0.728-0.139,1.009-0.42
		C286.781,80.163,286.923,79.827,286.923,79.435z"/>
	<path fill="#0090C5" d="M311.575,82.333h-2.604V71.329c0-1.791-0.49-3.08-1.471-3.864l-2.604,1.869l-2.562-1.869
		c-1.176,0.589-1.764,1.919-1.764,3.99c0,0.672,0.203,1.666,0.609,2.981c0.404,1.315,0.608,2.297,0.608,2.939
		c0,0.448-0.084,0.91-0.252,1.387c0.168-0.393,0.573-0.938,1.218-1.639s1.261-1.23,1.849-1.598c-0.756-0.055-1.352-0.35-1.785-0.881
		c-0.435-0.531-0.651-1.119-0.651-1.765c0-0.756,0.259-1.399,0.777-1.932c0.518-0.533,1.155-0.798,1.911-0.798
		s1.399,0.266,1.932,0.798c0.531,0.532,0.798,1.176,0.798,1.932c0,1.204-0.63,2.478-1.89,3.822c-1.68,1.792-2.66,2.954-2.94,3.485
		c-0.42,0.812-0.63,1.526-0.63,2.143h-2.604c0.057-1.064,0.085-2.143,0.085-3.234c0-1.119-0.177-2.154-0.528-3.106
		c-0.74-2.017-1.109-3.528-1.109-4.536c0-1.54,0.389-2.87,1.166-3.99c0.776-1.12,1.887-1.876,3.328-2.27l2.395,1.808l2.226-1.808
		c2.996,0.449,4.494,2.466,4.494,6.05L311.575,82.333L311.575,82.333z M306.115,72.841c0-0.363-0.12-0.664-0.357-0.902
		c-0.236-0.237-0.538-0.356-0.902-0.356s-0.666,0.119-0.903,0.356c-0.238,0.238-0.356,0.539-0.356,0.902
		c0,0.364,0.118,0.666,0.356,0.903c0.237,0.237,0.539,0.356,0.903,0.356s0.665-0.119,0.902-0.356S306.115,73.205,306.115,72.841z"/>
	<path fill="#0090C5" d="M325.099,79.519c0,0.896-0.315,1.646-0.945,2.248c-0.63,0.603-1.393,0.902-2.289,0.902
		s-1.659-0.309-2.289-0.924s-0.945-1.371-0.945-2.268c0-0.897,0.315-1.652,0.945-2.27s1.393-0.924,2.289-0.924
		c0.336,0,0.546,0.015,0.63,0.042v-3.612c0-0.447-0.931-0.888-2.793-1.322s-3.549-0.776-5.061-1.029
		c0.056-1.539,0.462-2.777,1.218-3.717c0.756-0.938,1.848-1.406,3.275-1.406c0.589,0,1.394,0.133,2.415,0.398
		c1.022,0.266,1.758,0.398,2.205,0.398c0.477,0,0.742-0.309,0.798-0.926l2.059,0.548c-0.504,1.708-1.428,2.563-2.772,2.563
		c-0.504,0-1.225-0.119-2.163-0.357c-0.938-0.238-1.645-0.357-2.12-0.357c-1.232,0-1.933,0.463-2.101,1.387
		c2.156,0.447,3.969,0.924,5.439,1.429c1.47,0.504,2.205,1.372,2.205,2.604V79.519L325.099,79.519z M323.293,79.478
		c0-0.393-0.143-0.729-0.427-1.008s-0.625-0.421-1.021-0.421c-0.397,0-0.739,0.142-1.023,0.421s-0.426,0.615-0.426,1.008
		c0,0.394,0.142,0.729,0.426,1.008c0.284,0.279,0.625,0.421,1.023,0.421c0.397,0,0.737-0.142,1.021-0.421
		C323.15,80.207,323.293,79.87,323.293,79.478z"/>
	<path fill="#0090C5" d="M327.114,54.319c-0.112,1.176-0.49,2.022-1.134,2.541c-0.645,0.519-1.513,0.931-2.604,1.238
		c0.448,0.225,0.807,0.553,1.071,0.987c0.266,0.435,0.399,0.917,0.399,1.449c0,0.756-0.267,1.399-0.799,1.932
		c-0.531,0.532-1.176,0.798-1.932,0.798s-1.4-0.266-1.932-0.798c-0.531-0.53-0.799-1.188-0.799-1.974
		c0-2.016,1.036-3.318,3.108-3.906c1.176-0.309,1.925-0.699,2.247-1.176s0.483-0.84,0.483-1.092H327.114z M323.334,60.535
		c0-0.308-0.119-0.581-0.356-0.819c-0.237-0.236-0.511-0.357-0.819-0.357c-0.308,0-0.581,0.121-0.819,0.357
		c-0.237,0.238-0.356,0.512-0.356,0.819s0.119,0.581,0.356,0.819c0.238,0.237,0.512,0.356,0.819,0.356
		c0.309,0,0.582-0.119,0.819-0.356C323.216,61.116,323.334,60.843,323.334,60.535z"/>
	<path fill="#0090C5" d="M336.103,79.478c0,0.896-0.315,1.652-0.945,2.269s-1.379,0.924-2.247,0.924
		c-0.952,0-1.75-0.321-2.394-0.966c-0.646-0.645-0.967-1.456-0.967-2.438V65.575h2.604v10.794c0.14-0.056,0.392-0.084,0.756-0.084
		c0.868,0,1.617,0.308,2.247,0.924S336.103,78.581,336.103,79.478z M334.339,79.478c0-0.393-0.141-0.729-0.42-1.008
		s-0.615-0.421-1.008-0.421s-0.729,0.142-1.008,0.421c-0.28,0.279-0.42,0.615-0.42,1.008c0,0.394,0.14,0.729,0.42,1.008
		c0.279,0.279,0.615,0.421,1.008,0.421s0.729-0.142,1.008-0.421C334.199,80.207,334.339,79.87,334.339,79.478z"/>
	<path fill="#0090C5" d="M354.372,82.333h-2.939l-3.948-13.02l-4.074,13.02h-2.813V71.539c-0.28,0.056-0.52,0.084-0.715,0.084
		c-0.896,0-1.651-0.315-2.268-0.944c-0.617-0.631-0.924-1.393-0.924-2.289c0-0.867,0.308-1.609,0.924-2.227
		c0.615-0.615,1.371-0.924,2.268-0.924c0.952,0,1.743,0.322,2.373,0.966c0.631,0.646,0.945,1.456,0.945,2.437v6.258
		c0,0.729-0.168,2.213-0.504,4.451c0.616-2.547,0.966-3.92,1.05-4.115l2.94-8.945h1.596l2.94,8.945
		c0.056,0.168,0.404,1.541,1.05,4.115c-0.336-2.238-0.504-3.723-0.504-4.451v-9.323h2.604V82.333z M341.311,68.431
		c0-0.392-0.142-0.728-0.42-1.008c-0.28-0.279-0.616-0.42-1.009-0.42c-0.392,0-0.728,0.141-1.008,0.42
		c-0.279,0.28-0.42,0.616-0.42,1.008c0,0.394,0.141,0.729,0.42,1.008c0.28,0.281,0.616,0.42,1.008,0.42
		c0.393,0,0.729-0.139,1.009-0.42C341.17,69.159,341.311,68.823,341.311,68.431z"/>
	<path fill="#0090C5" d="M354.456,63.433c-3.472-1.119-6.649-1.68-9.534-1.68c-1.315,0-2.646,0.084-3.989,0.252
		c0.336-3.751,2.38-5.628,6.132-5.628c0.42,0,0.812,0.028,1.176,0.084v-1.344h1.89v1.764c0.616,0.252,1.19,0.63,1.723,1.134v-2.897
		h2.52v7.728L354.456,63.433z M351.769,60.955c-0.168-0.7-0.672-1.358-1.513-1.974c-0.84-0.616-1.792-0.924-2.855-0.924
		c-1.008,0-1.876,0.202-2.604,0.608c-0.728,0.406-1.189,0.944-1.386,1.617c0.478-0.112,1.218-0.168,2.227-0.168
		C347.708,60.115,349.752,60.396,351.769,60.955z"/>
	<path fill="#0090C5" d="M354.372,53.899h-2.52V49.11h2.52V53.899z"/>
	<path fill="#0090C5" d="M370.92,78.554c0,1.455-0.657,2.533-1.974,3.233c-1.064,0.588-2.436,0.882-4.116,0.882
		c-1.68,0-3.039-0.295-4.074-0.885c-1.26-0.703-1.89-1.784-1.89-3.246v-4.257c0-1.011,0.279-1.86,0.84-2.55
		c0.561-0.688,1.358-1.032,2.395-1.032c0.896,0,1.651,0.303,2.268,0.909c0.616,0.604,0.924,1.358,0.924,2.262
		c0,0.874-0.308,1.621-0.924,2.24c-0.616,0.621-1.372,0.931-2.268,0.931c-0.252,0-0.462-0.028-0.63-0.086v1.287
		c0,1.438,1.134,2.159,3.401,2.159c2.295,0,3.444-0.737,3.444-2.213v-8.013c0-0.917-0.435-1.612-1.302-2.086
		c-0.729-0.389-1.624-0.584-2.688-0.584c-2.661,0-4.102,0.673-4.326,2.017h-2.52c0.364-2.828,2.576-4.256,6.636-4.283
		c1.875,0,3.416,0.35,4.62,1.05c1.456,0.896,2.184,2.239,2.184,4.032V78.554z M363.528,73.87c0-0.387-0.143-0.717-0.427-0.993
		c-0.284-0.274-0.625-0.414-1.022-0.414c-0.396,0-0.739,0.14-1.022,0.414c-0.284,0.276-0.427,0.606-0.427,0.993
		s0.143,0.718,0.427,0.994c0.283,0.275,0.625,0.412,1.022,0.412c0.398,0,0.738-0.137,1.022-0.412
		C363.386,74.588,363.528,74.257,363.528,73.87z"/>
	<path fill="#0090C5" d="M387.847,82.333h-2.604V70.899c0-1.006-0.435-1.842-1.302-2.515c-0.813-0.586-1.75-0.879-2.814-0.879
		c-1.26,0-2.268,0.423-3.023,1.267c-0.756,0.846-1.135,1.821-1.135,2.935c0,0.31,0.063,0.819,0.189,1.533s0.189,1.337,0.189,1.868
		v1.177c0-0.028,0.048-0.329,0.146-0.903c0.098-0.572,0.161-1.014,0.189-1.322c0.278-1.177,0.714-2.156,1.302-2.939
		c0.728-1.01,1.567-1.514,2.52-1.514c0.757,0,1.414,0.269,1.975,0.8c0.56,0.53,0.84,1.176,0.84,1.932c0,0.729-0.28,1.365-0.84,1.911
		c-0.562,0.546-1.218,0.818-1.975,0.818c-0.699,0-1.33-0.252-1.89-0.756c-0.84,2.549-1.26,5.223-1.26,8.021h-2.604v-2.688
		c0-1.316-0.23-2.752-0.692-4.307c-0.463-1.554-0.693-2.777-0.693-3.674c0-1.932,0.7-3.5,2.1-4.704
		c1.316-1.147,2.94-1.722,4.872-1.722c1.765,0,3.248,0.462,4.452,1.386c1.372,1.063,2.059,2.507,2.059,4.326V82.333L387.847,82.333z
		 M382.765,72.337c0-0.363-0.126-0.672-0.378-0.924c-0.253-0.252-0.562-0.378-0.925-0.378s-0.666,0.126-0.902,0.378
		c-0.238,0.252-0.357,0.561-0.357,0.924c0,0.364,0.119,0.666,0.357,0.903c0.236,0.237,0.539,0.356,0.902,0.356
		c0.364,0,0.672-0.119,0.925-0.356C382.639,73.003,382.765,72.701,382.765,72.337z"/>
	<path fill="#0090C5" d="M387.847,92.203h-2.521v-3.192h-0.168c-0.7,0-1.295-0.244-1.785-0.734c-0.489-0.489-0.734-1.07-0.734-1.742
		c0-0.7,0.245-1.303,0.734-1.807c0.49-0.504,1.101-0.756,1.827-0.756c0.7,0,1.316,0.223,1.848,0.672
		c0.532,0.447,0.799,1.063,0.799,1.849V92.203z M386.376,86.407c0-0.309-0.111-0.574-0.336-0.799
		c-0.224-0.225-0.489-0.336-0.798-0.336c-0.308,0-0.581,0.111-0.819,0.336c-0.237,0.225-0.356,0.49-0.356,0.799
		c0,0.308,0.119,0.58,0.356,0.818c0.238,0.237,0.512,0.356,0.819,0.356c0.309,0,0.574-0.119,0.798-0.356
		C386.265,86.987,386.376,86.715,386.376,86.407z"/>
	<path fill="#0090C5" d="M412.836,79.478c0,0.867-0.281,1.617-0.846,2.246c-0.563,0.631-1.311,0.945-2.24,0.945
		c-0.817,0-1.536-0.26-2.157-0.777c-0.619-0.518-1-1.168-1.141-1.953c-0.756,0.504-1.596,1.304-2.52,2.396h-2.646V71.203
		c0-1.093-0.343-1.979-1.029-2.667c-0.687-0.686-1.532-1.029-2.541-1.029c-1.708,0-2.926,0.7-3.653,2.1
		c1.092,0.084,2.016,0.716,2.771,1.892c-1.428,0.784-2.142,1.792-2.142,3.022v1.976c0.195-0.111,0.462-0.168,0.798-0.168
		c0.868,0,1.604,0.301,2.205,0.901c0.602,0.604,0.903,1.353,0.903,2.248c0,0.896-0.309,1.652-0.925,2.269
		c-0.615,0.614-1.371,0.924-2.268,0.924c-0.924,0-1.708-0.321-2.352-0.966c-0.646-0.645-0.967-1.456-0.967-2.438v-4.914
		c0-1.176,0.573-2.1,1.723-2.771c-0.7-0.476-1.555-0.646-2.562-0.504c0.057-1.736,0.7-3.164,1.933-4.284
		c1.147-1.036,2.617-1.554,4.409-1.554c1.875,0,3.396,0.524,4.558,1.573c1.162,1.052,1.743,2.515,1.743,4.391v8.482
		c0.42-0.504,1.176-1.188,2.268-2.058c1.512-1.176,2.408-1.89,2.688-2.142c0.392-0.504,0.588-1.162,0.588-1.975v-7.938h2.604v8.819
		c0,1.092-0.294,1.861-0.882,2.311C412.276,77.321,412.836,78.245,412.836,79.478z M396.918,79.54c0-0.398-0.141-0.738-0.42-1.021
		c-0.279-0.285-0.616-0.428-1.008-0.428c-0.393,0-0.729,0.143-1.008,0.428c-0.28,0.283-0.42,0.623-0.42,1.021
		c0,0.396,0.14,0.738,0.42,1.023c0.278,0.283,0.615,0.426,1.008,0.426c0.392,0,0.728-0.143,1.008-0.426
		C396.778,80.278,396.918,79.937,396.918,79.54z M411.072,79.456c0-0.398-0.141-0.738-0.42-1.021
		c-0.28-0.285-0.616-0.428-1.008-0.428c-0.393,0-0.729,0.143-1.008,0.428c-0.28,0.283-0.421,0.623-0.421,1.021
		c0,0.396,0.141,0.738,0.421,1.023c0.279,0.283,0.615,0.426,1.008,0.426c0.392,0,0.728-0.143,1.008-0.426
		C410.932,80.194,411.072,79.854,411.072,79.456z"/>
	<path fill="#0090C5" d="M429.888,82.333h-2.604v-11.1c0-1.115-0.372-2.017-1.113-2.7c-0.741-0.685-1.674-1.026-2.793-1.026
		c-1.708,0-2.955,0.7-3.737,2.1c1.372,0.281,2.31,0.91,2.813,1.892c-0.756,0.42-1.26,0.771-1.512,1.05
		c-0.364,0.448-0.546,1.051-0.546,1.807c0,0.617,0.069,1.506,0.21,2.668c0.14,1.162,0.21,1.979,0.21,2.457
		c0,0.896-0.301,1.651-0.903,2.268c-0.603,0.615-1.337,0.924-2.205,0.924c-0.896,0-1.651-0.311-2.268-0.93
		c-0.616-0.62-0.924-1.381-0.924-2.283c0-0.873,0.308-1.62,0.924-2.24c0.616-0.621,1.344-0.931,2.184-0.931
		c0.336,0,0.546,0.043,0.63,0.129l-0.252-2.583c0-0.973,0.477-1.723,1.429-2.25c-0.757-0.477-1.61-0.645-2.562-0.504
		c0.027-1.736,0.672-3.164,1.932-4.284c1.204-1.036,2.716-1.554,4.536-1.554c1.96,0,3.542,0.546,4.746,1.638
		c1.204,1.093,1.807,2.548,1.807,4.368V82.333L429.888,82.333z M419.136,79.478c0-0.393-0.142-0.729-0.421-1.008
		s-0.615-0.421-1.008-0.421c-0.392,0-0.728,0.142-1.008,0.421s-0.42,0.615-0.42,1.008c0,0.394,0.14,0.729,0.42,1.008
		c0.28,0.279,0.616,0.421,1.008,0.421c0.393,0,0.729-0.142,1.008-0.421C418.995,80.206,419.136,79.87,419.136,79.478z"/>
	<path fill="#0090C5" d="M443.999,82.333h-2.604V70.146c0-0.78-0.268-1.416-0.798-1.904c-0.532-0.488-1.261-0.733-2.185-0.733
		s-1.68,0.306-2.268,0.912c-0.588,0.608-0.896,1.384-0.924,2.322h-2.521c0.084-1.681,0.637-3.019,1.659-4.013
		c1.021-0.992,2.373-1.489,4.053-1.489c1.568,0,2.892,0.397,3.969,1.196c1.078,0.797,1.617,2.01,1.617,3.633V82.333z"/>
	<path fill="#0090C5" d="M464.243,82.333h-2.939l-3.948-13.02l-4.074,13.02h-2.814V71.539c-0.279,0.056-0.519,0.084-0.714,0.084
		c-0.896,0-1.651-0.315-2.268-0.944c-0.617-0.631-0.924-1.393-0.924-2.289c0-0.867,0.308-1.609,0.924-2.227
		c0.615-0.615,1.371-0.924,2.268-0.924c0.952,0,1.743,0.322,2.373,0.966c0.63,0.646,0.945,1.456,0.945,2.437v6.258
		c0,0.729-0.168,2.213-0.504,4.451c0.616-2.547,0.966-3.92,1.05-4.115l2.94-8.945h1.596l2.939,8.945
		c0.057,0.168,0.405,1.541,1.051,4.115c-0.336-2.238-0.504-3.723-0.504-4.451v-9.323h2.604V82.333z M451.182,68.431
		c0-0.392-0.142-0.728-0.421-1.008c-0.279-0.279-0.615-0.42-1.008-0.42c-0.392,0-0.728,0.141-1.008,0.42
		c-0.28,0.28-0.42,0.616-0.42,1.008c0,0.394,0.14,0.729,0.42,1.008c0.28,0.281,0.616,0.42,1.008,0.42
		c0.393,0,0.729-0.139,1.008-0.42C451.04,69.159,451.182,68.823,451.182,68.431z"/>
	<path fill="#0090C5" d="M481.673,78.385c0,1.372-0.427,2.431-1.28,3.171c-0.854,0.742-1.981,1.113-3.382,1.113
		c-1.399,0-2.526-0.369-3.381-1.109c-0.854-0.74-1.28-1.795-1.28-3.164v-2.722c0-0.81,0.37-1.892,1.112-3.245
		c0.741-1.354,1.113-2.424,1.113-3.205c0-0.643-0.225-1.174-0.672-1.592c-0.448-0.419-0.966-0.629-1.554-0.629
		c-0.896,0-1.498,0.168-1.807,0.504c0.84,0.028,1.52,0.294,2.037,0.799c0.519,0.504,0.777,1.148,0.777,1.932
		c0,0.841-0.294,1.548-0.882,2.121c-0.588,0.574-1.288,0.861-2.101,0.861c-0.953,0-1.716-0.344-2.289-1.029s-0.86-1.52-0.86-2.5
		c0-1.287,0.511-2.352,1.532-3.19c1.022-0.84,2.205-1.26,3.55-1.26c1.399,0,2.541,0.335,3.423,1.005
		c0.882,0.671,1.323,1.646,1.323,2.932c0,0.838-0.352,2.012-1.051,3.52s-1.05,2.568-1.05,3.184v3.057
		c0,0.477,0.217,0.838,0.651,1.09c0.434,0.252,0.902,0.377,1.407,0.377c0.531,0,1.008-0.133,1.428-0.397s0.63-0.621,0.63-1.067
		v-6.916c0-1.032-0.406-1.674-1.218-1.926c0.111-0.504,0.126-0.992,0.042-1.468c1.428-0.528,2.142-1.87,2.142-4.021h2.604
		c-0.196,2.156-0.938,3.738-2.227,4.746c0.84,0.672,1.26,1.555,1.26,2.646V78.385L481.673,78.385z M471.677,70.321
		c0-0.363-0.126-0.672-0.378-0.924s-0.561-0.379-0.924-0.379c-0.364,0-0.672,0.127-0.924,0.379s-0.378,0.561-0.378,0.924
		s0.126,0.672,0.378,0.924s0.56,0.378,0.924,0.378c0.363,0,0.672-0.126,0.924-0.378C471.552,70.993,471.677,70.685,471.677,70.321z"
		/>
	<path fill="#0090C5" d="M481.756,63.433c-3.472-1.119-6.649-1.68-9.533-1.68c-1.316,0-2.646,0.084-3.99,0.252
		c0.336-3.751,2.38-5.628,6.132-5.628c1.989,0,3.584,0.546,4.788,1.638v-2.897h2.52v7.728
		C481.7,63.041,481.729,63.237,481.756,63.433z M479.068,60.955c-0.168-0.7-0.672-1.358-1.512-1.974
		c-0.841-0.616-1.792-0.924-2.856-0.924c-1.008,0-1.876,0.202-2.604,0.608c-0.729,0.406-1.19,0.944-1.387,1.617
		c0.478-0.112,1.219-0.168,2.227-0.168C475.009,60.115,477.052,60.396,479.068,60.955z"/>
	<path fill="#0090C5" d="M497.591,79.267c0,0.98-0.321,1.785-0.967,2.416c-0.644,0.629-1.441,0.944-2.394,0.944
		c-0.896,0-1.652-0.31-2.269-0.93c-0.615-0.62-0.925-1.367-0.925-2.241c0-0.902,0.31-1.662,0.925-2.283
		c0.615-0.619,1.371-0.93,2.269-0.93c0.308,0,0.56,0.014,0.756,0.042v-6.116c0-1.773-1.288-2.662-3.864-2.662
		c-1.063,0-1.967,0.326-2.708,0.977c-0.742,0.65-1.113,1.516-1.113,2.595h-2.52c0.084-1.849,0.693-3.283,1.827-4.306
		c1.134-1.021,2.639-1.532,4.515-1.532c1.85,0,3.332,0.362,4.452,1.092c1.344,0.868,2.017,2.198,2.017,3.99L497.591,79.267
		L497.591,79.267z M495.658,79.435c0-0.391-0.141-0.728-0.42-1.008c-0.28-0.279-0.616-0.42-1.008-0.42
		c-0.394,0-0.729,0.141-1.008,0.42c-0.28,0.28-0.421,0.617-0.421,1.008c0,0.394,0.141,0.729,0.421,1.008
		c0.278,0.281,0.614,0.42,1.008,0.42c0.392,0,0.728-0.139,1.008-0.42C495.518,80.163,495.658,79.827,495.658,79.435z"/>
	<path fill="#0090C5" d="M497.675,63.433c-3.472-1.119-6.649-1.68-9.533-1.68c-1.316,0-2.646,0.084-3.99,0.252
		c0.336-3.751,2.38-5.628,6.132-5.628c2.156,0,3.864,0.651,5.124,1.953C496.666,59.632,497.423,61.333,497.675,63.433z
		 M494.986,60.955c-0.168-0.7-0.672-1.358-1.512-1.974c-0.841-0.616-1.792-0.924-2.856-0.924c-1.008,0-1.875,0.202-2.604,0.608
		s-1.19,0.944-1.387,1.617c0.478-0.112,1.219-0.168,2.227-0.168C490.927,60.115,492.971,60.396,494.986,60.955z"/>
	<path fill="#0090C5" d="M514.601,82.333h-2.604V71.329c0-1.791-0.49-3.08-1.47-3.864l-2.604,1.869l-2.562-1.869
		c-1.176,0.589-1.764,1.919-1.764,3.99c0,0.672,0.201,1.666,0.607,2.981s0.609,2.297,0.609,2.939c0,0.448-0.084,0.91-0.252,1.387
		c0.168-0.393,0.572-0.938,1.218-1.639c0.644-0.7,1.26-1.23,1.849-1.598c-0.757-0.055-1.352-0.35-1.785-0.881
		c-0.435-0.531-0.65-1.119-0.65-1.765c0-0.756,0.259-1.399,0.776-1.932c0.519-0.532,1.154-0.798,1.911-0.798
		s1.399,0.266,1.933,0.798c0.531,0.532,0.798,1.176,0.798,1.932c0,1.204-0.63,2.478-1.89,3.822c-1.682,1.792-2.661,2.954-2.94,3.485
		c-0.42,0.812-0.63,1.526-0.63,2.143h-2.604c0.057-1.064,0.084-2.143,0.084-3.234c0-1.119-0.177-2.154-0.527-3.106
		c-0.74-2.017-1.11-3.528-1.11-4.536c0-1.54,0.389-2.87,1.166-3.99c0.776-1.12,1.887-1.876,3.328-2.27l2.395,1.808l2.227-1.808
		c2.996,0.449,4.494,2.466,4.494,6.05V82.333z M509.141,72.841c0-0.363-0.12-0.664-0.357-0.902
		c-0.238-0.237-0.539-0.356-0.902-0.356s-0.666,0.119-0.902,0.356c-0.238,0.238-0.357,0.539-0.357,0.902
		c0,0.364,0.119,0.666,0.357,0.903c0.236,0.237,0.539,0.356,0.902,0.356s0.664-0.119,0.902-0.356
		C509.021,73.507,509.141,73.205,509.141,72.841z"/>
	<path fill="#0090C5" d="M532.996,82.333h-2.604V68.767c0-0.867-0.21-1.302-0.631-1.302c-0.363,0-0.616,0.21-0.757,0.63
		l-4.997,14.238h-2.938V71.539c-0.28,0.056-0.52,0.084-0.714,0.084c-0.896,0-1.652-0.315-2.27-0.944
		c-0.616-0.631-0.924-1.393-0.924-2.289c0-0.867,0.308-1.609,0.924-2.227c0.616-0.615,1.372-0.924,2.27-0.924
		c0.951,0,1.743,0.322,2.373,0.966c0.63,0.646,0.943,1.456,0.943,2.437v6.258c0,0.951-0.168,2.437-0.504,4.451
		c0.309-1.23,0.7-2.604,1.176-4.115l2.354-7.477c0.531-1.707,1.581-2.547,3.149-2.52c2.101,0.027,3.149,1.218,3.149,3.57V82.333
		L532.996,82.333z M521.782,68.431c0-0.392-0.141-0.728-0.42-1.008c-0.28-0.279-0.616-0.42-1.008-0.42
		c-0.394,0-0.729,0.141-1.009,0.42c-0.279,0.28-0.42,0.616-0.42,1.008c0,0.394,0.141,0.729,0.42,1.008
		c0.279,0.281,0.615,0.42,1.009,0.42c0.392,0,0.728-0.139,1.008-0.42C521.642,69.159,521.782,68.823,521.782,68.431z"/>
	<path fill="#0090C5" d="M533.08,63.433c-3.472-1.119-6.649-1.68-9.534-1.68c-1.315,0-2.646,0.084-3.989,0.252
		c0.336-3.751,2.38-5.628,6.132-5.628c1.988,0,3.585,0.546,4.788,1.638v-2.897h2.521v7.728
		C533.023,63.041,533.052,63.237,533.08,63.433z M530.392,60.955c-0.168-0.7-0.672-1.358-1.513-1.974
		c-0.84-0.616-1.792-0.924-2.855-0.924c-1.008,0-1.875,0.202-2.604,0.608c-0.728,0.406-1.189,0.944-1.386,1.617
		c0.476-0.112,1.218-0.168,2.226-0.168C526.332,60.115,528.376,60.396,530.392,60.955z"/>
	<path fill="#0090C5" d="M532.996,53.899h-2.521V49.11h2.521V53.899z"/>
	<path fill="#0090C5" d="M550.006,82.333h-2.604V71.108c0-1.062-0.396-1.926-1.19-2.596c-0.794-0.671-1.733-1.007-2.82-1.007
		c-1.17,0-2.188,0.397-3.052,1.192c-0.862,0.796-1.295,1.751-1.295,2.865c0,0.697,0.23,1.688,0.692,2.972
		c0.462,1.282,0.693,2.243,0.693,2.887c0,0.195-0.028,0.459-0.084,0.794c0.799-1.314,1.694-2.421,2.688-3.316
		c-0.785-0.058-1.4-0.363-1.849-0.924c-0.42-0.478-0.63-1.064-0.63-1.766c0-0.729,0.272-1.363,0.818-1.911
		c0.546-0.546,1.196-0.817,1.953-0.817c0.756,0,1.399,0.271,1.932,0.817c0.531,0.548,0.799,1.185,0.799,1.911
		c0,1.262-0.611,2.661-1.833,4.2c-1.695,2.1-2.653,3.358-2.876,3.778c-0.417,0.729-0.625,1.443-0.625,2.144h-2.646
		c0.027-1.035,0.042-1.988,0.042-2.854c0-1.514-0.173-2.675-0.518-3.486c-0.259-0.729-0.518-1.477-0.775-2.247
		s-0.388-1.449-0.388-2.037c0-1.903,0.665-3.458,1.995-4.662s2.945-1.806,4.852-1.806c1.932,0,3.513,0.504,4.745,1.512
		c1.316,1.092,1.975,2.59,1.975,4.494L550.006,82.333L550.006,82.333z M544.588,72.211c0-0.362-0.12-0.665-0.356-0.903
		c-0.238-0.236-0.539-0.355-0.902-0.355c-0.364,0-0.666,0.119-0.902,0.355c-0.238,0.238-0.357,0.541-0.357,0.903
		c0,0.364,0.119,0.665,0.357,0.903c0.236,0.238,0.538,0.357,0.902,0.357c0.363,0,0.664-0.119,0.902-0.357
		C544.468,72.876,544.588,72.575,544.588,72.211z"/>
	<path fill="#0090C5" d="M550.09,63.433c-3.472-1.119-6.649-1.68-9.533-1.68c-1.316,0-2.646,0.084-3.99,0.252
		c0.336-3.751,2.38-5.628,6.132-5.628c1.988,0,3.585,0.546,4.788,1.638v-2.897h2.521v7.728
		C550.033,63.041,550.062,63.237,550.09,63.433z M547.401,60.955c-0.168-0.7-0.672-1.358-1.512-1.974
		c-0.841-0.616-1.792-0.924-2.856-0.924c-1.008,0-1.875,0.202-2.604,0.608c-0.728,0.406-1.189,0.944-1.386,1.617
		c0.477-0.112,1.218-0.168,2.227-0.168C543.343,60.115,545.386,60.396,547.401,60.955z"/>
</g>
</svg>
