<?xml version="1.0" encoding="utf-8"?>
<!-- Generator: Adobe Illustrator 14.0.0, SVG Export Plug-In . SVG Version: 6.00 Build 43363)  -->
<!DOCTYPE svg PUBLIC "-//W3C//DTD SVG 1.1//EN" "http://www.w3.org/Graphics/SVG/1.1/DTD/svg11.dtd">
<svg version="1.1" id="Ebene_1" xmlns="http://www.w3.org/2000/svg" xmlns:xlink="http://www.w3.org/1999/xlink" x="0px" y="0px"
	 width="995px" height="124px" viewBox="0 0 995 124" enable-background="new 0 0 995 124" xml:space="preserve">
<g>
	<path fill="#339900" d="M596.39,59.865v1.799h-7.719V82h-2.107V61.664h-7.688v-1.799H596.39z"/>
	<path fill="#339900" d="M600.483,59.865v8.898h0.062c0.372-0.973,1.033-1.752,1.984-2.342c0.949-0.59,1.994-0.885,3.131-0.885
		c1.116,0,2.051,0.146,2.806,0.436c0.754,0.289,1.358,0.697,1.813,1.225c0.454,0.527,0.773,1.174,0.961,1.938
		c0.186,0.766,0.277,1.623,0.277,2.572V82h-1.951v-9.98c0-0.684-0.063-1.318-0.188-1.908c-0.124-0.588-0.341-1.1-0.651-1.533
		c-0.31-0.434-0.729-0.775-1.255-1.021c-0.526-0.248-1.184-0.373-1.969-0.373s-1.482,0.139-2.093,0.418s-1.126,0.662-1.55,1.146
		c-0.425,0.486-0.756,1.064-0.992,1.736c-0.237,0.672-0.367,1.4-0.387,2.186V82h-1.953V59.865H600.483z"/>
	<path fill="#339900" d="M616.075,68.484c0.33-0.684,0.78-1.24,1.349-1.674c0.568-0.436,1.234-0.756,1.999-0.961
		c0.766-0.207,1.612-0.313,2.542-0.313c0.703,0,1.405,0.068,2.108,0.203c0.702,0.133,1.333,0.387,1.891,0.758
		c0.56,0.373,1.013,0.896,1.364,1.566c0.352,0.672,0.527,1.545,0.527,2.619v8.494c0,0.785,0.382,1.178,1.146,1.178
		c0.228,0,0.435-0.041,0.62-0.123v1.643c-0.229,0.041-0.429,0.072-0.604,0.094C628.842,81.99,628.619,82,628.351,82
		c-0.495,0-0.895-0.066-1.192-0.201c-0.3-0.135-0.533-0.324-0.698-0.572s-0.273-0.543-0.325-0.885
		c-0.052-0.34-0.077-0.719-0.077-1.131h-0.062c-0.353,0.518-0.708,0.977-1.069,1.379s-0.765,0.738-1.209,1.008
		c-0.443,0.27-0.951,0.475-1.519,0.619c-0.569,0.145-1.246,0.219-2.031,0.219c-0.744,0-1.44-0.09-2.092-0.264
		c-0.651-0.178-1.22-0.455-1.705-0.838c-0.486-0.383-0.868-0.867-1.147-1.457c-0.278-0.59-0.418-1.287-0.418-2.094
		c0-1.115,0.248-1.988,0.743-2.619c0.496-0.631,1.152-1.109,1.969-1.439c0.816-0.332,1.736-0.564,2.76-0.699
		c1.022-0.133,2.062-0.262,3.115-0.387c0.413-0.041,0.774-0.094,1.085-0.154c0.311-0.063,0.567-0.172,0.774-0.326
		s0.367-0.367,0.48-0.635c0.112-0.27,0.171-0.621,0.171-1.055c0-0.662-0.108-1.203-0.325-1.627c-0.218-0.426-0.519-0.762-0.899-1.01
		c-0.383-0.246-0.827-0.418-1.333-0.512c-0.507-0.092-1.049-0.139-1.628-0.139c-1.238,0-2.252,0.295-3.037,0.883
		c-0.785,0.59-1.198,1.535-1.239,2.838h-1.953C615.548,69.973,615.744,69.166,616.075,68.484z M625.84,73.258
		c-0.124,0.229-0.361,0.395-0.713,0.496c-0.352,0.104-0.661,0.176-0.93,0.219c-0.827,0.145-1.681,0.271-2.559,0.387
		c-0.879,0.113-1.68,0.285-2.401,0.512c-0.725,0.229-1.317,0.555-1.782,0.977c-0.465,0.424-0.698,1.027-0.698,1.813
		c0,0.496,0.1,0.938,0.295,1.318c0.196,0.383,0.46,0.713,0.79,0.992c0.331,0.277,0.714,0.49,1.147,0.635
		c0.433,0.145,0.878,0.217,1.333,0.217c0.744,0,1.457-0.113,2.139-0.34c0.683-0.229,1.276-0.559,1.783-0.992
		c0.506-0.434,0.909-0.961,1.209-1.582c0.299-0.619,0.449-1.32,0.449-2.107V73.26h-0.063V73.258L625.84,73.258z"/>
	<path fill="#339900" d="M634.211,59.865v3.131h-1.953v-3.131H634.211z M634.211,66.004V82h-1.953V66.004H634.211z"/>
	<path fill="#339900" d="M640.41,59.865V82h-1.953V59.865H640.41z"/>
	<path fill="#339900" d="M645.029,68.484c0.33-0.684,0.779-1.24,1.349-1.674c0.568-0.436,1.234-0.756,1.999-0.961
		c0.765-0.207,1.612-0.313,2.542-0.313c0.703,0,1.405,0.068,2.108,0.203c0.701,0.133,1.333,0.387,1.891,0.758
		c0.559,0.373,1.013,0.896,1.364,1.566c0.352,0.672,0.526,1.545,0.526,2.619v8.494c0,0.785,0.383,1.178,1.146,1.178
		c0.228,0,0.435-0.041,0.62-0.123v1.643c-0.229,0.041-0.43,0.072-0.604,0.094S657.573,82,657.305,82
		c-0.496,0-0.895-0.066-1.192-0.201c-0.301-0.135-0.533-0.324-0.698-0.572s-0.273-0.543-0.325-0.885
		c-0.052-0.34-0.077-0.719-0.077-1.131h-0.062c-0.353,0.518-0.708,0.977-1.069,1.379c-0.362,0.402-0.765,0.738-1.209,1.008
		s-0.951,0.475-1.519,0.619c-0.569,0.145-1.246,0.219-2.031,0.219c-0.744,0-1.441-0.09-2.092-0.264
		c-0.651-0.178-1.221-0.455-1.705-0.838c-0.486-0.383-0.868-0.867-1.147-1.457c-0.278-0.59-0.418-1.287-0.418-2.094
		c0-1.115,0.248-1.988,0.743-2.619c0.496-0.631,1.152-1.109,1.969-1.439c0.816-0.332,1.736-0.564,2.76-0.699
		c1.022-0.133,2.062-0.262,3.115-0.387c0.413-0.041,0.774-0.094,1.085-0.154c0.311-0.063,0.567-0.172,0.774-0.326
		s0.367-0.367,0.479-0.635c0.113-0.27,0.172-0.621,0.172-1.055c0-0.662-0.108-1.203-0.325-1.627
		c-0.219-0.426-0.519-0.762-0.899-1.01c-0.383-0.246-0.827-0.418-1.333-0.512c-0.507-0.092-1.049-0.139-1.628-0.139
		c-1.239,0-2.252,0.295-3.037,0.883c-0.786,0.59-1.198,1.535-1.239,2.838h-1.953C644.502,69.973,644.698,69.166,645.029,68.484z
		 M654.794,73.258c-0.124,0.229-0.361,0.395-0.713,0.496c-0.353,0.104-0.661,0.176-0.93,0.219c-0.827,0.145-1.681,0.271-2.559,0.387
		c-0.879,0.113-1.68,0.285-2.401,0.512c-0.725,0.229-1.317,0.555-1.782,0.977c-0.465,0.424-0.698,1.027-0.698,1.813
		c0,0.496,0.1,0.938,0.295,1.318c0.196,0.383,0.46,0.713,0.79,0.992c0.331,0.277,0.714,0.49,1.147,0.635
		c0.433,0.145,0.878,0.217,1.333,0.217c0.743,0,1.457-0.113,2.139-0.34c0.683-0.229,1.276-0.559,1.783-0.992
		c0.506-0.434,0.909-0.961,1.209-1.582c0.299-0.619,0.448-1.32,0.448-2.107V73.26h-0.062V73.258L654.794,73.258z"/>
	<path fill="#339900" d="M663.103,66.004v2.76h0.062c0.372-0.971,1.033-1.752,1.984-2.34c0.949-0.59,1.993-0.885,3.131-0.885
		c1.116,0,2.051,0.145,2.806,0.436c0.754,0.289,1.358,0.697,1.813,1.223c0.454,0.527,0.773,1.174,0.961,1.939
		c0.186,0.766,0.277,1.623,0.277,2.572V82h-1.952v-9.98c0-0.684-0.062-1.318-0.187-1.908c-0.124-0.588-0.341-1.1-0.651-1.533
		c-0.31-0.434-0.729-0.775-1.255-1.021c-0.526-0.248-1.184-0.373-1.969-0.373s-1.483,0.139-2.093,0.418
		c-0.61,0.279-1.126,0.662-1.55,1.146c-0.425,0.486-0.756,1.064-0.992,1.736c-0.237,0.672-0.367,1.4-0.388,2.186V82h-1.952V66.004
		H663.103z"/>
	<path fill="#339900" d="M690.568,82v-3.037h-0.063c-0.207,0.518-0.512,0.99-0.914,1.426c-0.402,0.434-0.863,0.801-1.38,1.1
		c-0.517,0.301-1.069,0.533-1.658,0.699c-0.589,0.164-1.174,0.248-1.752,0.248c-1.22,0-2.278-0.223-3.178-0.668
		c-0.898-0.443-1.648-1.053-2.247-1.828c-0.6-0.775-1.044-1.674-1.333-2.697c-0.29-1.021-0.434-2.104-0.434-3.238
		c0-1.137,0.144-2.217,0.434-3.24c0.289-1.023,0.733-1.922,1.333-2.697c0.599-0.773,1.349-1.389,2.247-1.844
		c0.899-0.455,1.958-0.684,3.178-0.684c0.601,0,1.184,0.074,1.752,0.219c0.567,0.145,1.102,0.365,1.597,0.666
		s0.936,0.666,1.317,1.102c0.382,0.434,0.677,0.939,0.883,1.52h0.063v-9.178h1.953V82H690.568z M679.857,76.467
		c0.195,0.816,0.506,1.545,0.93,2.186c0.424,0.643,0.966,1.162,1.628,1.566c0.661,0.402,1.457,0.604,2.387,0.604
		c1.033,0,1.906-0.201,2.619-0.604c0.714-0.404,1.292-0.926,1.736-1.566c0.443-0.639,0.765-1.369,0.961-2.186
		s0.295-1.639,0.295-2.465s-0.099-1.646-0.295-2.465c-0.196-0.816-0.518-1.545-0.961-2.186c-0.444-0.641-1.022-1.162-1.736-1.564
		c-0.713-0.402-1.586-0.604-2.619-0.604c-0.93,0-1.726,0.201-2.387,0.604c-0.662,0.402-1.204,0.926-1.628,1.564
		c-0.424,0.641-0.733,1.369-0.93,2.186c-0.197,0.818-0.295,1.639-0.295,2.465S679.661,75.65,679.857,76.467z"/>
</g>
<rect x="557" y="53" fill="#6BC200" width="1" height="34"/>
<g>
	<path fill="#0190C5" d="M88.447,59.865c0.476,0,0.987,0.006,1.535,0.016c0.547,0.012,1.09,0.043,1.627,0.094
		s1.039,0.129,1.503,0.23c0.465,0.105,0.863,0.26,1.194,0.467c0.723,0.434,1.338,1.031,1.844,1.797s0.76,1.705,0.76,2.82
		c0,1.18-0.285,2.197-0.853,3.055c-0.569,0.857-1.379,1.494-2.435,1.906v0.063c1.364,0.289,2.407,0.91,3.131,1.859
		c0.724,0.951,1.085,2.107,1.085,3.473c0,0.807-0.145,1.592-0.434,2.355s-0.718,1.441-1.286,2.029
		c-0.569,0.59-1.271,1.064-2.107,1.426c-0.838,0.363-1.805,0.543-2.899,0.543H80.418V59.865H88.447L88.447,59.865z M89.253,69.383
		c1.674,0,2.878-0.295,3.611-0.885c0.733-0.588,1.101-1.473,1.101-2.648c0-0.785-0.124-1.406-0.372-1.861
		c-0.247-0.453-0.589-0.805-1.022-1.053s-0.936-0.408-1.503-0.48c-0.568-0.072-1.173-0.107-1.813-0.107h-5.89v7.037h5.889V69.383z
		 M90.741,79.52c1.302,0,2.319-0.35,3.053-1.053s1.102-1.676,1.102-2.914c0-0.725-0.136-1.322-0.403-1.799
		c-0.269-0.477-0.625-0.854-1.07-1.133c-0.444-0.277-0.956-0.475-1.533-0.588c-0.579-0.113-1.179-0.172-1.799-0.172h-6.727v7.658
		H90.741L90.741,79.52z"/>
	<path fill="#0190C5" d="M115.882,81.938c-0.455,0.27-1.085,0.404-1.891,0.404c-0.682,0-1.225-0.191-1.627-0.574
		c-0.403-0.383-0.604-1.008-0.604-1.875c-0.724,0.867-1.564,1.492-2.525,1.875s-2,0.574-3.116,0.574
		c-0.724,0-1.411-0.084-2.062-0.248c-0.651-0.166-1.215-0.424-1.689-0.775c-0.476-0.352-0.853-0.811-1.131-1.379
		c-0.279-0.568-0.418-1.256-0.418-2.063c0-0.908,0.155-1.652,0.465-2.232c0.31-0.578,0.718-1.049,1.225-1.41s1.085-0.635,1.736-0.82
		c0.651-0.188,1.317-0.342,2-0.465c0.723-0.145,1.411-0.254,2.063-0.326c0.65-0.072,1.225-0.176,1.721-0.311s0.888-0.33,1.178-0.588
		c0.289-0.26,0.435-0.637,0.435-1.133c0-0.578-0.108-1.043-0.326-1.396c-0.217-0.35-0.496-0.619-0.837-0.805
		c-0.342-0.188-0.725-0.311-1.147-0.373c-0.424-0.063-0.842-0.092-1.255-0.092c-1.116,0-2.046,0.211-2.79,0.635
		s-1.146,1.225-1.209,2.402h-2.635c0.042-0.992,0.248-1.828,0.62-2.512c0.372-0.682,0.868-1.234,1.487-1.658
		c0.62-0.424,1.328-0.729,2.123-0.914c0.795-0.188,1.648-0.279,2.559-0.279c0.723,0,1.44,0.053,2.154,0.156s1.358,0.313,1.938,0.633
		c0.578,0.32,1.043,0.77,1.395,1.346c0.352,0.578,0.527,1.33,0.527,2.258v8.23c0,0.619,0.036,1.072,0.108,1.361
		c0.071,0.287,0.314,0.432,0.729,0.432c0.228,0,0.496-0.041,0.807-0.123v2.045H115.882z M111.604,73.723
		c-0.331,0.248-0.766,0.428-1.303,0.541s-1.101,0.205-1.688,0.275c-0.589,0.072-1.184,0.156-1.783,0.248
		c-0.6,0.094-1.137,0.242-1.612,0.447s-0.862,0.498-1.162,0.879c-0.301,0.381-0.45,0.9-0.45,1.559c0,0.432,0.088,0.797,0.264,1.096
		c0.175,0.297,0.403,0.539,0.682,0.725c0.279,0.186,0.604,0.318,0.978,0.4s0.764,0.123,1.178,0.123c0.868,0,1.612-0.117,2.232-0.354
		s1.126-0.535,1.519-0.895c0.394-0.361,0.683-0.752,0.868-1.172c0.186-0.422,0.279-0.818,0.279-1.189V73.723z"/>
	<path fill="#0190C5" d="M125.088,84.139c-0.31,0.785-0.614,1.447-0.915,1.984c-0.3,0.537-0.63,0.977-0.991,1.316
		c-0.362,0.342-0.766,0.59-1.209,0.744c-0.445,0.154-0.956,0.232-1.535,0.232c-0.311,0-0.62-0.021-0.931-0.063
		c-0.31-0.041-0.608-0.113-0.898-0.217v-2.418c0.228,0.104,0.491,0.189,0.791,0.264c0.299,0.072,0.553,0.109,0.76,0.109
		c0.537,0,0.986-0.129,1.348-0.389s0.637-0.625,0.822-1.102l1.085-2.695l-6.354-15.936h2.976l4.681,13.113h0.063l4.495-13.113h2.79
		L125.088,84.139z"/>
	<path fill="#0190C5" d="M146.106,80.977c-1.199,0.91-2.708,1.365-4.526,1.365c-1.282,0-2.393-0.207-3.333-0.621
		c-0.94-0.412-1.73-0.992-2.372-1.736c-0.641-0.742-1.122-1.631-1.44-2.666c-0.321-1.033-0.501-2.158-0.542-3.379
		c0-1.219,0.186-2.334,0.558-3.348s0.894-1.891,1.565-2.635c0.671-0.744,1.467-1.322,2.387-1.736
		c0.919-0.412,1.927-0.619,3.021-0.619c1.427,0,2.609,0.295,3.551,0.883c0.939,0.59,1.693,1.338,2.263,2.248
		c0.568,0.91,0.961,1.902,1.178,2.977s0.306,2.098,0.264,3.068h-11.996c-0.021,0.703,0.062,1.369,0.248,2
		c0.186,0.631,0.484,1.188,0.898,1.674c0.413,0.486,0.94,0.873,1.581,1.162s1.396,0.436,2.263,0.436c1.116,0,2.031-0.26,2.744-0.775
		s1.184-1.303,1.41-2.355h2.604C148.08,78.715,147.305,80.066,146.106,80.977z M145.471,70.686
		c-0.238-0.559-0.559-1.039-0.962-1.441c-0.402-0.402-0.878-0.723-1.426-0.961c-0.548-0.236-1.151-0.355-1.813-0.355
		c-0.683,0-1.297,0.119-1.846,0.355c-0.548,0.238-1.018,0.563-1.41,0.977c-0.394,0.414-0.703,0.895-0.931,1.441
		s-0.361,1.131-0.402,1.752h9.207C145.848,71.832,145.708,71.242,145.471,70.686z"/>
	<path fill="#0190C5" d="M154.259,65.973v3.379h0.063c0.64-1.301,1.426-2.262,2.355-2.883c0.931-0.619,2.108-0.908,3.534-0.867
		v2.789c-1.054,0-1.953,0.145-2.696,0.436c-0.744,0.289-1.345,0.713-1.799,1.271c-0.454,0.557-0.785,1.234-0.991,2.029
		c-0.207,0.797-0.311,1.711-0.311,2.744V82h-2.635V65.973H154.259z"/>
	<path fill="#0190C5" d="M163.249,69.414v-3.441h3.441v3.441H163.249z M166.69,78.559V82h-3.441v-3.441H166.69z"/>
	<path fill="#0190C5" d="M192.342,62.889c-0.981-0.713-2.236-1.07-3.767-1.07c-0.62,0-1.229,0.063-1.829,0.188
		c-0.6,0.125-1.131,0.332-1.596,0.621c-0.465,0.287-0.837,0.676-1.116,1.16c-0.279,0.486-0.418,1.092-0.418,1.814
		c0,0.682,0.202,1.234,0.604,1.658s0.939,0.77,1.611,1.039c0.671,0.268,1.432,0.49,2.278,0.666s1.71,0.365,2.588,0.572
		s1.741,0.449,2.588,0.73c0.847,0.277,1.607,0.656,2.279,1.131c0.671,0.475,1.209,1.074,1.612,1.797
		c0.402,0.725,0.604,1.633,0.604,2.73c0,1.178-0.263,2.186-0.791,3.021c-0.527,0.836-1.204,1.52-2.03,2.045
		c-0.827,0.527-1.751,0.91-2.773,1.148c-1.023,0.236-2.042,0.355-3.055,0.355c-1.239,0-2.412-0.154-3.519-0.467
		c-1.106-0.309-2.077-0.779-2.914-1.41c-0.837-0.629-1.499-1.436-1.984-2.418c-0.485-0.98-0.729-2.143-0.729-3.486h2.79
		c0,0.93,0.181,1.73,0.542,2.402s0.837,1.225,1.426,1.658s1.276,0.754,2.063,0.961c0.784,0.207,1.591,0.311,2.418,0.311
		c0.662,0,1.328-0.063,2-0.188s1.275-0.334,1.813-0.635c0.537-0.299,0.971-0.707,1.302-1.225s0.496-1.178,0.496-1.984
		c0-0.766-0.202-1.383-0.604-1.859c-0.403-0.475-0.941-0.863-1.612-1.162s-1.431-0.543-2.278-0.729
		c-0.848-0.188-1.71-0.377-2.588-0.574c-0.879-0.195-1.74-0.424-2.588-0.682c-0.848-0.26-1.606-0.6-2.278-1.023
		c-0.673-0.424-1.209-0.971-1.612-1.643s-0.604-1.514-0.604-2.527c0-1.115,0.228-2.08,0.683-2.898
		c0.454-0.814,1.059-1.486,1.813-2.014s1.612-0.92,2.573-1.178s1.948-0.389,2.96-0.389c1.136,0,2.19,0.135,3.162,0.402
		c0.971,0.27,1.824,0.693,2.558,1.271c0.733,0.58,1.313,1.309,1.736,2.186c0.423,0.879,0.656,1.928,0.698,3.146h-2.79
		C193.897,64.754,193.324,63.602,192.342,62.889z"/>
	<path fill="#0190C5" d="M210.958,68.764c-0.662-0.559-1.55-0.838-2.666-0.838c-0.951,0-1.747,0.176-2.387,0.527
		s-1.152,0.816-1.534,1.395c-0.383,0.58-0.656,1.246-0.822,2s-0.248,1.535-0.248,2.34c0,0.744,0.089,1.469,0.265,2.17
		c0.175,0.703,0.45,1.328,0.822,1.877c0.371,0.547,0.856,0.986,1.457,1.316c0.599,0.332,1.312,0.496,2.139,0.496
		c1.302,0,2.32-0.342,3.054-1.023s1.184-1.643,1.348-2.883h2.697c-0.29,1.984-1.027,3.514-2.216,4.588
		c-1.188,1.076-2.806,1.613-4.852,1.613c-1.221,0-2.3-0.197-3.24-0.59c-0.941-0.393-1.727-0.949-2.356-1.674
		c-0.631-0.725-1.105-1.586-1.426-2.59c-0.321-1.002-0.479-2.102-0.479-3.301s0.154-2.32,0.465-3.363
		c0.31-1.043,0.779-1.953,1.411-2.729c0.63-0.775,1.42-1.385,2.37-1.828c0.951-0.445,2.057-0.668,3.317-0.668
		c0.909,0,1.762,0.107,2.557,0.326c0.796,0.217,1.499,0.553,2.108,1.008s1.11,1.027,1.503,1.721c0.393,0.691,0.64,1.514,0.744,2.465
		h-2.728C212.053,70.105,211.619,69.32,210.958,68.764z"/>
	<path fill="#0190C5" d="M218.646,63.09v-3.225h2.635v3.225H218.646z M221.28,65.973V82h-2.635V65.973H221.28z"/>
	<path fill="#0190C5" d="M237.183,80.977c-1.199,0.91-2.708,1.365-4.526,1.365c-1.282,0-2.393-0.207-3.333-0.621
		c-0.941-0.412-1.731-0.992-2.372-1.736c-0.641-0.742-1.122-1.631-1.44-2.666c-0.321-1.033-0.502-2.158-0.542-3.379
		c0-1.219,0.186-2.334,0.558-3.348s0.894-1.891,1.564-2.635c0.672-0.744,1.468-1.322,2.388-1.736
		c0.919-0.412,1.927-0.619,3.021-0.619c1.426,0,2.609,0.295,3.55,0.883c0.94,0.59,1.694,1.338,2.264,2.248
		c0.567,0.91,0.961,1.902,1.178,2.977s0.305,2.098,0.263,3.068h-11.997c-0.021,0.703,0.063,1.369,0.248,2
		c0.187,0.631,0.485,1.188,0.899,1.674c0.413,0.486,0.94,0.873,1.581,1.162s1.395,0.436,2.263,0.436c1.116,0,2.031-0.26,2.744-0.775
		s1.183-1.303,1.41-2.355h2.604C239.156,78.715,238.381,80.066,237.183,80.977z M236.547,70.686
		c-0.237-0.559-0.558-1.039-0.961-1.441c-0.402-0.402-0.878-0.723-1.426-0.961c-0.548-0.236-1.152-0.355-1.813-0.355
		c-0.683,0-1.298,0.119-1.846,0.355c-0.548,0.238-1.018,0.563-1.411,0.977c-0.393,0.414-0.702,0.895-0.93,1.441
		s-0.362,1.131-0.403,1.752h9.207C236.924,71.832,236.784,71.242,236.547,70.686z"/>
	<path fill="#0190C5" d="M245.428,65.973v2.543h0.062c1.095-1.943,2.831-2.914,5.208-2.914c1.054,0,1.932,0.145,2.635,0.434
		c0.702,0.289,1.271,0.693,1.705,1.209c0.435,0.518,0.738,1.133,0.914,1.846s0.264,1.504,0.264,2.371V82h-2.635V71.148
		c0-0.99-0.29-1.775-0.868-2.354c-0.579-0.578-1.375-0.869-2.387-0.869c-0.806,0-1.503,0.125-2.092,0.373s-1.08,0.6-1.473,1.053
		c-0.394,0.455-0.688,0.988-0.884,1.598s-0.294,1.275-0.294,2V82h-2.635V65.973H245.428z"/>
	<path fill="#0190C5" d="M270.228,68.764c-0.662-0.559-1.55-0.838-2.666-0.838c-0.951,0-1.747,0.176-2.388,0.527
		c-0.64,0.352-1.151,0.816-1.533,1.395c-0.384,0.58-0.656,1.246-0.822,2s-0.248,1.535-0.248,2.34c0,0.744,0.088,1.469,0.264,2.17
		c0.175,0.703,0.45,1.328,0.822,1.877c0.372,0.547,0.857,0.986,1.457,1.316c0.599,0.332,1.312,0.496,2.139,0.496
		c1.303,0,2.32-0.342,3.055-1.023c0.732-0.682,1.183-1.643,1.348-2.883h2.697c-0.29,1.984-1.028,3.514-2.216,4.588
		c-1.189,1.076-2.807,1.613-4.853,1.613c-1.22,0-2.299-0.197-3.24-0.59c-0.94-0.393-1.726-0.949-2.355-1.674
		c-0.631-0.725-1.106-1.586-1.426-2.59c-0.321-1.002-0.48-2.102-0.48-3.301s0.155-2.32,0.465-3.363
		c0.311-1.043,0.78-1.953,1.411-2.729c0.63-0.775,1.42-1.385,2.371-1.828c0.951-0.445,2.056-0.668,3.317-0.668
		c0.908,0,1.762,0.107,2.557,0.326c0.795,0.217,1.499,0.553,2.108,1.008c0.608,0.455,1.109,1.027,1.503,1.721
		c0.392,0.691,0.64,1.514,0.743,2.465h-2.728C271.323,70.105,270.889,69.32,270.228,68.764z"/>
	<path fill="#0190C5" d="M289.106,80.977c-1.199,0.91-2.708,1.365-4.526,1.365c-1.282,0-2.393-0.207-3.333-0.621
		c-0.94-0.412-1.73-0.992-2.372-1.736c-0.641-0.742-1.122-1.631-1.44-2.666c-0.321-1.033-0.501-2.158-0.542-3.379
		c0-1.219,0.186-2.334,0.558-3.348s0.895-1.891,1.565-2.635s1.467-1.322,2.387-1.736c0.919-0.412,1.927-0.619,3.021-0.619
		c1.427,0,2.609,0.295,3.551,0.883c0.939,0.59,1.693,1.338,2.263,2.248c0.568,0.91,0.961,1.902,1.178,2.977s0.306,2.098,0.264,3.068
		h-11.997c-0.021,0.703,0.062,1.369,0.248,2c0.186,0.631,0.484,1.188,0.898,1.674c0.413,0.486,0.94,0.873,1.581,1.162
		s1.396,0.436,2.263,0.436c1.116,0,2.031-0.26,2.744-0.775s1.184-1.303,1.41-2.355h2.604
		C291.08,78.715,290.305,80.066,289.106,80.977z M288.471,70.686c-0.238-0.559-0.559-1.039-0.962-1.441
		c-0.402-0.402-0.878-0.723-1.426-0.961c-0.548-0.236-1.151-0.355-1.813-0.355c-0.683,0-1.297,0.119-1.846,0.355
		c-0.548,0.238-1.018,0.563-1.41,0.977c-0.394,0.414-0.703,0.895-0.931,1.441s-0.361,1.131-0.402,1.752h9.207
		C288.848,71.832,288.708,71.242,288.471,70.686z"/>
	<path fill="#0190C5" d="M318.928,59.865v2.48h-11.595v7.037h10.168v2.479h-10.168V82h-2.944V59.865H318.928z"/>
	<path fill="#0190C5" d="M321.841,70.699c0.331-1.021,0.827-1.91,1.488-2.666c0.661-0.754,1.478-1.348,2.449-1.781
		c0.971-0.436,2.087-0.65,3.348-0.65c1.281,0,2.402,0.217,3.364,0.65c0.961,0.434,1.771,1.027,2.433,1.781
		c0.661,0.756,1.157,1.645,1.488,2.666c0.33,1.023,0.496,2.125,0.496,3.303s-0.166,2.273-0.496,3.285
		c-0.331,1.014-0.827,1.896-1.488,2.65c-0.661,0.756-1.472,1.344-2.433,1.768s-2.083,0.637-3.364,0.637
		c-1.261,0-2.377-0.213-3.348-0.637c-0.972-0.424-1.788-1.012-2.449-1.768c-0.662-0.754-1.158-1.637-1.488-2.65
		c-0.33-1.012-0.495-2.107-0.495-3.285S321.51,71.725,321.841,70.699z M324.523,76.59c0.258,0.756,0.615,1.385,1.068,1.893
		c0.454,0.506,0.987,0.895,1.598,1.162c0.608,0.268,1.255,0.402,1.938,0.402c0.684,0,1.328-0.135,1.938-0.402
		c0.608-0.27,1.142-0.656,1.597-1.162c0.454-0.508,0.812-1.137,1.069-1.893c0.258-0.754,0.388-1.615,0.388-2.588
		s-0.129-1.834-0.388-2.59c-0.259-0.754-0.615-1.389-1.069-1.904c-0.455-0.518-0.987-0.91-1.597-1.18
		c-0.61-0.268-1.255-0.402-1.938-0.402c-0.683,0-1.328,0.135-1.938,0.402c-0.61,0.27-1.143,0.662-1.598,1.18
		c-0.454,0.516-0.811,1.15-1.068,1.904c-0.259,0.756-0.389,1.617-0.389,2.59S324.264,75.836,324.523,76.59z"/>
	<path fill="#0190C5" d="M342.859,65.973v3.379h0.062c0.641-1.301,1.427-2.262,2.356-2.883c0.93-0.619,2.107-0.908,3.534-0.867
		v2.789c-1.055,0-1.953,0.145-2.697,0.436c-0.744,0.289-1.344,0.713-1.798,1.271c-0.455,0.557-0.786,1.234-0.992,2.029
		c-0.207,0.797-0.31,1.711-0.31,2.744V82h-2.636V65.973H342.859z"/>
	<path fill="#0190C5" d="M370.046,59.865L378.695,82h-3.255l-2.418-6.664h-9.362L361.18,82h-3.008l8.618-22.135H370.046z
		 M372.092,72.854l-3.688-10.322h-0.063l-3.751,10.322H372.092z"/>
	<path fill="#0190C5" d="M398.442,59.865c0.476,0,0.987,0.006,1.535,0.016c0.547,0.012,1.09,0.043,1.627,0.094
		s1.039,0.129,1.503,0.23c0.465,0.105,0.863,0.26,1.193,0.467c0.724,0.434,1.339,1.031,1.845,1.797s0.76,1.705,0.76,2.82
		c0,1.18-0.285,2.197-0.854,3.055s-1.379,1.494-2.434,1.906v0.063c1.364,0.289,2.407,0.91,3.131,1.859
		c0.724,0.951,1.085,2.107,1.085,3.473c0,0.807-0.145,1.592-0.434,2.355s-0.718,1.441-1.286,2.029
		c-0.569,0.59-1.271,1.064-2.108,1.426c-0.837,0.363-1.804,0.543-2.898,0.543h-10.695V59.865H398.442L398.442,59.865z
		 M399.248,69.383c1.674,0,2.878-0.295,3.611-0.885c0.732-0.588,1.101-1.473,1.101-2.648c0-0.785-0.124-1.406-0.372-1.861
		c-0.248-0.453-0.589-0.805-1.022-1.053c-0.435-0.248-0.936-0.408-1.503-0.48c-0.568-0.072-1.173-0.107-1.813-0.107h-5.89v7.037
		h5.889V69.383z M400.736,79.52c1.302,0,2.319-0.35,3.053-1.053s1.102-1.676,1.102-2.914c0-0.725-0.136-1.322-0.403-1.799
		c-0.27-0.477-0.625-0.854-1.07-1.133c-0.444-0.277-0.956-0.475-1.534-0.588s-1.178-0.172-1.798-0.172h-6.727v7.658H400.736
		L400.736,79.52z"/>
	<path fill="#0190C5" d="M423.025,80.977c-1.199,0.91-2.708,1.365-4.526,1.365c-1.282,0-2.393-0.207-3.333-0.621
		c-0.94-0.412-1.73-0.992-2.372-1.736c-0.641-0.742-1.122-1.631-1.44-2.666c-0.321-1.033-0.501-2.158-0.542-3.379
		c0-1.219,0.186-2.334,0.558-3.348s0.895-1.891,1.565-2.635s1.467-1.322,2.387-1.736c0.919-0.412,1.927-0.619,3.021-0.619
		c1.427,0,2.609,0.295,3.551,0.883c0.939,0.59,1.693,1.338,2.263,2.248c0.568,0.91,0.961,1.902,1.178,2.977s0.306,2.098,0.264,3.068
		H413.6c-0.021,0.703,0.062,1.369,0.248,2c0.186,0.631,0.484,1.188,0.898,1.674c0.413,0.486,0.94,0.873,1.581,1.162
		s1.396,0.436,2.263,0.436c1.116,0,2.031-0.26,2.744-0.775s1.184-1.303,1.41-2.355h2.604
		C424.998,78.715,424.223,80.066,423.025,80.977z M422.389,70.686c-0.238-0.559-0.559-1.039-0.961-1.441
		c-0.403-0.402-0.879-0.723-1.427-0.961c-0.548-0.236-1.151-0.355-1.813-0.355c-0.683,0-1.297,0.119-1.845,0.355
		c-0.549,0.238-1.019,0.563-1.411,0.977c-0.394,0.414-0.703,0.895-0.931,1.441s-0.361,1.131-0.402,1.752h9.207
		C422.766,71.832,422.626,71.242,422.389,70.686z"/>
	<path fill="#0190C5" d="M435.641,65.973v2.326h-3.193v9.949c0,0.311,0.025,0.559,0.078,0.744c0.051,0.188,0.148,0.33,0.294,0.436
		c0.144,0.104,0.346,0.17,0.604,0.201c0.259,0.029,0.595,0.047,1.008,0.047h1.209V82h-2.016c-0.682,0-1.266-0.047-1.751-0.141
		c-0.485-0.092-0.878-0.264-1.178-0.512s-0.522-0.6-0.667-1.053c-0.146-0.455-0.217-1.055-0.217-1.799V68.297h-2.729v-2.324h2.729
		v-4.807h2.635v4.807H435.641L435.641,65.973z"/>
	<path fill="#0190C5" d="M445.871,65.973v2.326h-3.192v9.949c0,0.311,0.024,0.559,0.077,0.744c0.052,0.188,0.149,0.33,0.294,0.436
		c0.145,0.104,0.347,0.17,0.604,0.201c0.258,0.029,0.594,0.047,1.007,0.047h1.209V82h-2.015c-0.683,0-1.267-0.047-1.751-0.141
		c-0.486-0.092-0.878-0.264-1.179-0.512c-0.3-0.248-0.521-0.6-0.667-1.053c-0.145-0.455-0.217-1.055-0.217-1.799V68.297h-2.728
		v-2.324h2.728v-4.807h2.635v4.807H445.871L445.871,65.973z"/>
	<path fill="#0190C5" d="M460.595,80.977c-1.198,0.91-2.707,1.365-4.525,1.365c-1.282,0-2.394-0.207-3.333-0.621
		c-0.941-0.412-1.731-0.992-2.372-1.736c-0.641-0.742-1.122-1.631-1.441-2.666c-0.32-1.033-0.501-2.158-0.542-3.379
		c0-1.219,0.187-2.334,0.559-3.348s0.894-1.891,1.564-2.635s1.468-1.322,2.388-1.736c0.919-0.412,1.927-0.619,3.021-0.619
		c1.426,0,2.609,0.295,3.55,0.883c0.94,0.59,1.694,1.338,2.263,2.248s0.961,1.902,1.179,2.977c0.217,1.074,0.305,2.098,0.263,3.068
		h-11.997c-0.021,0.703,0.063,1.369,0.248,2c0.187,0.631,0.485,1.188,0.899,1.674c0.413,0.486,0.939,0.873,1.581,1.162
		c0.641,0.289,1.395,0.436,2.263,0.436c1.116,0,2.031-0.26,2.744-0.775s1.183-1.303,1.41-2.355h2.604
		C462.569,78.715,461.794,80.066,460.595,80.977z M459.96,70.686c-0.238-0.559-0.558-1.039-0.961-1.441s-0.878-0.723-1.426-0.961
		c-0.548-0.236-1.152-0.355-1.813-0.355c-0.682,0-1.297,0.119-1.845,0.355c-0.548,0.238-1.018,0.563-1.411,0.977
		c-0.393,0.414-0.703,0.895-0.93,1.441c-0.228,0.547-0.362,1.131-0.403,1.752h9.207C460.337,71.832,460.197,71.242,459.96,70.686z"
		/>
	<path fill="#0190C5" d="M468.748,65.973v3.379h0.062c0.641-1.301,1.427-2.262,2.356-2.883c0.93-0.619,2.108-0.908,3.534-0.867
		v2.789c-1.054,0-1.953,0.145-2.697,0.436c-0.744,0.289-1.344,0.713-1.798,1.271c-0.455,0.557-0.786,1.234-0.992,2.029
		c-0.207,0.797-0.31,1.711-0.31,2.744V82h-2.636V65.973H468.748z"/>
	<path fill="#0190C5" d="M489.611,59.865V79.52h11.718V82h-14.663V59.865H489.611z"/>
	<path fill="#0190C5" d="M504.088,63.09v-3.225h2.636v3.225H504.088z M506.723,65.973V82h-2.636V65.973H506.723z"/>
	<path fill="#0190C5" d="M509.667,68.299v-2.326h2.697v-2.387c0-1.303,0.377-2.289,1.131-2.961c0.755-0.672,1.854-1.008,3.302-1.008
		c0.248,0,0.532,0.021,0.854,0.063c0.32,0.041,0.604,0.104,0.853,0.186v2.295c-0.228-0.084-0.476-0.141-0.744-0.172
		c-0.268-0.029-0.517-0.047-0.744-0.047c-0.641,0-1.137,0.125-1.486,0.373c-0.354,0.248-0.527,0.723-0.527,1.426v2.232h3.1v2.324
		h-3.1V82h-2.635V68.299H509.667z"/>
	<path fill="#0190C5" d="M532.265,80.977c-1.198,0.91-2.708,1.365-4.525,1.365c-1.281,0-2.393-0.207-3.332-0.621
		c-0.94-0.412-1.731-0.992-2.372-1.736c-0.642-0.742-1.121-1.631-1.441-2.666c-0.319-1.033-0.501-2.158-0.542-3.379
		c0-1.219,0.187-2.334,0.559-3.348s0.894-1.891,1.564-2.635s1.468-1.322,2.389-1.736c0.919-0.412,1.927-0.619,3.021-0.619
		c1.426,0,2.608,0.295,3.549,0.883c0.941,0.59,1.694,1.338,2.265,2.248c0.566,0.91,0.961,1.902,1.178,2.977s0.305,2.098,0.264,3.068
		h-11.997c-0.021,0.703,0.063,1.369,0.248,2c0.187,0.631,0.485,1.188,0.898,1.674s0.939,0.873,1.581,1.162
		c0.641,0.289,1.396,0.436,2.264,0.436c1.115,0,2.03-0.26,2.743-0.775s1.183-1.303,1.41-2.355h2.604
		C534.239,78.715,533.464,80.066,532.265,80.977z M531.63,70.686c-0.237-0.559-0.558-1.039-0.961-1.441s-0.879-0.723-1.426-0.961
		c-0.548-0.236-1.152-0.355-1.813-0.355c-0.683,0-1.297,0.119-1.845,0.355c-0.548,0.238-1.019,0.563-1.41,0.977
		c-0.394,0.414-0.703,0.895-0.931,1.441c-0.229,0.547-0.361,1.131-0.402,1.752h9.207C532.007,71.832,531.867,71.242,531.63,70.686z"
		/>
</g>
</svg>
