<?xml version="1.0" encoding="utf-8"?>
<!-- Generator: Adobe Illustrator 15.1.0, SVG Export Plug-In . SVG Version: 6.00 Build 0)  -->
<!DOCTYPE svg PUBLIC "-//W3C//DTD SVG 1.1//EN" "http://www.w3.org/Graphics/SVG/1.1/DTD/svg11.dtd">
<svg version="1.1" id="Ebene_2" xmlns="http://www.w3.org/2000/svg" xmlns:xlink="http://www.w3.org/1999/xlink" x="0px" y="0px"
	 width="300px" height="60px" viewBox="0 0 300 60" enable-background="new 0 0 300 60" xml:space="preserve">
<g>
	<path fill="#339900" d="M109.346,46.838c0,1.043-0.773,1.567-2.318,1.567c-1.556,0-2.333-0.523-2.333-1.567V44.17
		c-0.107,0.02-0.196,0.031-0.271,0.031c-0.341,0-0.628-0.122-0.862-0.358c-0.235-0.239-0.352-0.53-0.352-0.873
		c0-0.331,0.117-0.613,0.352-0.847c0.234-0.233,0.521-0.351,0.862-0.351c0.363,0,0.663,0.123,0.903,0.366
		c0.24,0.244,0.359,0.554,0.359,0.927v3.775c0,0.213,0.145,0.385,0.432,0.512c0.288,0.127,0.591,0.192,0.911,0.192
		c0.31,0,0.608-0.065,0.895-0.192c0.288-0.125,0.432-0.296,0.432-0.513v-7.497h0.991V46.838L109.346,46.838z M104.967,42.986
		c0-0.148-0.054-0.275-0.16-0.383c-0.107-0.105-0.234-0.16-0.384-0.16c-0.148,0-0.277,0.055-0.383,0.16
		c-0.106,0.107-0.16,0.236-0.16,0.383c0,0.151,0.053,0.277,0.16,0.385c0.106,0.105,0.235,0.158,0.383,0.158
		c0.149,0,0.277-0.053,0.384-0.158C104.914,43.263,104.967,43.137,104.967,42.986z"/>
	<path fill="#339900" d="M114.493,47.207c0,0.341-0.121,0.625-0.36,0.854c-0.239,0.229-0.529,0.345-0.871,0.345
		s-0.631-0.118-0.871-0.351c-0.24-0.236-0.36-0.522-0.36-0.863s0.12-0.629,0.36-0.864c0.239-0.233,0.529-0.35,0.871-0.35
		c0.127,0,0.207,0.004,0.24,0.015v-1.374c0-0.171-0.354-0.34-1.063-0.504c-0.709-0.165-1.351-0.294-1.926-0.392
		c0.021-0.586,0.175-1.058,0.463-1.413c0.288-0.358,0.703-0.537,1.246-0.537c0.224,0,0.53,0.052,0.919,0.152
		c0.389,0.101,0.668,0.153,0.839,0.153c0.181,0,0.282-0.119,0.304-0.352l0.783,0.208c-0.191,0.653-0.543,0.976-1.055,0.976
		c-0.191,0-0.466-0.043-0.824-0.135c-0.356-0.091-0.625-0.137-0.806-0.137c-0.469,0-0.735,0.178-0.8,0.527
		c0.82,0.173,1.511,0.352,2.07,0.543c0.56,0.19,0.839,0.521,0.839,0.989V47.207L114.493,47.207z M113.806,47.192
		c0-0.15-0.055-0.276-0.163-0.384c-0.108-0.105-0.237-0.16-0.388-0.16c-0.152,0-0.281,0.055-0.389,0.16
		c-0.109,0.107-0.162,0.237-0.162,0.384c0,0.148,0.053,0.276,0.162,0.384c0.107,0.105,0.237,0.158,0.389,0.158
		c0.151,0,0.28-0.053,0.388-0.158C113.751,47.468,113.806,47.338,113.806,47.192z"/>
	<path fill="#339900" d="M120.247,41.933c-0.053,1.692-0.847,2.538-2.381,2.538c-0.64,0-1.13-0.129-1.471-0.392
		c-0.34-0.262-0.511-0.596-0.511-0.999c0-0.309,0.107-0.568,0.319-0.782c0.214-0.214,0.474-0.318,0.784-0.318
		c0.331,0,0.599,0.108,0.807,0.325c0.208,0.219,0.312,0.479,0.312,0.775c0,0.29-0.08,0.5-0.24,0.641
		c0.991-0.043,1.486-0.641,1.486-1.791h0.895V41.933z M120.247,45.561c-0.053,1.694-0.847,2.54-2.381,2.54
		c-0.64,0-1.13-0.13-1.471-0.392c-0.34-0.262-0.511-0.596-0.511-0.999c0-0.309,0.107-0.569,0.319-0.783
		c0.214-0.213,0.474-0.319,0.784-0.319c0.331,0,0.599,0.108,0.807,0.327c0.208,0.219,0.312,0.477,0.312,0.774
		c0,0.287-0.08,0.501-0.24,0.641c0.991-0.044,1.486-0.641,1.486-1.791h0.895V45.561z M117.465,43.085
		c0-0.141-0.047-0.258-0.143-0.354c-0.097-0.096-0.213-0.143-0.352-0.143s-0.253,0.047-0.344,0.143
		c-0.091,0.097-0.136,0.213-0.136,0.354c0,0.137,0.045,0.251,0.136,0.343s0.205,0.136,0.344,0.136s0.255-0.044,0.352-0.136
		C117.417,43.336,117.465,43.222,117.465,43.085z M117.465,46.711c0-0.138-0.047-0.258-0.143-0.351
		c-0.097-0.097-0.213-0.146-0.352-0.146s-0.253,0.048-0.344,0.146c-0.091,0.097-0.136,0.213-0.136,0.351
		c0,0.14,0.045,0.253,0.136,0.344s0.205,0.137,0.344,0.137s0.255-0.046,0.352-0.137C117.417,46.964,117.465,46.851,117.465,46.711z"
		/>
	<path fill="#339900" d="M124.114,47.192c0,0.341-0.121,0.627-0.359,0.863c-0.239,0.235-0.525,0.351-0.854,0.351
		c-0.362,0-0.667-0.124-0.912-0.368s-0.367-0.555-0.367-0.927v-5.212h0.991v4.108c0.053-0.021,0.149-0.033,0.288-0.033
		c0.33,0,0.615,0.12,0.854,0.353C123.994,46.561,124.114,46.851,124.114,47.192z M123.443,47.192c0-0.15-0.055-0.276-0.161-0.384
		c-0.105-0.105-0.233-0.16-0.383-0.16s-0.277,0.055-0.384,0.16c-0.106,0.107-0.159,0.237-0.159,0.384
		c0,0.148,0.053,0.276,0.159,0.384c0.107,0.105,0.235,0.158,0.384,0.158s0.278-0.053,0.383-0.158
		C123.389,47.468,123.443,47.338,123.443,47.192z"/>
	<path fill="#339900" d="M130.363,48.278h-0.99v-5.162c0-0.331-0.08-0.495-0.239-0.495c-0.138,0-0.236,0.079-0.289,0.238
		l-1.901,5.419h-1.12V44.17c-0.104,0.021-0.197,0.031-0.27,0.031c-0.342,0-0.629-0.12-0.863-0.358
		c-0.235-0.238-0.352-0.53-0.352-0.872c0-0.33,0.119-0.613,0.352-0.847c0.234-0.235,0.521-0.351,0.863-0.351
		c0.362,0,0.664,0.122,0.902,0.368c0.238,0.244,0.359,0.553,0.359,0.926v2.381c0,0.363-0.065,0.931-0.192,1.695
		c0.117-0.47,0.265-0.989,0.447-1.567l0.896-2.845c0.202-0.648,0.601-0.969,1.198-0.957c0.8,0.013,1.2,0.464,1.2,1.358
		L130.363,48.278L130.363,48.278z M126.096,42.986c0-0.148-0.054-0.275-0.161-0.383c-0.105-0.105-0.234-0.16-0.382-0.16
		c-0.15,0-0.276,0.055-0.383,0.16c-0.107,0.107-0.159,0.236-0.159,0.383c0,0.151,0.052,0.277,0.159,0.385
		c0.107,0.105,0.235,0.158,0.383,0.158c0.151,0,0.277-0.053,0.382-0.158C126.042,43.263,126.096,43.137,126.096,42.986z"/>
	<path fill="#339900" d="M136.804,48.278h-0.991v-4.351c0-0.381-0.166-0.7-0.495-0.957c-0.31-0.222-0.666-0.335-1.071-0.335
		c-0.479,0-0.863,0.16-1.151,0.482c-0.288,0.319-0.431,0.692-0.431,1.119c0,0.118,0.024,0.312,0.071,0.582
		c0.048,0.271,0.072,0.51,0.072,0.712v0.415c0-0.042,0.014-0.15,0.041-0.318c0.026-0.171,0.056-0.336,0.088-0.496
		c0.106-0.447,0.265-0.825,0.481-1.135c0.287-0.373,0.612-0.56,0.975-0.56c0.288,0,0.539,0.1,0.751,0.304
		c0.212,0.203,0.319,0.448,0.319,0.736c0,0.275-0.106,0.519-0.319,0.727c-0.213,0.208-0.463,0.312-0.751,0.312
		c-0.266,0-0.507-0.098-0.719-0.288c-0.319,0.97-0.48,1.986-0.48,3.053h-0.99v-1.022c0-0.502-0.087-1.046-0.264-1.639
		c-0.177-0.592-0.263-1.058-0.263-1.398c0-0.735,0.265-1.333,0.799-1.791c0.501-0.435,1.119-0.652,1.853-0.652
		c0.415,0,0.819,0.085,1.215,0.257c0.244-0.181,0.367-0.436,0.367-0.767h1.12c-0.127,0.586-0.375,1.017-0.736,1.294
		c0.341,0.395,0.513,0.856,0.513,1.391L136.804,48.278L136.804,48.278z M134.87,44.475c0-0.14-0.047-0.257-0.144-0.353
		s-0.212-0.143-0.35-0.143c-0.139,0-0.254,0.047-0.345,0.143c-0.091,0.098-0.136,0.213-0.136,0.353c0,0.138,0.045,0.252,0.136,0.346
		c0.091,0.09,0.207,0.133,0.345,0.133c0.137,0,0.255-0.043,0.35-0.133C134.822,44.727,134.87,44.613,134.87,44.475z"/>
	<path fill="#339900" d="M141.583,47.192c0,0.341-0.12,0.627-0.36,0.863c-0.239,0.235-0.525,0.351-0.854,0.351
		c-0.363,0-0.666-0.124-0.911-0.368c-0.245-0.244-0.369-0.555-0.369-0.927v-7.896l-0.958,1.407l-0.639-0.192
		c-0.042-1.002-0.191-1.934-0.447-2.797h0.862c0.126,0.844,0.197,1.477,0.209,1.9l1.135-1.772c0.212,0.032,0.403,0.132,0.576,0.303
		c0.17,0.172,0.255,0.374,0.255,0.607v7.337c0.053-0.021,0.149-0.033,0.289-0.033c0.329,0,0.615,0.12,0.854,0.353
		C141.463,46.562,141.583,46.851,141.583,47.192z M140.912,47.192c0-0.15-0.053-0.276-0.16-0.384
		c-0.104-0.105-0.235-0.16-0.382-0.16c-0.149,0-0.276,0.055-0.384,0.16c-0.106,0.107-0.158,0.237-0.158,0.384
		c0,0.148,0.052,0.276,0.158,0.384c0.107,0.105,0.236,0.158,0.384,0.158c0.148,0,0.278-0.053,0.382-0.158
		C140.858,47.468,140.912,47.338,140.912,47.192z"/>
	<path fill="#339900" d="M147.833,48.278h-0.991v-5.162c0-0.331-0.08-0.495-0.239-0.495c-0.139,0-0.236,0.079-0.289,0.238
		l-1.901,5.419h-1.12V44.17c-0.106,0.021-0.197,0.031-0.271,0.031c-0.342,0-0.627-0.12-0.863-0.358
		c-0.235-0.238-0.351-0.53-0.351-0.872c0-0.33,0.118-0.613,0.351-0.847c0.236-0.235,0.521-0.351,0.863-0.351
		c0.362,0,0.664,0.122,0.902,0.368c0.239,0.244,0.359,0.553,0.359,0.926v2.381c0,0.363-0.065,0.931-0.191,1.695
		c0.117-0.47,0.265-0.989,0.447-1.567l0.896-2.845c0.203-0.648,0.601-0.969,1.199-0.957c0.799,0.013,1.2,0.464,1.2,1.358
		L147.833,48.278L147.833,48.278z M143.564,42.986c0-0.148-0.053-0.275-0.159-0.383c-0.106-0.105-0.235-0.16-0.383-0.16
		c-0.15,0-0.277,0.055-0.383,0.16c-0.105,0.107-0.159,0.236-0.159,0.383c0,0.151,0.054,0.277,0.159,0.385
		c0.106,0.105,0.235,0.158,0.383,0.158c0.151,0,0.277-0.053,0.383-0.158C143.511,43.263,143.564,43.137,143.564,42.986z"/>
	<path fill="#339900" d="M154.001,46.665c0,1.16-0.79,1.741-2.366,1.741c-1.567,0-2.349-0.581-2.349-1.741v-0.735
		c0-0.513,0.214-0.875,0.644-1.089c-0.484-0.329-0.723-0.814-0.723-1.454c0-0.468,0.129-0.854,0.391-1.159
		c0.262-0.303,0.622-0.454,1.08-0.454c0.318,0,0.592,0.097,0.814,0.294c0.224,0.199,0.337,0.457,0.337,0.775
		c0,0.289-0.103,0.539-0.31,0.751c-0.203,0.212-0.472,0.318-0.806,0.318c-0.172,0-0.321-0.026-0.452-0.079
		c0.085,0.405,0.277,0.607,0.575,0.607h1.135v0.784h-1.135c-0.171,0-0.31,0.072-0.417,0.223c-0.105,0.149-0.159,0.317-0.159,0.507
		v0.732c0,0.57,0.457,0.857,1.367,0.857c0.922,0,1.383-0.288,1.383-0.861v-4.783h0.989V46.665L154.001,46.665z M151.236,42.86
		c0-0.149-0.048-0.271-0.146-0.368c-0.097-0.096-0.222-0.145-0.375-0.145c-0.153,0-0.274,0.049-0.375,0.145
		c-0.097,0.098-0.146,0.219-0.146,0.368s0.048,0.271,0.146,0.368c0.098,0.098,0.222,0.145,0.375,0.145
		c0.152,0,0.276-0.047,0.375-0.145C151.188,43.131,151.236,43.009,151.236,42.86z"/>
</g>
<g>
	<path fill="#0090C5" d="M15.504,29.649c0,0.4-0.141,0.739-0.422,1.014c-0.282,0.275-0.617,0.414-1.004,0.414
		c-0.426,0-0.783-0.144-1.071-0.432c-0.289-0.289-0.432-0.652-0.432-1.09v-9.276l-1.126,1.653l-0.751-0.226
		c-0.05-1.176-0.225-2.272-0.526-3.286h1.014c0.15,0.989,0.231,1.733,0.244,2.234l1.333-2.085c0.25,0.039,0.475,0.157,0.676,0.357
		c0.2,0.201,0.301,0.438,0.301,0.714v8.619c0.062-0.025,0.175-0.038,0.338-0.038c0.388,0,0.723,0.137,1.004,0.413
		C15.363,28.91,15.504,29.249,15.504,29.649z M14.715,29.649c0-0.175-0.062-0.326-0.188-0.45c-0.125-0.125-0.276-0.188-0.451-0.188
		c-0.176,0-0.326,0.063-0.451,0.188c-0.125,0.124-0.188,0.275-0.188,0.45c0,0.176,0.062,0.326,0.188,0.451
		c0.125,0.124,0.276,0.188,0.451,0.188c0.175,0,0.326-0.063,0.451-0.188C14.653,29.974,14.715,29.825,14.715,29.649z"/>
	<path fill="#0090C5" d="M22.978,29.235c0,1.227-0.908,1.841-2.723,1.841c-1.828,0-2.742-0.614-2.742-1.841V26.1
		c-0.125,0.025-0.231,0.038-0.319,0.038c-0.401,0-0.739-0.141-1.015-0.422c-0.275-0.282-0.413-0.623-0.413-1.023
		c0-0.388,0.138-0.72,0.413-0.996c0.275-0.275,0.613-0.413,1.015-0.413c0.425,0,0.779,0.143,1.061,0.43
		c0.281,0.288,0.422,0.65,0.422,1.086v4.438c0,0.25,0.168,0.45,0.507,0.6c0.338,0.15,0.695,0.224,1.071,0.224
		c0.363,0,0.713-0.074,1.051-0.224s0.507-0.35,0.507-0.6v-5.805h1.165V29.235z M17.833,24.709c0-0.174-0.063-0.325-0.188-0.451
		c-0.125-0.125-0.276-0.187-0.451-0.187c-0.175,0-0.325,0.062-0.451,0.187c-0.125,0.126-0.188,0.276-0.188,0.451
		c0,0.176,0.063,0.326,0.188,0.451c0.125,0.125,0.275,0.188,0.451,0.188c0.175,0,0.325-0.062,0.451-0.188
		C17.77,25.036,17.833,24.886,17.833,24.709z"/>
	<path fill="#0090C5" d="M27.766,29.649c0,0.4-0.141,0.739-0.422,1.014c-0.282,0.276-0.617,0.414-1.005,0.414
		c-0.425,0-0.782-0.144-1.07-0.432c-0.289-0.289-0.432-0.652-0.432-1.09v-6.122H26v4.827c0.063-0.025,0.175-0.038,0.338-0.038
		c0.389,0,0.723,0.137,1.005,0.413C27.625,28.91,27.766,29.249,27.766,29.649z M26.978,29.649c0-0.175-0.063-0.326-0.188-0.45
		c-0.125-0.125-0.275-0.188-0.451-0.188s-0.326,0.063-0.45,0.188c-0.125,0.124-0.188,0.275-0.188,0.45
		c0,0.176,0.062,0.326,0.188,0.451c0.125,0.124,0.274,0.188,0.45,0.188s0.326-0.063,0.451-0.188
		C26.915,29.975,26.978,29.825,26.978,29.649z"/>
	<path fill="#0090C5" d="M34.282,29.235c0,0.651-0.295,1.133-0.883,1.446c-0.476,0.263-1.089,0.396-1.84,0.396
		c-0.751,0-1.359-0.133-1.821-0.396c-0.564-0.315-0.845-0.799-0.845-1.452v-1.903c0-0.452,0.125-0.832,0.376-1.14
		c0.25-0.308,0.607-0.462,1.07-0.462c0.4,0,0.738,0.136,1.013,0.407c0.276,0.271,0.414,0.607,0.414,1.011
		c0,0.391-0.137,0.725-0.414,1.002c-0.275,0.278-0.613,0.416-1.013,0.416c-0.113,0-0.207-0.012-0.282-0.039v0.576
		c0,0.643,0.507,0.964,1.521,0.964c1.026,0,1.54-0.329,1.54-0.989V25.49c0-0.41-0.194-0.721-0.582-0.933
		c-0.326-0.174-0.726-0.261-1.202-0.261c-1.189,0-1.833,0.301-1.934,0.902h-1.127c0.163-1.265,1.151-1.903,2.967-1.915
		c0.838,0,1.527,0.156,2.066,0.469c0.651,0.4,0.977,1.001,0.977,1.802V29.235z M30.977,27.142c0-0.172-0.063-0.321-0.19-0.444
		c-0.127-0.123-0.28-0.186-0.457-0.186c-0.177,0-0.33,0.063-0.458,0.186c-0.127,0.123-0.19,0.272-0.19,0.444
		c0,0.173,0.063,0.321,0.19,0.445c0.127,0.124,0.28,0.184,0.458,0.184c0.178,0,0.33-0.061,0.457-0.184
		C30.914,27.463,30.977,27.315,30.977,27.142z"/>
	<path fill="#0090C5" d="M41.68,29.235c0,0.651-0.294,1.133-0.882,1.446c-0.476,0.263-1.089,0.396-1.84,0.396
		c-0.751,0-1.358-0.133-1.821-0.396c-0.563-0.315-0.845-0.799-0.845-1.452v-1.903c0-0.452,0.125-0.832,0.375-1.14
		c0.25-0.308,0.608-0.462,1.071-0.462c0.4,0,0.738,0.136,1.014,0.407c0.275,0.271,0.413,0.607,0.413,1.011
		c0,0.391-0.138,0.725-0.413,1.002c-0.275,0.278-0.613,0.416-1.014,0.416c-0.113,0-0.207-0.012-0.282-0.039v0.576
		c0,0.643,0.507,0.964,1.521,0.964c1.026,0,1.54-0.329,1.54-0.989V25.49c0-0.41-0.194-0.721-0.583-0.933
		c-0.326-0.174-0.726-0.261-1.201-0.261c-1.19,0-1.834,0.301-1.935,0.902h-1.126c0.163-1.265,1.152-1.903,2.967-1.915
		c0.838,0,1.527,0.156,2.065,0.469c0.651,0.4,0.976,1.001,0.976,1.802V29.235L41.68,29.235z M38.375,27.142
		c0-0.172-0.064-0.321-0.191-0.444c-0.127-0.123-0.279-0.186-0.457-0.186c-0.177,0-0.33,0.063-0.457,0.186
		c-0.127,0.123-0.191,0.272-0.191,0.444c0,0.173,0.064,0.321,0.191,0.445s0.279,0.184,0.457,0.184c0.178,0,0.33-0.061,0.457-0.184
		C38.312,27.463,38.375,27.315,38.375,27.142z"/>
	<path fill="#0090C5" d="M47.728,29.667c0,0.401-0.141,0.735-0.423,1.006c-0.281,0.269-0.623,0.403-1.023,0.403
		c-0.4,0-0.742-0.139-1.023-0.414c-0.282-0.274-0.422-0.613-0.422-1.014c0-0.401,0.141-0.739,0.422-1.014
		c0.282-0.276,0.623-0.414,1.023-0.414c0.15,0,0.244,0.006,0.281,0.019v-1.616c0-0.2-0.416-0.396-1.248-0.591
		s-1.587-0.348-2.263-0.46c0.025-0.688,0.207-1.241,0.545-1.662c0.337-0.419,0.826-0.628,1.464-0.628
		c0.263,0,0.623,0.059,1.08,0.178c0.457,0.118,0.785,0.179,0.986,0.179c0.213,0,0.332-0.139,0.356-0.414l0.92,0.245
		c-0.225,0.764-0.638,1.146-1.239,1.146c-0.226,0-0.548-0.054-0.967-0.161c-0.419-0.106-0.736-0.16-0.949-0.16
		c-0.551,0-0.864,0.207-0.939,0.621c0.964,0.2,1.774,0.413,2.432,0.639c0.657,0.226,0.986,0.613,0.986,1.164V29.667L47.728,29.667z
		 M46.92,29.649c0-0.175-0.064-0.326-0.191-0.45c-0.126-0.125-0.279-0.188-0.457-0.188s-0.33,0.063-0.457,0.188
		c-0.127,0.124-0.19,0.275-0.19,0.45c0,0.176,0.063,0.326,0.19,0.451c0.127,0.124,0.279,0.188,0.457,0.188
		c0.178,0,0.33-0.063,0.457-0.188C46.856,29.975,46.92,29.825,46.92,29.649z"/>
	<path fill="#0090C5" d="M48.629,18.4c-0.05,0.525-0.219,0.904-0.507,1.136c-0.288,0.231-0.677,0.416-1.165,0.555
		c0.2,0.099,0.36,0.247,0.479,0.44c0.119,0.195,0.178,0.41,0.178,0.647c0,0.338-0.119,0.627-0.356,0.864
		c-0.238,0.238-0.526,0.358-0.864,0.358c-0.338,0-0.626-0.12-0.864-0.358c-0.237-0.237-0.357-0.532-0.357-0.882
		c0-0.901,0.463-1.483,1.389-1.746c0.526-0.138,0.861-0.313,1.005-0.525c0.144-0.213,0.216-0.377,0.216-0.489H48.629z
		 M46.938,21.179c0-0.138-0.053-0.259-0.159-0.366c-0.106-0.105-0.228-0.159-0.367-0.159c-0.138,0-0.26,0.054-0.366,0.159
		c-0.106,0.107-0.16,0.229-0.16,0.366c0,0.138,0.053,0.261,0.16,0.367c0.106,0.106,0.228,0.16,0.366,0.16
		c0.139,0,0.26-0.053,0.367-0.16C46.885,21.44,46.938,21.317,46.938,21.179z"/>
	<path fill="#0090C5" d="M51.333,25.573c0,0.251-0.088,0.464-0.263,0.639c-0.175,0.176-0.388,0.262-0.638,0.262
		s-0.463-0.086-0.639-0.262c-0.175-0.175-0.263-0.388-0.263-0.639c0-0.25,0.087-0.462,0.263-0.638
		c0.176-0.176,0.389-0.263,0.639-0.263s0.463,0.087,0.638,0.263C51.245,25.111,51.333,25.324,51.333,25.573z M51.333,30.193
		c0,0.25-0.088,0.464-0.263,0.639s-0.388,0.264-0.638,0.264s-0.463-0.089-0.639-0.264c-0.175-0.175-0.263-0.389-0.263-0.639
		c0-0.25,0.087-0.463,0.263-0.638c0.176-0.176,0.389-0.263,0.639-0.263s0.463,0.087,0.638,0.263
		C51.245,29.73,51.333,29.943,51.333,30.193z"/>
	<path fill="#0090C5" d="M62.45,29.555c0,0.438-0.144,0.798-0.432,1.08c-0.289,0.281-0.645,0.422-1.071,0.422
		c-0.4,0-0.739-0.138-1.014-0.415s-0.413-0.612-0.413-1.001c0-0.404,0.138-0.744,0.413-1.021c0.275-0.276,0.614-0.416,1.014-0.416
		c0.138,0,0.25,0.006,0.338,0.019v-2.735c0-0.793-0.576-1.19-1.728-1.19c-0.476,0-0.88,0.146-1.211,0.438
		c-0.331,0.291-0.498,0.677-0.498,1.16h-1.126c0.038-0.827,0.31-1.469,0.817-1.926c0.507-0.457,1.18-0.685,2.019-0.685
		c0.827,0,1.49,0.163,1.991,0.489c0.601,0.388,0.901,0.982,0.901,1.784V29.555L62.45,29.555z M61.586,29.63
		c0-0.174-0.063-0.326-0.188-0.451s-0.275-0.188-0.45-0.188s-0.326,0.063-0.451,0.188c-0.125,0.125-0.188,0.276-0.188,0.451
		c0,0.175,0.062,0.326,0.188,0.451c0.125,0.126,0.275,0.187,0.451,0.187s0.325-0.061,0.45-0.187
		C61.522,29.955,61.586,29.805,61.586,29.63z"/>
	<path fill="#0090C5" d="M62.487,22.475c-1.552-0.501-2.973-0.75-4.263-0.75c-0.588,0-1.183,0.038-1.784,0.112
		c0.15-1.676,1.064-2.516,2.741-2.516c0.965,0,1.728,0.291,2.292,0.874C62.037,20.775,62.375,21.537,62.487,22.475z M61.285,21.368
		c-0.075-0.313-0.301-0.607-0.676-0.883c-0.375-0.275-0.801-0.413-1.277-0.413c-0.451,0-0.839,0.091-1.165,0.272
		c-0.325,0.181-0.532,0.422-0.619,0.723c0.213-0.051,0.544-0.076,0.995-0.076C59.47,20.992,60.383,21.117,61.285,21.368z"/>
	<path fill="#0090C5" d="M70.674,30.926H69.51V24.86c0-0.388-0.093-0.582-0.281-0.582c-0.163,0-0.275,0.094-0.338,0.281
		l-2.234,6.367h-1.315V26.1c-0.125,0.025-0.232,0.038-0.319,0.038c-0.4,0-0.739-0.141-1.014-0.422
		c-0.276-0.282-0.413-0.623-0.413-1.023c0-0.388,0.138-0.72,0.413-0.996c0.275-0.275,0.613-0.413,1.014-0.413
		c0.426,0,0.78,0.144,1.061,0.432c0.282,0.289,0.423,0.651,0.423,1.089v2.799c0,0.424-0.075,1.089-0.226,1.99
		c0.138-0.55,0.313-1.164,0.526-1.84l1.052-3.342c0.237-0.764,0.708-1.139,1.408-1.127c0.939,0.012,1.408,0.544,1.408,1.596V30.926z
		 M65.661,24.709c0-0.174-0.063-0.325-0.188-0.451c-0.125-0.125-0.275-0.187-0.451-0.187c-0.175,0-0.326,0.062-0.451,0.187
		c-0.125,0.126-0.188,0.276-0.188,0.451c0,0.176,0.063,0.326,0.188,0.451c0.125,0.125,0.276,0.188,0.451,0.188
		c0.175,0,0.326-0.062,0.451-0.188C65.598,25.036,65.661,24.886,65.661,24.709z"/>
	<path fill="#0090C5" d="M77.922,29.029c0,1.365-0.926,2.048-2.779,2.048c-1.84,0-2.761-0.683-2.761-2.048v-0.864
		c0-0.6,0.252-1.027,0.756-1.277c-0.567-0.388-0.85-0.958-0.85-1.708c0-0.55,0.153-1.006,0.46-1.361
		c0.307-0.357,0.729-0.535,1.268-0.535c0.375,0,0.694,0.116,0.958,0.348c0.263,0.231,0.394,0.535,0.394,0.91
		c0,0.338-0.12,0.632-0.36,0.882c-0.241,0.251-0.557,0.376-0.949,0.376c-0.202,0-0.379-0.03-0.531-0.094
		c0.1,0.477,0.325,0.714,0.676,0.714h1.333v0.921h-1.333c-0.201,0-0.364,0.086-0.488,0.261c-0.125,0.173-0.188,0.373-0.188,0.597
		v0.858c0,0.671,0.535,1.007,1.605,1.007c1.083,0,1.625-0.337,1.625-1.012v-5.619h1.164L77.922,29.029L77.922,29.029z M74.674,24.56
		c0-0.175-0.057-0.319-0.172-0.432c-0.114-0.112-0.26-0.169-0.438-0.169c-0.178,0-0.324,0.057-0.438,0.169
		c-0.115,0.113-0.172,0.257-0.172,0.432c0,0.176,0.057,0.32,0.172,0.432c0.114,0.113,0.26,0.169,0.438,0.169
		c0.178,0,0.324-0.056,0.438-0.169C74.617,24.879,74.674,24.735,74.674,24.56z"/>
	<path fill="#0090C5" d="M84.232,30.926h-1.164v-5.45c0-0.349-0.12-0.633-0.356-0.851c-0.238-0.219-0.563-0.328-0.977-0.328
		c-0.413,0-0.751,0.136-1.014,0.407c-0.262,0.272-0.4,0.619-0.413,1.039h-1.127c0.038-0.752,0.285-1.35,0.742-1.795
		c0.457-0.443,1.061-0.666,1.812-0.666c0.701,0,1.292,0.178,1.775,0.535c0.482,0.355,0.723,0.898,0.723,1.625V30.926L84.232,30.926z
		"/>
	<path fill="#0090C5" d="M91.8,30.926h-1.164v-5.113c0-0.449-0.195-0.823-0.583-1.124c-0.363-0.262-0.782-0.393-1.258-0.393
		c-0.563,0-1.014,0.188-1.352,0.564c-0.337,0.375-0.507,0.813-0.507,1.314c0,0.138,0.028,0.366,0.084,0.686
		c0.057,0.319,0.085,0.598,0.085,0.835v0.489c0-0.05,0.016-0.176,0.046-0.376c0.031-0.2,0.066-0.395,0.104-0.582
		c0.125-0.527,0.312-0.971,0.563-1.333c0.338-0.438,0.72-0.658,1.146-0.658c0.338,0,0.632,0.12,0.882,0.357
		c0.25,0.237,0.376,0.526,0.376,0.864c0,0.326-0.125,0.611-0.376,0.855c-0.251,0.243-0.544,0.365-0.882,0.365
		c-0.313,0-0.595-0.112-0.845-0.338c-0.376,1.14-0.563,2.335-0.563,3.587h-1.165v-1.203c0-0.588-0.104-1.23-0.31-1.924
		c-0.207-0.695-0.31-1.242-0.31-1.644c0-0.864,0.313-1.564,0.939-2.103c0.588-0.513,1.314-0.771,2.178-0.771
		c0.488,0,0.964,0.102,1.427,0.301c0.288-0.213,0.432-0.514,0.432-0.901h1.315c-0.151,0.688-0.439,1.195-0.864,1.52
		c0.4,0.463,0.601,1.008,0.601,1.634V30.926z M89.528,26.457c0-0.163-0.057-0.301-0.169-0.414c-0.113-0.112-0.251-0.168-0.414-0.168
		s-0.298,0.056-0.404,0.168c-0.106,0.113-0.159,0.251-0.159,0.414s0.053,0.297,0.159,0.404c0.106,0.105,0.241,0.159,0.404,0.159
		c0.163,0,0.3-0.054,0.414-0.159C89.471,26.754,89.528,26.619,89.528,26.457z"/>
	<path fill="#0090C5" d="M98.109,30.926h-1.164v-5.45c0-0.349-0.12-0.633-0.357-0.851c-0.238-0.219-0.563-0.328-0.976-0.328
		s-0.751,0.136-1.015,0.407c-0.262,0.272-0.4,0.619-0.412,1.039h-1.127c0.038-0.752,0.286-1.35,0.742-1.795
		c0.456-0.443,1.061-0.666,1.812-0.666c0.701,0,1.292,0.178,1.774,0.535c0.482,0.355,0.723,0.898,0.723,1.625V30.926z"/>
	<path fill="#0090C5" d="M105.602,30.926h-1.164v-3.25c0-0.375-0.213-0.664-0.639-0.864c-0.326-0.15-0.688-0.226-1.089-0.226
		c-0.388,0-0.72,0.094-0.996,0.282c-0.337,0.226-0.507,0.525-0.507,0.901v0.47c0.176-0.024,0.288-0.038,0.338-0.038
		c0.4,0,0.745,0.141,1.033,0.423c0.288,0.282,0.431,0.617,0.431,1.004c0,0.399-0.149,0.738-0.45,1.014
		c-0.3,0.274-0.645,0.412-1.033,0.412c-0.413,0-0.763-0.134-1.051-0.403c-0.288-0.269-0.432-0.61-0.432-1.023v-1.727
		c0-0.739,0.275-1.315,0.826-1.728c0.488-0.363,1.095-0.544,1.821-0.544c0.776,0,1.358,0.212,1.747,0.638v-0.837
		c0-0.384-0.226-0.682-0.676-0.893c-0.351-0.161-0.745-0.242-1.183-0.242c-0.488,0-0.908,0.112-1.259,0.333
		c-0.387,0.248-0.619,0.58-0.694,1h-1.127c0.076-0.764,0.407-1.353,0.996-1.766c0.551-0.388,1.257-0.582,2.122-0.582
		c0.563,0,1.07,0.101,1.521,0.3c0.263-0.237,0.394-0.538,0.394-0.9h1.314c-0.15,0.638-0.42,1.133-0.808,1.483
		c0.375,0.401,0.563,0.864,0.563,1.39V30.926L105.602,30.926z M102.184,29.63c0-0.174-0.063-0.326-0.188-0.451
		c-0.125-0.125-0.274-0.188-0.45-0.188s-0.326,0.063-0.451,0.188c-0.125,0.125-0.188,0.276-0.188,0.451
		c0,0.175,0.062,0.326,0.188,0.451c0.125,0.126,0.275,0.187,0.451,0.187s0.326-0.061,0.45-0.187
		C102.121,29.955,102.184,29.805,102.184,29.63z"/>
	<path fill="#0090C5" d="M113.207,30.926h-1.164v-4.92c0-0.801-0.219-1.377-0.657-1.728l-1.164,0.835l-1.146-0.835
		c-0.525,0.263-0.789,0.857-0.789,1.784c0,0.301,0.091,0.745,0.272,1.333c0.181,0.588,0.272,1.027,0.272,1.314
		c0,0.2-0.037,0.407-0.112,0.621c0.075-0.176,0.256-0.42,0.544-0.732c0.288-0.313,0.563-0.551,0.827-0.715
		c-0.338-0.024-0.604-0.156-0.798-0.394S109,26.988,109,26.699c0-0.337,0.116-0.625,0.347-0.863
		c0.232-0.239,0.517-0.357,0.854-0.357c0.338,0,0.625,0.12,0.864,0.357c0.237,0.238,0.357,0.525,0.357,0.863
		c0,0.538-0.282,1.108-0.845,1.709c-0.751,0.802-1.189,1.321-1.314,1.558c-0.188,0.364-0.282,0.683-0.282,0.959h-1.164
		c0.025-0.477,0.038-0.959,0.038-1.447c0-0.5-0.078-0.963-0.236-1.389c-0.331-0.902-0.497-1.578-0.497-2.029
		c0-0.688,0.174-1.283,0.521-1.784c0.348-0.501,0.844-0.839,1.489-1.014l1.07,0.808l0.995-0.808c1.34,0.2,2.01,1.103,2.01,2.705
		L113.207,30.926L113.207,30.926z M110.766,26.682c0-0.163-0.054-0.296-0.16-0.403c-0.106-0.106-0.241-0.16-0.404-0.16
		c-0.163,0-0.297,0.053-0.404,0.16c-0.106,0.107-0.16,0.241-0.16,0.403s0.053,0.298,0.16,0.404s0.241,0.16,0.404,0.16
		c0.163,0,0.297-0.054,0.404-0.16S110.766,26.844,110.766,26.682z"/>
	<path fill="#0090C5" d="M119.253,29.667c0,0.401-0.141,0.735-0.423,1.006c-0.281,0.269-0.623,0.403-1.023,0.403
		c-0.4,0-0.741-0.139-1.023-0.414c-0.281-0.274-0.422-0.613-0.422-1.014c0-0.401,0.141-0.739,0.422-1.014
		c0.282-0.276,0.623-0.414,1.023-0.414c0.151,0,0.245,0.006,0.282,0.019v-1.616c0-0.2-0.416-0.396-1.249-0.591
		s-1.586-0.348-2.263-0.46c0.025-0.688,0.207-1.241,0.544-1.662c0.338-0.419,0.826-0.628,1.464-0.628
		c0.263,0,0.623,0.059,1.08,0.178c0.458,0.118,0.787,0.179,0.986,0.179c0.213,0,0.332-0.139,0.357-0.414l0.92,0.245
		c-0.226,0.764-0.638,1.146-1.24,1.146c-0.225,0-0.547-0.054-0.966-0.161c-0.419-0.106-0.735-0.16-0.948-0.16
		c-0.551,0-0.864,0.207-0.939,0.621c0.963,0.2,1.774,0.413,2.432,0.639c0.657,0.226,0.985,0.613,0.985,1.164V29.667L119.253,29.667z
		 M118.446,29.649c0-0.175-0.064-0.326-0.191-0.45c-0.127-0.125-0.279-0.188-0.457-0.188c-0.178,0-0.331,0.063-0.458,0.188
		c-0.127,0.124-0.19,0.275-0.19,0.45c0,0.176,0.063,0.326,0.19,0.451c0.127,0.124,0.28,0.188,0.458,0.188
		c0.178,0,0.33-0.063,0.457-0.188C118.382,29.975,118.446,29.825,118.446,29.649z"/>
	<path fill="#0090C5" d="M120.154,18.4c-0.05,0.525-0.219,0.904-0.507,1.136c-0.288,0.231-0.676,0.416-1.164,0.555
		c0.2,0.099,0.361,0.247,0.479,0.44c0.119,0.195,0.179,0.41,0.179,0.647c0,0.338-0.119,0.627-0.357,0.864
		c-0.237,0.238-0.525,0.358-0.864,0.358c-0.337,0-0.625-0.12-0.863-0.358c-0.238-0.237-0.357-0.532-0.357-0.882
		c0-0.901,0.463-1.483,1.39-1.746c0.525-0.138,0.861-0.313,1.004-0.525c0.145-0.213,0.216-0.377,0.216-0.489H120.154z
		 M118.464,21.179c0-0.138-0.054-0.259-0.16-0.366c-0.106-0.105-0.229-0.159-0.367-0.159c-0.137,0-0.259,0.054-0.366,0.159
		c-0.106,0.107-0.159,0.229-0.159,0.366c0,0.138,0.053,0.261,0.159,0.367c0.107,0.106,0.229,0.16,0.366,0.16
		c0.138,0,0.261-0.053,0.367-0.16C118.411,21.44,118.464,21.317,118.464,21.179z"/>
	<path fill="#0090C5" d="M124.173,29.649c0,0.4-0.141,0.739-0.422,1.014c-0.282,0.276-0.617,0.414-1.005,0.414
		c-0.426,0-0.782-0.144-1.07-0.432c-0.289-0.289-0.433-0.652-0.433-1.09v-6.122h1.164v4.827c0.063-0.025,0.175-0.038,0.338-0.038
		c0.388,0,0.723,0.137,1.005,0.413C124.032,28.91,124.173,29.249,124.173,29.649z M123.385,29.649c0-0.175-0.063-0.326-0.188-0.45
		c-0.125-0.125-0.274-0.188-0.45-0.188c-0.175,0-0.326,0.063-0.451,0.188c-0.125,0.124-0.188,0.275-0.188,0.45
		c0,0.176,0.062,0.326,0.188,0.451c0.125,0.124,0.275,0.188,0.451,0.188c0.176,0,0.326-0.063,0.45-0.188
		C123.322,29.975,123.385,29.825,123.385,29.649z"/>
	<path fill="#0090C5" d="M132.342,30.926h-1.314l-1.766-5.822l-1.821,5.822h-1.258V26.1c-0.125,0.025-0.232,0.038-0.319,0.038
		c-0.4,0-0.739-0.141-1.014-0.422c-0.276-0.282-0.413-0.623-0.413-1.023c0-0.388,0.137-0.72,0.413-0.996
		c0.274-0.275,0.613-0.413,1.014-0.413c0.425,0,0.779,0.144,1.062,0.432c0.282,0.289,0.422,0.651,0.422,1.089v2.799
		c0,0.326-0.076,0.989-0.226,1.99c0.276-1.139,0.431-1.752,0.47-1.84l1.314-4h0.713l1.315,4c0.025,0.075,0.18,0.689,0.469,1.84
		c-0.15-1.001-0.225-1.665-0.225-1.99v-4.169h1.164V30.926z M126.501,24.709c0-0.174-0.062-0.325-0.188-0.451
		c-0.125-0.125-0.275-0.187-0.451-0.187s-0.326,0.062-0.451,0.187c-0.125,0.126-0.187,0.276-0.187,0.451
		c0,0.176,0.062,0.326,0.187,0.451c0.125,0.125,0.276,0.188,0.451,0.188s0.326-0.062,0.451-0.188
		C126.438,25.036,126.501,24.886,126.501,24.709z"/>
	<path fill="#0090C5" d="M132.379,22.475c-1.552-0.501-2.973-0.75-4.263-0.75c-0.588,0-1.182,0.038-1.784,0.112
		c0.15-1.676,1.064-2.516,2.742-2.516c0.188,0,0.363,0.013,0.526,0.038v-0.6h0.844v0.789c0.276,0.112,0.533,0.282,0.771,0.507
		v-1.296h1.127v3.455L132.379,22.475z M131.178,21.368c-0.075-0.313-0.301-0.607-0.676-0.883c-0.375-0.275-0.801-0.413-1.277-0.413
		c-0.45,0-0.838,0.091-1.165,0.272c-0.325,0.181-0.531,0.422-0.619,0.723c0.213-0.051,0.545-0.076,0.995-0.076
		C129.362,20.992,130.275,21.117,131.178,21.368z"/>
	<path fill="#0090C5" d="M132.342,18.213h-1.127v-2.141h1.127V18.213z"/>
	<path fill="#0090C5" d="M139.74,29.235c0,0.651-0.293,1.133-0.882,1.446c-0.475,0.263-1.089,0.396-1.841,0.396
		c-0.75,0-1.358-0.133-1.821-0.396c-0.564-0.315-0.845-0.799-0.845-1.452v-1.903c0-0.452,0.125-0.832,0.375-1.14
		c0.25-0.308,0.608-0.462,1.071-0.462c0.401,0,0.738,0.136,1.014,0.407c0.275,0.271,0.413,0.607,0.413,1.011
		c0,0.391-0.137,0.725-0.413,1.002c-0.276,0.278-0.613,0.416-1.014,0.416c-0.112,0-0.207-0.012-0.282-0.039v0.576
		c0,0.643,0.507,0.964,1.521,0.964c1.026,0,1.541-0.329,1.541-0.989V25.49c0-0.41-0.194-0.721-0.582-0.933
		c-0.327-0.174-0.726-0.261-1.202-0.261c-1.19,0-1.834,0.301-1.935,0.902h-1.126c0.164-1.265,1.152-1.903,2.966-1.915
		c0.839,0,1.528,0.156,2.066,0.469c0.65,0.4,0.976,1.001,0.976,1.802V29.235z M136.435,27.142c0-0.172-0.063-0.321-0.191-0.444
		c-0.127-0.123-0.279-0.186-0.457-0.186c-0.178,0-0.33,0.063-0.457,0.186c-0.127,0.123-0.191,0.272-0.191,0.444
		c0,0.173,0.063,0.321,0.191,0.445c0.127,0.124,0.279,0.184,0.457,0.184c0.178,0,0.33-0.061,0.457-0.184
		C136.372,27.463,136.435,27.315,136.435,27.142z"/>
	<path fill="#0090C5" d="M147.308,30.926h-1.165v-5.113c0-0.449-0.194-0.823-0.582-1.124c-0.364-0.262-0.783-0.393-1.259-0.393
		c-0.562,0-1.013,0.189-1.352,0.566c-0.337,0.378-0.508,0.814-0.508,1.312c0,0.139,0.029,0.367,0.085,0.686
		c0.056,0.319,0.085,0.598,0.085,0.835v0.526c0-0.013,0.021-0.147,0.065-0.403c0.043-0.257,0.072-0.454,0.085-0.592
		c0.124-0.526,0.319-0.964,0.582-1.314c0.325-0.451,0.701-0.677,1.127-0.677c0.338,0,0.631,0.121,0.882,0.358
		c0.251,0.237,0.376,0.525,0.376,0.863c0,0.326-0.125,0.61-0.376,0.855c-0.251,0.244-0.544,0.365-0.882,0.365
		c-0.313,0-0.595-0.112-0.845-0.337c-0.376,1.14-0.563,2.335-0.563,3.587h-1.165v-1.202c0-0.588-0.104-1.23-0.309-1.925
		c-0.208-0.695-0.31-1.242-0.31-1.643c0-0.863,0.312-1.565,0.939-2.104c0.588-0.513,1.314-0.769,2.178-0.769
		c0.788,0,1.452,0.207,1.99,0.619c0.613,0.476,0.92,1.122,0.92,1.935V30.926L147.308,30.926z M145.036,26.457
		c0-0.163-0.057-0.301-0.169-0.414c-0.113-0.112-0.252-0.168-0.414-0.168c-0.162,0-0.298,0.056-0.404,0.168
		c-0.106,0.113-0.16,0.251-0.16,0.414s0.054,0.297,0.16,0.404c0.106,0.105,0.242,0.159,0.404,0.159c0.163,0,0.3-0.054,0.414-0.159
		C144.979,26.754,145.036,26.619,145.036,26.457z"/>
	<path fill="#0090C5" d="M147.308,35.339h-1.126v-1.429h-0.076c-0.312,0-0.579-0.108-0.798-0.328
		c-0.218-0.218-0.329-0.478-0.329-0.778c0-0.313,0.111-0.582,0.329-0.809c0.219-0.224,0.492-0.338,0.817-0.338
		c0.312,0,0.588,0.1,0.825,0.301c0.239,0.201,0.357,0.475,0.357,0.826V35.339z M146.651,32.748c0-0.138-0.05-0.257-0.151-0.357
		c-0.099-0.102-0.218-0.15-0.357-0.15c-0.137,0-0.259,0.049-0.366,0.15c-0.106,0.101-0.16,0.22-0.16,0.357s0.054,0.26,0.16,0.365
		c0.106,0.105,0.229,0.159,0.366,0.159c0.139,0,0.258-0.054,0.357-0.159C146.601,33.007,146.651,32.885,146.651,32.748z"/>
	<path fill="#0090C5" d="M158.481,29.649c0,0.388-0.125,0.723-0.379,1.004c-0.251,0.282-0.585,0.424-1.002,0.424
		c-0.365,0-0.686-0.118-0.964-0.349c-0.276-0.23-0.447-0.521-0.511-0.873c-0.337,0.226-0.712,0.583-1.125,1.071h-1.184v-4.977
		c0-0.488-0.153-0.885-0.461-1.192c-0.307-0.306-0.684-0.46-1.136-0.46c-0.763,0-1.308,0.314-1.633,0.938
		c0.489,0.038,0.901,0.321,1.239,0.846c-0.638,0.351-0.957,0.802-0.957,1.351v0.883c0.086-0.049,0.207-0.074,0.356-0.074
		c0.389,0,0.718,0.134,0.986,0.403c0.269,0.27,0.403,0.604,0.403,1.004s-0.137,0.739-0.413,1.014
		c-0.274,0.275-0.613,0.414-1.014,0.414c-0.413,0-0.764-0.144-1.051-0.432c-0.289-0.289-0.433-0.652-0.433-1.09v-2.198
		c0-0.525,0.257-0.938,0.771-1.238c-0.313-0.212-0.696-0.288-1.146-0.225c0.026-0.777,0.313-1.416,0.864-1.916
		c0.513-0.463,1.17-0.695,1.971-0.695c0.839,0,1.519,0.234,2.038,0.703c0.521,0.471,0.78,1.125,0.78,1.964v3.792
		c0.188-0.225,0.525-0.531,1.013-0.92c0.676-0.525,1.077-0.844,1.202-0.957c0.176-0.226,0.263-0.521,0.263-0.883v-3.549h1.165v3.943
		c0,0.488-0.132,0.833-0.395,1.033C158.231,28.685,158.481,29.098,158.481,29.649z M151.364,29.677c0-0.179-0.062-0.33-0.188-0.457
		c-0.125-0.127-0.276-0.191-0.451-0.191c-0.175,0-0.325,0.064-0.45,0.191c-0.125,0.127-0.188,0.278-0.188,0.457
		c0,0.177,0.062,0.33,0.188,0.458c0.125,0.126,0.275,0.189,0.45,0.189c0.175,0,0.325-0.063,0.451-0.189
		C151.302,30.007,151.364,29.854,151.364,29.677z M157.693,29.64c0-0.178-0.063-0.331-0.188-0.457
		c-0.125-0.127-0.275-0.191-0.45-0.191c-0.177,0-0.325,0.064-0.451,0.191c-0.125,0.126-0.188,0.279-0.188,0.457
		c0,0.177,0.063,0.33,0.188,0.458c0.126,0.126,0.274,0.19,0.451,0.19c0.175,0,0.325-0.064,0.45-0.19
		C157.629,29.969,157.693,29.817,157.693,29.64z"/>
	<path fill="#0090C5" d="M166.105,30.926h-1.165v-4.963c0-0.499-0.165-0.901-0.497-1.207c-0.332-0.306-0.749-0.459-1.249-0.459
		c-0.764,0-1.321,0.314-1.671,0.938c0.613,0.126,1.032,0.407,1.258,0.846c-0.339,0.188-0.562,0.345-0.677,0.47
		c-0.161,0.2-0.243,0.47-0.243,0.808c0,0.275,0.03,0.673,0.095,1.192c0.062,0.519,0.092,0.884,0.092,1.099
		c0,0.399-0.134,0.738-0.403,1.014c-0.269,0.275-0.597,0.413-0.985,0.413c-0.4,0-0.739-0.139-1.014-0.416
		c-0.275-0.276-0.413-0.617-0.413-1.02c0-0.391,0.138-0.725,0.413-1.002c0.274-0.278,0.6-0.416,0.977-0.416
		c0.149,0,0.244,0.019,0.281,0.058l-0.112-1.155c0-0.435,0.212-0.771,0.639-1.007c-0.339-0.212-0.721-0.288-1.146-0.225
		c0.012-0.777,0.3-1.415,0.863-1.915c0.537-0.463,1.214-0.695,2.028-0.695c0.876,0,1.584,0.245,2.122,0.733
		c0.539,0.488,0.808,1.139,0.808,1.953V30.926L166.105,30.926z M161.298,29.649c0-0.175-0.064-0.326-0.189-0.45
		c-0.125-0.125-0.273-0.188-0.45-0.188c-0.175,0-0.325,0.063-0.451,0.188c-0.124,0.124-0.187,0.275-0.187,0.45
		c0,0.176,0.062,0.326,0.187,0.451c0.126,0.124,0.276,0.188,0.451,0.188c0.177,0,0.325-0.063,0.45-0.188
		C161.234,29.974,161.298,29.825,161.298,29.649z"/>
	<path fill="#0090C5" d="M172.414,30.926h-1.164v-5.45c0-0.349-0.119-0.633-0.355-0.851c-0.239-0.219-0.564-0.328-0.978-0.328
		c-0.414,0-0.75,0.136-1.013,0.407c-0.264,0.272-0.4,0.619-0.414,1.039h-1.127c0.037-0.752,0.284-1.35,0.743-1.795
		c0.454-0.443,1.061-0.666,1.811-0.666c0.701,0,1.293,0.178,1.774,0.535c0.481,0.355,0.723,0.898,0.723,1.625V30.926z"/>
	<path fill="#0090C5" d="M181.465,30.926h-1.313l-1.767-5.822l-1.821,5.822h-1.258V26.1c-0.125,0.025-0.232,0.038-0.319,0.038
		c-0.4,0-0.738-0.141-1.015-0.422c-0.274-0.282-0.413-0.623-0.413-1.023c0-0.388,0.139-0.72,0.413-0.996
		c0.276-0.275,0.612-0.413,1.015-0.413c0.425,0,0.779,0.144,1.062,0.432c0.28,0.289,0.422,0.651,0.422,1.089v2.799
		c0,0.326-0.076,0.989-0.226,1.99c0.276-1.139,0.432-1.752,0.47-1.84l1.315-4h0.713l1.314,4c0.025,0.075,0.181,0.689,0.469,1.84
		c-0.15-1.001-0.224-1.665-0.224-1.99v-4.169h1.163V30.926z M175.625,24.709c0-0.174-0.063-0.325-0.188-0.451
		c-0.126-0.125-0.276-0.187-0.451-0.187c-0.176,0-0.325,0.062-0.451,0.187c-0.126,0.126-0.188,0.276-0.188,0.451
		c0,0.176,0.062,0.326,0.188,0.451c0.126,0.125,0.275,0.188,0.451,0.188c0.175,0,0.325-0.062,0.451-0.188
		C175.562,25.036,175.625,24.886,175.625,24.709z"/>
	<path fill="#0090C5" d="M189.257,29.16c0,0.614-0.19,1.087-0.572,1.417c-0.382,0.332-0.886,0.499-1.513,0.499
		c-0.625,0-1.128-0.166-1.511-0.497c-0.382-0.331-0.572-0.802-0.572-1.415v-1.216c0-0.362,0.165-0.846,0.496-1.452
		c0.333-0.605,0.499-1.083,0.499-1.433c0-0.288-0.102-0.525-0.3-0.712c-0.2-0.187-0.433-0.281-0.695-0.281
		c-0.4,0-0.67,0.075-0.808,0.225c0.375,0.013,0.68,0.132,0.911,0.358c0.231,0.225,0.347,0.513,0.347,0.863
		c0,0.377-0.131,0.692-0.395,0.949c-0.263,0.256-0.575,0.384-0.938,0.384c-0.427,0-0.767-0.153-1.022-0.46
		c-0.257-0.306-0.385-0.679-0.385-1.118c0-0.575,0.227-1.051,0.684-1.426c0.457-0.375,0.985-0.563,1.587-0.563
		c0.627,0,1.137,0.149,1.531,0.449s0.591,0.737,0.591,1.312c0,0.374-0.156,0.899-0.47,1.573c-0.312,0.674-0.469,1.148-0.469,1.424
		v1.367c0,0.213,0.098,0.375,0.291,0.487s0.404,0.168,0.631,0.168c0.236,0,0.449-0.06,0.637-0.178s0.282-0.278,0.282-0.478v-3.092
		c0-0.461-0.183-0.748-0.545-0.86c0.05-0.226,0.057-0.444,0.019-0.657c0.639-0.236,0.958-0.835,0.958-1.798h1.165
		c-0.088,0.965-0.42,1.672-0.995,2.123c0.375,0.3,0.562,0.695,0.562,1.183V29.16L189.257,29.16z M184.788,25.555
		c0-0.162-0.056-0.3-0.168-0.413c-0.111-0.113-0.25-0.17-0.413-0.17c-0.162,0-0.3,0.057-0.412,0.17
		c-0.113,0.112-0.17,0.251-0.17,0.413c0,0.163,0.057,0.301,0.17,0.414c0.112,0.112,0.25,0.169,0.412,0.169
		c0.163,0,0.302-0.057,0.413-0.169C184.734,25.855,184.788,25.717,184.788,25.555z"/>
	<path fill="#0090C5" d="M189.294,22.475c-1.551-0.501-2.973-0.75-4.262-0.75c-0.588,0-1.185,0.038-1.783,0.112
		c0.149-1.676,1.063-2.516,2.741-2.516c0.889,0,1.602,0.245,2.141,0.733v-1.296h1.126v3.455
		C189.271,22.299,189.284,22.387,189.294,22.475z M188.093,21.368c-0.074-0.313-0.3-0.607-0.676-0.883
		c-0.376-0.275-0.801-0.413-1.276-0.413c-0.451,0-0.838,0.091-1.163,0.272c-0.327,0.181-0.533,0.422-0.621,0.723
		c0.213-0.051,0.546-0.076,0.995-0.076C186.279,20.992,187.192,21.117,188.093,21.368z"/>
	<path fill="#0090C5" d="M196.376,29.555c0,0.438-0.145,0.798-0.434,1.08c-0.288,0.281-0.644,0.422-1.07,0.422
		c-0.4,0-0.738-0.138-1.015-0.415c-0.274-0.277-0.414-0.612-0.414-1.001c0-0.404,0.14-0.744,0.414-1.021
		c0.276-0.276,0.614-0.416,1.015-0.416c0.138,0,0.25,0.006,0.338,0.019v-2.735c0-0.793-0.574-1.19-1.728-1.19
		c-0.477,0-0.88,0.146-1.21,0.438c-0.333,0.291-0.499,0.677-0.499,1.16h-1.126c0.038-0.827,0.312-1.469,0.817-1.926
		c0.507-0.457,1.179-0.685,2.018-0.685c0.826,0,1.49,0.163,1.991,0.489c0.6,0.388,0.902,0.982,0.902,1.784V29.555L196.376,29.555z
		 M195.51,29.63c0-0.174-0.062-0.326-0.187-0.451c-0.126-0.125-0.276-0.188-0.451-0.188c-0.177,0-0.325,0.063-0.45,0.188
		s-0.188,0.276-0.188,0.451c0,0.175,0.063,0.326,0.188,0.451c0.125,0.126,0.273,0.187,0.45,0.187c0.175,0,0.325-0.061,0.451-0.187
		C195.448,29.955,195.51,29.805,195.51,29.63z"/>
	<path fill="#0090C5" d="M196.413,22.475c-1.553-0.501-2.974-0.75-4.261-0.75c-0.591,0-1.185,0.038-1.786,0.112
		c0.15-1.676,1.064-2.516,2.742-2.516c0.963,0,1.728,0.291,2.291,0.874C195.962,20.775,196.301,21.537,196.413,22.475z
		 M195.21,21.368c-0.075-0.313-0.3-0.607-0.676-0.883c-0.376-0.275-0.802-0.413-1.278-0.413c-0.449,0-0.838,0.091-1.163,0.272
		c-0.325,0.181-0.532,0.422-0.62,0.723c0.214-0.051,0.545-0.076,0.995-0.076C193.395,20.992,194.309,21.117,195.21,21.368z"/>
	<path fill="#0090C5" d="M203.981,30.926h-1.166v-4.92c0-0.801-0.219-1.377-0.656-1.728l-1.165,0.835l-1.145-0.835
		c-0.525,0.263-0.789,0.857-0.789,1.784c0,0.301,0.091,0.745,0.271,1.333c0.181,0.588,0.271,1.027,0.271,1.314
		c0,0.2-0.036,0.407-0.111,0.621c0.075-0.176,0.255-0.42,0.545-0.732c0.286-0.313,0.562-0.551,0.825-0.715
		c-0.338-0.024-0.604-0.156-0.798-0.394c-0.193-0.238-0.29-0.5-0.29-0.789c0-0.337,0.115-0.625,0.347-0.863s0.516-0.357,0.854-0.357
		c0.34,0,0.627,0.12,0.865,0.357c0.237,0.238,0.355,0.525,0.355,0.863c0,0.538-0.282,1.108-0.844,1.709
		c-0.752,0.802-1.189,1.321-1.314,1.558c-0.188,0.364-0.281,0.683-0.281,0.959h-1.165c0.024-0.477,0.037-0.959,0.037-1.447
		c0-0.5-0.078-0.963-0.235-1.389c-0.331-0.902-0.497-1.578-0.497-2.029c0-0.688,0.175-1.283,0.521-1.784
		c0.349-0.501,0.846-0.839,1.49-1.014l1.069,0.808l0.996-0.808c1.34,0.2,2.01,1.103,2.01,2.705V30.926z M201.539,26.682
		c0-0.163-0.053-0.296-0.158-0.403c-0.107-0.106-0.242-0.16-0.405-0.16c-0.161,0-0.298,0.053-0.403,0.16
		c-0.105,0.107-0.158,0.241-0.158,0.403s0.053,0.298,0.158,0.404s0.242,0.16,0.403,0.16c0.163,0,0.298-0.054,0.405-0.16
		C201.486,26.979,201.539,26.844,201.539,26.682z"/>
	<path fill="#0090C5" d="M212.205,30.926h-1.163V24.86c0-0.388-0.095-0.582-0.282-0.582c-0.162,0-0.276,0.094-0.339,0.281
		l-2.234,6.367h-1.313V26.1c-0.125,0.025-0.232,0.038-0.319,0.038c-0.4,0-0.738-0.141-1.015-0.422
		c-0.275-0.282-0.413-0.623-0.413-1.023c0-0.388,0.138-0.72,0.413-0.996c0.276-0.275,0.614-0.413,1.015-0.413
		c0.425,0,0.779,0.144,1.062,0.432c0.281,0.289,0.421,0.651,0.421,1.089v2.799c0,0.424-0.075,1.089-0.225,1.99
		c0.139-0.55,0.313-1.164,0.526-1.84l1.052-3.342c0.236-0.764,0.706-1.139,1.408-1.127c0.939,0.012,1.407,0.544,1.407,1.596V30.926
		L212.205,30.926z M207.191,24.709c0-0.174-0.062-0.325-0.187-0.451c-0.126-0.125-0.276-0.187-0.451-0.187
		c-0.177,0-0.327,0.062-0.451,0.187c-0.126,0.126-0.188,0.276-0.188,0.451c0,0.176,0.062,0.326,0.188,0.451
		c0.124,0.125,0.274,0.188,0.451,0.188c0.175,0,0.325-0.062,0.451-0.188C207.128,25.036,207.191,24.886,207.191,24.709z"/>
	<path fill="#0090C5" d="M212.243,22.475c-1.553-0.501-2.973-0.75-4.263-0.75c-0.589,0-1.183,0.038-1.784,0.112
		c0.15-1.676,1.064-2.516,2.742-2.516c0.889,0,1.604,0.245,2.141,0.733v-1.296h1.126v3.455
		C212.217,22.299,212.231,22.387,212.243,22.475z M211.042,21.368c-0.075-0.313-0.302-0.607-0.677-0.883
		c-0.377-0.275-0.801-0.413-1.278-0.413c-0.449,0-0.838,0.091-1.163,0.272c-0.325,0.181-0.532,0.422-0.62,0.723
		c0.214-0.051,0.545-0.076,0.996-0.076C209.225,20.992,210.139,21.117,211.042,21.368z"/>
	<path fill="#0090C5" d="M212.205,18.213h-1.126v-2.141h1.126V18.213z"/>
	<path fill="#0090C5" d="M219.81,30.926h-1.164v-5.02c0-0.475-0.178-0.861-0.532-1.161c-0.355-0.299-0.776-0.45-1.261-0.45
		c-0.523,0-0.978,0.177-1.364,0.533s-0.579,0.783-0.579,1.281c0,0.312,0.104,0.755,0.311,1.329c0.206,0.574,0.309,1.003,0.309,1.291
		c0,0.087-0.013,0.205-0.037,0.355c0.357-0.588,0.757-1.083,1.2-1.482c-0.351-0.027-0.625-0.163-0.824-0.414
		c-0.188-0.213-0.282-0.476-0.282-0.79c0-0.325,0.121-0.61,0.365-0.854c0.245-0.245,0.535-0.366,0.873-0.366
		s0.626,0.121,0.864,0.366c0.237,0.244,0.357,0.53,0.357,0.854c0,0.564-0.274,1.19-0.819,1.877
		c-0.759,0.939-1.188,1.502-1.286,1.689c-0.188,0.326-0.279,0.646-0.279,0.959h-1.184c0.011-0.463,0.018-0.889,0.018-1.276
		c0-0.677-0.077-1.196-0.23-1.559c-0.115-0.326-0.23-0.66-0.347-1.005c-0.115-0.345-0.172-0.648-0.172-0.911
		c0-0.851,0.296-1.546,0.89-2.084c0.596-0.538,1.318-0.807,2.17-0.807c0.863,0,1.57,0.225,2.121,0.676
		c0.589,0.488,0.884,1.158,0.884,2.009V30.926L219.81,30.926z M217.388,26.4c0-0.163-0.055-0.297-0.161-0.404
		c-0.105-0.106-0.239-0.16-0.401-0.16c-0.163,0-0.298,0.054-0.404,0.16c-0.105,0.106-0.161,0.241-0.161,0.404
		s0.056,0.297,0.161,0.404c0.106,0.105,0.241,0.159,0.404,0.159c0.162,0,0.296-0.054,0.401-0.159
		C217.333,26.698,217.388,26.563,217.388,26.4z"/>
	<path fill="#0090C5" d="M219.848,22.475c-1.553-0.501-2.973-0.75-4.263-0.75c-0.589,0-1.184,0.038-1.785,0.112
		c0.151-1.676,1.065-2.516,2.742-2.516c0.889,0,1.604,0.245,2.141,0.733v-1.296h1.128v3.455
		C219.822,22.299,219.835,22.387,219.848,22.475z M218.646,21.368c-0.075-0.313-0.302-0.607-0.676-0.883
		c-0.378-0.275-0.802-0.413-1.278-0.413c-0.45,0-0.838,0.091-1.163,0.272c-0.325,0.181-0.532,0.422-0.62,0.723
		c0.213-0.051,0.545-0.076,0.995-0.076C216.832,20.992,217.744,21.117,218.646,21.368z"/>
</g>
</svg>
