<?xml version="1.0" encoding="utf-8"?>
<!-- Generator: Adobe Illustrator 14.0.0, SVG Export Plug-In . SVG Version: 6.00 Build 43363)  -->
<!DOCTYPE svg PUBLIC "-//W3C//DTD SVG 1.1//EN" "http://www.w3.org/Graphics/SVG/1.1/DTD/svg11.dtd">
<svg version="1.1" id="Layer_1" xmlns="http://www.w3.org/2000/svg" xmlns:xlink="http://www.w3.org/1999/xlink" x="0px" y="0px"
	 width="300px" height="64px" viewBox="0 0 300 64" enable-background="new 0 0 300 64" xml:space="preserve">
<g id="Ebene_2" display="none">
	<g id="DBEqUM_1_" display="inline">
		
			<image overflow="visible" enable-background="new    " width="302" height="65" id="DBEqUM" xlink:href="3C7C48B5.jpeg"  transform="matrix(0.9967 0 0 0.9846 4.882813e-004 -4.882813e-004)">
		</image>
	</g>
</g>
<g>
	<path fill="#339900" d="M244.934,21.343v0.817h-3.506v9.238h-0.957V22.16h-3.492v-0.817H244.934z"/>
	<path fill="#339900" d="M246.792,21.343v4.042h0.029c0.168-0.442,0.468-0.796,0.9-1.063c0.431-0.269,0.905-0.403,1.423-0.403
		c0.508,0,0.932,0.067,1.275,0.199c0.343,0.131,0.617,0.316,0.824,0.557c0.205,0.239,0.35,0.534,0.435,0.881
		c0.085,0.347,0.127,0.736,0.127,1.168v4.676h-0.887v-4.534c0-0.31-0.028-0.598-0.085-0.867c-0.058-0.268-0.155-0.499-0.297-0.696
		c-0.141-0.197-0.33-0.352-0.57-0.463c-0.238-0.113-0.538-0.169-0.894-0.169c-0.356,0-0.673,0.063-0.951,0.189
		c-0.278,0.127-0.512,0.301-0.705,0.52c-0.192,0.221-0.342,0.483-0.45,0.789c-0.106,0.306-0.165,0.637-0.177,0.993v4.238h-0.887
		V21.343H246.792z"/>
	<path fill="#339900" d="M253.875,25.258c0.15-0.311,0.354-0.563,0.613-0.761s0.559-0.342,0.909-0.436
		c0.348-0.094,0.73-0.144,1.154-0.144c0.319,0,0.639,0.031,0.958,0.092s0.605,0.176,0.858,0.344c0.254,0.17,0.46,0.407,0.619,0.711
		c0.161,0.305,0.24,0.701,0.24,1.19v3.858c0,0.357,0.173,0.535,0.521,0.535c0.103,0,0.197-0.018,0.28-0.056v0.746
		c-0.104,0.019-0.193,0.033-0.274,0.043c-0.078,0.01-0.181,0.015-0.302,0.015c-0.226,0-0.406-0.031-0.542-0.092
		c-0.137-0.062-0.242-0.147-0.317-0.259c-0.075-0.113-0.124-0.247-0.146-0.402c-0.024-0.154-0.035-0.327-0.035-0.514h-0.03
		c-0.158,0.235-0.319,0.444-0.483,0.626c-0.164,0.183-0.35,0.334-0.55,0.458c-0.201,0.123-0.432,0.215-0.69,0.28
		c-0.257,0.066-0.565,0.1-0.923,0.1c-0.337,0-0.653-0.041-0.949-0.12c-0.296-0.08-0.556-0.207-0.774-0.381
		c-0.223-0.173-0.395-0.393-0.521-0.66c-0.126-0.269-0.188-0.585-0.188-0.952c0-0.507,0.112-0.903,0.337-1.189
		c0.227-0.287,0.522-0.503,0.895-0.654c0.37-0.15,0.788-0.256,1.255-0.318c0.462-0.061,0.935-0.119,1.414-0.174
		c0.188-0.02,0.35-0.043,0.493-0.07c0.142-0.029,0.258-0.079,0.35-0.147c0.096-0.07,0.167-0.167,0.219-0.29
		c0.053-0.123,0.08-0.282,0.08-0.479c0-0.3-0.052-0.547-0.148-0.739c-0.1-0.193-0.236-0.346-0.408-0.458
		c-0.175-0.112-0.376-0.189-0.604-0.232c-0.23-0.042-0.477-0.064-0.741-0.064c-0.563,0-1.023,0.135-1.379,0.401
		c-0.356,0.269-0.546,0.698-0.563,1.29h-0.888C253.637,25.935,253.726,25.568,253.875,25.258z M258.313,27.427
		c-0.057,0.103-0.164,0.179-0.323,0.226c-0.159,0.047-0.302,0.08-0.424,0.099c-0.375,0.066-0.764,0.124-1.162,0.177
		c-0.397,0.05-0.764,0.128-1.092,0.232s-0.598,0.252-0.809,0.445c-0.21,0.192-0.315,0.465-0.315,0.822
		c0,0.226,0.044,0.426,0.133,0.599c0.089,0.173,0.209,0.324,0.359,0.451c0.148,0.125,0.324,0.222,0.521,0.288
		c0.195,0.065,0.398,0.099,0.605,0.099c0.337,0,0.661-0.052,0.971-0.154c0.311-0.104,0.578-0.254,0.81-0.452
		c0.229-0.197,0.413-0.436,0.549-0.718c0.137-0.281,0.205-0.6,0.205-0.958v-1.156h-0.029l0,0H258.313z"/>
	<path fill="#339900" d="M262.115,21.343v1.422h-0.888v-1.422H262.115z M262.115,24.132v7.267h-0.888v-7.267H262.115z"/>
	<path fill="#339900" d="M264.931,21.343v10.055h-0.889V21.343H264.931z"/>
	<path fill="#339900" d="M267.029,25.258c0.15-0.311,0.354-0.563,0.613-0.761c0.259-0.198,0.559-0.342,0.909-0.436
		c0.349-0.094,0.731-0.144,1.154-0.144c0.317,0,0.637,0.031,0.957,0.092c0.318,0.062,0.604,0.176,0.859,0.344
		c0.254,0.17,0.46,0.407,0.62,0.711c0.158,0.305,0.237,0.701,0.237,1.19v3.858c0,0.357,0.175,0.535,0.521,0.535
		c0.103,0,0.197-0.018,0.281-0.056v0.746c-0.104,0.019-0.194,0.033-0.273,0.043c-0.077,0.01-0.181,0.015-0.303,0.015
		c-0.226,0-0.406-0.031-0.542-0.092s-0.24-0.147-0.316-0.259c-0.075-0.113-0.123-0.247-0.146-0.402
		c-0.024-0.154-0.036-0.327-0.036-0.514h-0.027c-0.159,0.235-0.319,0.444-0.486,0.626c-0.162,0.183-0.347,0.334-0.548,0.458
		c-0.202,0.123-0.435,0.215-0.69,0.28c-0.258,0.066-0.566,0.1-0.923,0.1c-0.338,0-0.654-0.041-0.95-0.12
		c-0.295-0.08-0.557-0.207-0.774-0.381c-0.221-0.173-0.394-0.393-0.521-0.66c-0.128-0.269-0.189-0.585-0.189-0.952
		c0-0.507,0.111-0.903,0.337-1.189c0.226-0.287,0.523-0.503,0.895-0.654c0.37-0.15,0.789-0.256,1.254-0.318
		c0.464-0.061,0.938-0.119,1.416-0.174c0.188-0.02,0.351-0.043,0.493-0.07c0.142-0.029,0.256-0.079,0.351-0.147
		c0.095-0.07,0.166-0.167,0.219-0.29c0.052-0.123,0.078-0.282,0.078-0.479c0-0.3-0.051-0.547-0.148-0.739
		c-0.101-0.193-0.234-0.346-0.408-0.458c-0.174-0.112-0.377-0.189-0.605-0.232c-0.229-0.042-0.476-0.064-0.738-0.064
		c-0.563,0-1.023,0.135-1.38,0.401c-0.358,0.269-0.545,0.698-0.563,1.29h-0.887C266.789,25.935,266.88,25.568,267.029,25.258z
		 M271.465,27.427c-0.056,0.103-0.162,0.179-0.323,0.226c-0.16,0.047-0.3,0.08-0.423,0.099c-0.376,0.066-0.764,0.124-1.162,0.177
		c-0.399,0.05-0.763,0.128-1.091,0.232c-0.33,0.104-0.599,0.252-0.811,0.445c-0.21,0.192-0.314,0.465-0.314,0.822
		c0,0.226,0.044,0.426,0.134,0.599c0.088,0.173,0.209,0.324,0.357,0.451c0.149,0.125,0.325,0.222,0.521,0.288
		c0.196,0.065,0.398,0.099,0.605,0.099c0.338,0,0.662-0.052,0.971-0.154c0.31-0.104,0.579-0.254,0.811-0.452
		c0.229-0.197,0.413-0.436,0.549-0.718c0.137-0.281,0.203-0.6,0.203-0.958v-1.156H271.465L271.465,27.427L271.465,27.427z"/>
	<path fill="#339900" d="M275.24,24.132v1.253h0.028c0.168-0.44,0.47-0.796,0.901-1.063c0.432-0.268,0.905-0.402,1.422-0.402
		c0.508,0,0.933,0.066,1.275,0.198c0.342,0.131,0.616,0.317,0.821,0.556c0.207,0.239,0.353,0.534,0.438,0.882
		s0.128,0.737,0.128,1.168V31.4h-0.889v-4.534c0-0.31-0.028-0.598-0.086-0.867c-0.057-0.268-0.153-0.499-0.295-0.696
		c-0.143-0.197-0.333-0.352-0.569-0.463c-0.239-0.113-0.538-0.169-0.895-0.169s-0.675,0.063-0.951,0.189
		c-0.277,0.127-0.512,0.301-0.705,0.52c-0.191,0.221-0.343,0.483-0.45,0.789c-0.107,0.306-0.167,0.637-0.177,0.993v4.238h-0.888
		v-7.267H275.24z"/>
	<path fill="#339900" d="M287.717,31.399v-1.38h-0.029c-0.093,0.234-0.23,0.451-0.416,0.647c-0.182,0.197-0.391,0.364-0.626,0.5
		c-0.234,0.136-0.486,0.242-0.753,0.318c-0.269,0.074-0.534,0.112-0.797,0.112c-0.554,0-1.035-0.101-1.443-0.303
		c-0.408-0.201-0.748-0.479-1.021-0.831c-0.271-0.352-0.475-0.761-0.606-1.224c-0.131-0.463-0.195-0.956-0.195-1.471
		c0-0.517,0.064-1.007,0.195-1.472c0.132-0.465,0.335-0.873,0.606-1.226c0.272-0.351,0.612-0.63,1.021-0.837
		c0.408-0.206,0.89-0.312,1.443-0.312c0.272,0,0.539,0.034,0.797,0.1c0.258,0.065,0.5,0.166,0.724,0.302
		c0.228,0.136,0.428,0.303,0.599,0.5c0.175,0.197,0.309,0.427,0.401,0.69h0.027v-4.168h0.888v10.054H287.717z M282.852,28.884
		c0.089,0.372,0.229,0.701,0.422,0.993c0.192,0.292,0.438,0.528,0.739,0.711s0.661,0.273,1.085,0.273c0.47,0,0.866-0.09,1.189-0.273
		c0.323-0.184,0.587-0.42,0.789-0.711c0.201-0.29,0.349-0.622,0.436-0.993c0.091-0.371,0.134-0.744,0.134-1.119
		c0-0.376-0.043-0.748-0.134-1.12c-0.088-0.372-0.234-0.702-0.436-0.992c-0.202-0.292-0.466-0.528-0.789-0.711
		c-0.323-0.184-0.721-0.274-1.189-0.274c-0.424,0-0.783,0.091-1.085,0.274c-0.302,0.183-0.547,0.419-0.739,0.711
		c-0.192,0.29-0.333,0.622-0.422,0.992c-0.091,0.372-0.136,0.744-0.136,1.12C282.716,28.141,282.762,28.514,282.852,28.884z"/>
</g>
<rect x="227.04" y="18.224" fill="#6BC200" width="0.454" height="15.445"/>
<g>
	<path fill="#0190C5" d="M14.186,21.343c0.216,0,0.448,0.002,0.697,0.006c0.249,0.005,0.496,0.02,0.74,0.043
		c0.244,0.022,0.472,0.059,0.682,0.105c0.211,0.047,0.393,0.118,0.542,0.211c0.329,0.198,0.608,0.469,0.837,0.816
		c0.23,0.348,0.345,0.774,0.345,1.281c0,0.536-0.128,0.998-0.387,1.388c-0.258,0.389-0.627,0.678-1.106,0.866v0.028
		c0.62,0.131,1.093,0.414,1.422,0.845c0.329,0.433,0.493,0.958,0.493,1.578c0,0.368-0.065,0.723-0.197,1.071
		c-0.132,0.348-0.327,0.654-0.585,0.921c-0.258,0.269-0.577,0.485-0.957,0.648c-0.381,0.166-0.82,0.247-1.317,0.247h-4.858V21.343
		H14.186L14.186,21.343z M14.551,25.666c0.761,0,1.308-0.134,1.642-0.402c0.333-0.266,0.499-0.668,0.499-1.203
		c0-0.357-0.057-0.64-0.169-0.846c-0.112-0.205-0.268-0.366-0.464-0.478c-0.197-0.113-0.425-0.186-0.682-0.218
		c-0.257-0.032-0.533-0.048-0.824-0.048h-2.675v3.197h2.674V25.666L14.551,25.666z M15.228,30.272c0.591,0,1.054-0.16,1.386-0.479
		c0.334-0.32,0.5-0.762,0.5-1.324c0-0.33-0.062-0.6-0.183-0.817c-0.123-0.216-0.284-0.388-0.486-0.515
		c-0.201-0.125-0.434-0.215-0.697-0.267c-0.262-0.051-0.536-0.078-0.818-0.078h-3.053v3.479L15.228,30.272L15.228,30.272z"/>
	<path fill="#0190C5" d="M26.649,31.37c-0.206,0.123-0.493,0.183-0.859,0.183c-0.309,0-0.557-0.087-0.739-0.26
		c-0.183-0.173-0.273-0.457-0.273-0.852c-0.33,0.395-0.711,0.679-1.148,0.852c-0.436,0.173-0.908,0.26-1.415,0.26
		c-0.329,0-0.641-0.038-0.938-0.111c-0.295-0.076-0.553-0.193-0.767-0.353c-0.215-0.16-0.388-0.369-0.514-0.627
		c-0.127-0.257-0.189-0.57-0.189-0.937c0-0.413,0.07-0.75,0.211-1.014c0.141-0.262,0.326-0.476,0.556-0.64
		c0.231-0.164,0.494-0.289,0.789-0.373c0.296-0.085,0.598-0.156,0.908-0.211c0.329-0.066,0.641-0.116,0.938-0.148
		c0.294-0.032,0.556-0.081,0.782-0.142c0.226-0.062,0.403-0.15,0.535-0.268c0.132-0.117,0.198-0.289,0.198-0.513
		c0-0.264-0.048-0.475-0.147-0.635c-0.099-0.16-0.226-0.281-0.38-0.366c-0.155-0.085-0.33-0.142-0.521-0.169
		c-0.192-0.029-0.382-0.042-0.569-0.042c-0.507,0-0.929,0.096-1.268,0.288c-0.337,0.192-0.52,0.558-0.548,1.091h-1.197
		c0.02-0.452,0.113-0.831,0.282-1.141c0.169-0.31,0.394-0.561,0.675-0.752c0.282-0.192,0.603-0.331,0.965-0.415
		c0.361-0.085,0.749-0.127,1.162-0.127c0.329,0,0.655,0.024,0.98,0.07c0.323,0.046,0.616,0.142,0.879,0.287s0.475,0.351,0.634,0.611
		c0.161,0.262,0.24,0.604,0.24,1.026v3.739c0,0.281,0.017,0.487,0.048,0.619c0.033,0.13,0.143,0.196,0.331,0.196
		c0.103,0,0.226-0.019,0.366-0.057v0.929H26.649z M24.706,27.638c-0.15,0.113-0.348,0.194-0.592,0.246
		c-0.244,0.052-0.5,0.094-0.767,0.125c-0.267,0.033-0.537,0.072-0.811,0.112c-0.271,0.042-0.516,0.11-0.731,0.204
		c-0.216,0.093-0.391,0.227-0.527,0.399c-0.137,0.174-0.205,0.409-0.205,0.708c0,0.196,0.041,0.361,0.12,0.497
		c0.08,0.135,0.183,0.245,0.31,0.33c0.125,0.085,0.273,0.145,0.444,0.181c0.169,0.038,0.346,0.057,0.535,0.057
		c0.394,0,0.731-0.053,1.014-0.161c0.281-0.106,0.511-0.243,0.69-0.406c0.179-0.164,0.31-0.342,0.394-0.532
		c0.084-0.192,0.127-0.373,0.127-0.541L24.706,27.638L24.706,27.638z"/>
	<path fill="#0190C5" d="M30.831,32.37c-0.141,0.357-0.278,0.659-0.415,0.902c-0.135,0.244-0.286,0.444-0.45,0.598
		c-0.166,0.155-0.349,0.27-0.548,0.339c-0.203,0.069-0.435,0.104-0.698,0.104c-0.142,0-0.282-0.01-0.423-0.028
		c-0.14-0.019-0.275-0.051-0.407-0.1v-1.097c0.103,0.048,0.223,0.086,0.358,0.12c0.136,0.031,0.251,0.049,0.346,0.049
		c0.244,0,0.448-0.059,0.612-0.177c0.166-0.117,0.29-0.284,0.374-0.501l0.493-1.224l-2.886-7.239h1.352l2.126,5.957h0.029
		l2.042-5.957h1.268L30.831,32.37z"/>
	<path fill="#0190C5" d="M40.38,30.934c-0.545,0.413-1.23,0.62-2.057,0.62c-0.582,0-1.086-0.094-1.514-0.282
		c-0.427-0.187-0.785-0.451-1.078-0.789c-0.291-0.336-0.51-0.741-0.654-1.211c-0.146-0.468-0.228-0.979-0.247-1.534
		c0-0.554,0.084-1.06,0.252-1.52c0.17-0.461,0.407-0.86,0.712-1.197c0.304-0.339,0.666-0.6,1.083-0.788
		c0.417-0.188,0.875-0.283,1.372-0.283c0.648,0,1.185,0.134,1.613,0.401c0.427,0.269,0.77,0.608,1.028,1.021
		c0.258,0.413,0.436,0.865,0.535,1.352c0.098,0.489,0.14,0.954,0.121,1.394h-5.45c-0.01,0.319,0.028,0.622,0.113,0.908
		c0.084,0.288,0.219,0.54,0.408,0.762c0.187,0.221,0.427,0.396,0.718,0.527c0.291,0.132,0.634,0.198,1.027,0.198
		c0.507,0,0.923-0.118,1.247-0.352c0.324-0.234,0.538-0.593,0.641-1.07h1.183C41.276,29.905,40.923,30.52,40.38,30.934z
		 M40.09,26.259c-0.108-0.254-0.254-0.473-0.438-0.655c-0.182-0.183-0.399-0.329-0.648-0.437c-0.249-0.107-0.523-0.161-0.824-0.161
		c-0.31,0-0.589,0.054-0.838,0.161c-0.249,0.108-0.463,0.256-0.64,0.444c-0.179,0.188-0.32,0.407-0.423,0.655
		c-0.103,0.248-0.164,0.514-0.183,0.795h4.183C40.262,26.779,40.198,26.511,40.09,26.259z"/>
	<path fill="#0190C5" d="M44.082,24.117v1.535h0.029c0.292-0.591,0.647-1.028,1.071-1.31c0.423-0.281,0.958-0.413,1.605-0.395v1.268
		c-0.479,0-0.888,0.066-1.224,0.198c-0.338,0.131-0.611,0.325-0.817,0.578c-0.206,0.252-0.357,0.561-0.45,0.922
		c-0.095,0.362-0.142,0.777-0.142,1.246v3.24h-1.196v-7.282H44.082z"/>
	<path fill="#0190C5" d="M48.167,25.68v-1.563h1.563v1.563H48.167z M49.729,29.835v1.564h-1.563v-1.564H49.729z"/>
	<path fill="#0190C5" d="M61.383,22.717c-0.446-0.324-1.015-0.487-1.711-0.487c-0.282,0-0.558,0.029-0.831,0.085
		c-0.274,0.056-0.514,0.15-0.725,0.282c-0.211,0.13-0.38,0.307-0.507,0.527c-0.126,0.219-0.19,0.495-0.19,0.823
		c0,0.31,0.092,0.561,0.274,0.753c0.182,0.193,0.426,0.351,0.732,0.473c0.305,0.122,0.65,0.223,1.035,0.303
		c0.384,0.081,0.776,0.166,1.175,0.259c0.399,0.094,0.791,0.204,1.177,0.332c0.384,0.125,0.73,0.297,1.035,0.514
		s0.549,0.489,0.731,0.816c0.183,0.329,0.275,0.742,0.275,1.239c0,0.536-0.12,0.993-0.36,1.373c-0.239,0.379-0.547,0.69-0.922,0.929
		c-0.375,0.24-0.796,0.414-1.258,0.522c-0.465,0.107-0.929,0.162-1.389,0.162c-0.563,0-1.096-0.07-1.599-0.212
		c-0.502-0.141-0.944-0.354-1.323-0.641c-0.38-0.286-0.682-0.651-0.902-1.098c-0.22-0.446-0.33-0.974-0.33-1.584h1.268
		c0,0.423,0.083,0.786,0.247,1.091c0.164,0.306,0.38,0.556,0.648,0.753c0.267,0.196,0.579,0.343,0.937,0.437
		c0.355,0.094,0.723,0.142,1.099,0.142c0.301,0,0.604-0.028,0.909-0.085c0.305-0.057,0.578-0.152,0.823-0.29
		c0.245-0.136,0.441-0.321,0.592-0.557c0.15-0.235,0.226-0.536,0.226-0.901c0-0.348-0.091-0.629-0.273-0.845
		c-0.184-0.216-0.429-0.393-0.732-0.528c-0.305-0.135-0.65-0.247-1.035-0.331c-0.386-0.086-0.777-0.171-1.176-0.261
		c-0.399-0.088-0.791-0.192-1.176-0.31c-0.385-0.118-0.729-0.272-1.034-0.465c-0.306-0.192-0.549-0.44-0.733-0.747
		c-0.183-0.305-0.274-0.688-0.274-1.147c0-0.507,0.104-0.944,0.311-1.317c0.206-0.369,0.48-0.674,0.823-0.914
		c0.343-0.239,0.733-0.417,1.17-0.535c0.436-0.118,0.884-0.177,1.344-0.177c0.516,0,0.996,0.063,1.438,0.183
		c0.44,0.124,0.827,0.315,1.161,0.577c0.333,0.264,0.597,0.596,0.79,0.993c0.191,0.399,0.298,0.875,0.316,1.429H62.17
		C62.09,23.563,61.829,23.041,61.383,22.717z"/>
	<path fill="#0190C5" d="M69.84,25.385c-0.302-0.253-0.704-0.38-1.211-0.38c-0.433,0-0.794,0.08-1.085,0.239
		c-0.289,0.16-0.522,0.371-0.697,0.634c-0.174,0.264-0.298,0.566-0.374,0.908c-0.075,0.343-0.112,0.698-0.112,1.063
		c0,0.338,0.041,0.667,0.121,0.985c0.081,0.319,0.205,0.604,0.374,0.853c0.168,0.249,0.389,0.448,0.663,0.598
		c0.271,0.151,0.595,0.226,0.972,0.226c0.591,0,1.053-0.156,1.386-0.466c0.333-0.309,0.539-0.746,0.612-1.309h1.225
		c-0.132,0.902-0.467,1.596-1.007,2.084c-0.539,0.488-1.274,0.732-2.204,0.732c-0.556,0-1.045-0.089-1.472-0.268
		c-0.428-0.178-0.784-0.432-1.07-0.761c-0.288-0.33-0.503-0.721-0.648-1.177c-0.146-0.455-0.217-0.955-0.217-1.5
		s0.07-1.054,0.21-1.528c0.142-0.474,0.354-0.888,0.642-1.239c0.285-0.353,0.644-0.63,1.076-0.832
		c0.432-0.202,0.934-0.303,1.506-0.303c0.413,0,0.8,0.047,1.161,0.146c0.363,0.1,0.682,0.251,0.959,0.458
		c0.276,0.206,0.504,0.467,0.683,0.783c0.179,0.314,0.291,0.687,0.337,1.119h-1.239C70.338,25.995,70.139,25.638,69.84,25.385z"/>
	<path fill="#0190C5" d="M73.333,22.808v-1.464h1.197v1.464H73.333z M74.529,24.117v7.282h-1.197v-7.282H74.529z"/>
	<path fill="#0190C5" d="M81.753,30.934c-0.544,0.413-1.229,0.62-2.056,0.62c-0.583,0-1.087-0.094-1.513-0.282
		c-0.428-0.187-0.787-0.451-1.078-0.789c-0.291-0.336-0.511-0.741-0.654-1.211c-0.146-0.468-0.228-0.979-0.247-1.534
		c0-0.554,0.084-1.06,0.254-1.52c0.169-0.461,0.406-0.86,0.711-1.197c0.306-0.339,0.666-0.6,1.084-0.788
		c0.417-0.188,0.876-0.283,1.373-0.283c0.647,0,1.185,0.134,1.612,0.401c0.427,0.269,0.77,0.608,1.028,1.021
		s0.437,0.865,0.536,1.352c0.098,0.489,0.139,0.954,0.119,1.394h-5.449c-0.01,0.319,0.028,0.622,0.111,0.908
		c0.085,0.288,0.221,0.54,0.409,0.762c0.188,0.221,0.427,0.396,0.718,0.527c0.291,0.132,0.634,0.198,1.028,0.198
		c0.507,0,0.923-0.118,1.246-0.352c0.325-0.234,0.539-0.593,0.641-1.07h1.182C82.65,29.905,82.298,30.52,81.753,30.934z
		 M81.464,26.259c-0.107-0.254-0.253-0.473-0.436-0.655c-0.182-0.183-0.398-0.329-0.647-0.437c-0.25-0.107-0.523-0.161-0.823-0.161
		c-0.31,0-0.59,0.054-0.84,0.161c-0.248,0.108-0.461,0.256-0.64,0.444c-0.18,0.188-0.319,0.407-0.423,0.655
		c-0.104,0.248-0.165,0.514-0.184,0.795h4.184C81.636,26.779,81.571,26.511,81.464,26.259z"/>
	<path fill="#0190C5" d="M85.5,24.117v1.156h0.027c0.498-0.882,1.286-1.324,2.367-1.324c0.478,0,0.876,0.066,1.196,0.198
		c0.319,0.132,0.578,0.315,0.774,0.55c0.199,0.234,0.336,0.514,0.416,0.838c0.08,0.325,0.12,0.684,0.12,1.077v4.788h-1.198v-4.93
		c0-0.45-0.131-0.807-0.393-1.07c-0.264-0.264-0.625-0.394-1.085-0.394c-0.366,0-0.682,0.056-0.95,0.168
		c-0.268,0.113-0.491,0.272-0.67,0.479c-0.179,0.207-0.312,0.448-0.401,0.725c-0.089,0.277-0.133,0.579-0.133,0.909v4.111h-1.196
		v-7.282H85.5V24.117z"/>
	<path fill="#0190C5" d="M96.765,25.385c-0.301-0.253-0.705-0.38-1.211-0.38c-0.433,0-0.794,0.08-1.085,0.239
		c-0.292,0.16-0.523,0.371-0.697,0.634c-0.175,0.264-0.298,0.566-0.373,0.908c-0.075,0.343-0.113,0.698-0.113,1.063
		c0,0.338,0.041,0.667,0.12,0.985c0.081,0.319,0.205,0.604,0.374,0.853c0.169,0.249,0.391,0.448,0.663,0.598
		c0.271,0.151,0.597,0.226,0.971,0.226c0.593,0,1.054-0.156,1.388-0.466c0.333-0.31,0.538-0.746,0.612-1.309h1.226
		c-0.132,0.902-0.468,1.596-1.007,2.084c-0.541,0.488-1.276,0.732-2.206,0.732c-0.555,0-1.044-0.089-1.472-0.268
		c-0.427-0.178-0.785-0.432-1.07-0.761c-0.286-0.33-0.502-0.721-0.647-1.177c-0.145-0.455-0.218-0.955-0.218-1.5
		s0.07-1.054,0.211-1.528c0.143-0.474,0.354-0.888,0.641-1.239c0.286-0.353,0.646-0.63,1.078-0.832
		c0.432-0.202,0.933-0.303,1.506-0.303c0.412,0,0.8,0.047,1.162,0.146c0.361,0.1,0.682,0.251,0.958,0.458
		c0.275,0.206,0.504,0.467,0.683,0.783c0.178,0.314,0.29,0.687,0.336,1.119h-1.239C97.262,25.995,97.066,25.638,96.765,25.385z"/>
	<path fill="#0190C5" d="M105.34,30.934c-0.544,0.413-1.23,0.62-2.056,0.62c-0.583,0-1.087-0.094-1.514-0.282
		c-0.427-0.188-0.786-0.451-1.078-0.789c-0.291-0.336-0.511-0.741-0.654-1.211c-0.146-0.468-0.228-0.979-0.246-1.534
		c0-0.554,0.083-1.06,0.253-1.52c0.168-0.461,0.407-0.86,0.711-1.197c0.304-0.339,0.666-0.6,1.085-0.788
		c0.417-0.188,0.875-0.283,1.372-0.283c0.649,0,1.185,0.134,1.613,0.401c0.427,0.269,0.769,0.608,1.028,1.021
		c0.259,0.413,0.436,0.865,0.535,1.352c0.099,0.489,0.14,0.954,0.12,1.394h-5.449c-0.011,0.319,0.026,0.622,0.111,0.908
		c0.084,0.288,0.22,0.54,0.408,0.762c0.188,0.221,0.427,0.396,0.718,0.527c0.291,0.132,0.635,0.198,1.028,0.198
		c0.507,0,0.923-0.118,1.247-0.352c0.323-0.234,0.538-0.593,0.64-1.07h1.183C106.238,29.905,105.886,30.52,105.34,30.934z
		 M105.052,26.259c-0.108-0.254-0.254-0.473-0.437-0.655c-0.182-0.183-0.399-0.329-0.647-0.437
		c-0.249-0.107-0.522-0.161-0.823-0.161c-0.31,0-0.589,0.054-0.84,0.161c-0.249,0.108-0.462,0.256-0.64,0.444
		c-0.18,0.188-0.319,0.407-0.424,0.655c-0.103,0.248-0.163,0.514-0.182,0.795h4.182C105.224,26.779,105.16,26.511,105.052,26.259z"
		/>
	<path fill="#0190C5" d="M118.889,21.343v1.125h-5.268v3.197h4.619v1.126h-4.619v4.605h-1.338V21.343H118.889z"/>
	<path fill="#0190C5" d="M120.211,26.265c0.15-0.464,0.375-0.868,0.677-1.212c0.301-0.341,0.671-0.61,1.112-0.809
		c0.441-0.199,0.948-0.295,1.521-0.295c0.582,0,1.092,0.099,1.528,0.295c0.437,0.198,0.805,0.467,1.105,0.809
		c0.301,0.344,0.526,0.748,0.677,1.212c0.149,0.465,0.226,0.966,0.226,1.5c0,0.536-0.075,1.033-0.226,1.493
		c-0.15,0.46-0.376,0.862-0.677,1.203c-0.3,0.343-0.669,0.61-1.105,0.803c-0.435,0.192-0.946,0.289-1.528,0.289
		c-0.573,0-1.08-0.097-1.521-0.289c-0.44-0.192-0.811-0.459-1.112-0.803c-0.301-0.342-0.526-0.744-0.677-1.203
		c-0.151-0.459-0.225-0.958-0.225-1.493C119.987,27.23,120.062,26.729,120.211,26.265z M121.431,28.941
		c0.117,0.343,0.279,0.629,0.484,0.86c0.206,0.229,0.449,0.406,0.726,0.528c0.275,0.122,0.57,0.184,0.88,0.184
		c0.311,0,0.603-0.062,0.88-0.184c0.276-0.123,0.519-0.298,0.725-0.528c0.207-0.231,0.37-0.517,0.487-0.86
		c0.116-0.343,0.175-0.734,0.175-1.176c0-0.442-0.059-0.833-0.175-1.177c-0.118-0.343-0.28-0.631-0.487-0.866
		c-0.206-0.235-0.448-0.414-0.725-0.536c-0.276-0.122-0.569-0.183-0.88-0.183c-0.31,0-0.602,0.061-0.88,0.183
		c-0.276,0.122-0.52,0.301-0.726,0.536c-0.205,0.234-0.369,0.523-0.484,0.866c-0.118,0.342-0.178,0.735-0.178,1.177
		C121.253,28.207,121.312,28.598,121.431,28.941z"/>
	<path fill="#0190C5" d="M129.761,24.117v1.535h0.027c0.292-0.591,0.647-1.028,1.07-1.31c0.423-0.281,0.958-0.413,1.607-0.395v1.268
		c-0.481,0-0.888,0.066-1.227,0.198c-0.338,0.131-0.61,0.325-0.816,0.578c-0.206,0.252-0.358,0.561-0.451,0.922
		c-0.095,0.362-0.142,0.777-0.142,1.246v3.24h-1.197v-7.282H129.761z"/>
	<path fill="#0190C5" d="M142.108,21.343l3.93,10.055h-1.478l-1.098-3.028h-4.253l-1.127,3.028h-1.367l3.915-10.055H142.108z
		 M143.04,27.243l-1.675-4.688h-0.028l-1.704,4.688H143.04z"/>
	<path fill="#0190C5" d="M155.01,21.343c0.217,0,0.449,0.002,0.698,0.006c0.248,0.005,0.495,0.02,0.739,0.043
		c0.244,0.022,0.471,0.059,0.682,0.105c0.211,0.047,0.392,0.118,0.541,0.211c0.33,0.198,0.609,0.469,0.84,0.816
		c0.229,0.348,0.345,0.774,0.345,1.281c0,0.536-0.131,0.998-0.388,1.388c-0.26,0.39-0.628,0.678-1.106,0.866v0.028
		c0.621,0.131,1.094,0.414,1.424,0.845c0.328,0.433,0.492,0.958,0.492,1.578c0,0.368-0.064,0.723-0.197,1.071
		c-0.131,0.347-0.326,0.654-0.584,0.921c-0.259,0.269-0.577,0.485-0.958,0.648c-0.38,0.166-0.819,0.247-1.316,0.247h-4.857V21.343
		H155.01L155.01,21.343z M155.375,25.666c0.762,0,1.309-0.134,1.641-0.402c0.333-0.266,0.501-0.668,0.501-1.203
		c0-0.357-0.057-0.64-0.168-0.846c-0.114-0.205-0.269-0.366-0.465-0.478c-0.198-0.113-0.427-0.186-0.683-0.218
		c-0.259-0.032-0.533-0.048-0.824-0.048h-2.675v3.197h2.673V25.666L155.375,25.666z M156.053,30.272c0.591,0,1.052-0.16,1.387-0.479
		c0.333-0.32,0.499-0.762,0.499-1.324c0-0.33-0.062-0.6-0.182-0.817c-0.124-0.216-0.284-0.388-0.485-0.515
		c-0.201-0.125-0.435-0.215-0.698-0.267c-0.264-0.051-0.534-0.078-0.816-0.078h-3.055v3.479L156.053,30.272L156.053,30.272z"/>
	<path fill="#0190C5" d="M166.177,30.934c-0.545,0.413-1.229,0.62-2.056,0.62c-0.582,0-1.088-0.094-1.515-0.282
		c-0.428-0.187-0.785-0.451-1.077-0.789c-0.29-0.336-0.51-0.741-0.654-1.211c-0.145-0.468-0.227-0.979-0.244-1.534
		c0-0.554,0.084-1.06,0.252-1.52c0.17-0.461,0.407-0.86,0.711-1.197c0.305-0.339,0.667-0.6,1.086-0.788
		c0.416-0.188,0.875-0.283,1.372-0.283c0.648,0,1.184,0.134,1.613,0.401c0.427,0.269,0.77,0.608,1.027,1.021
		c0.259,0.413,0.438,0.865,0.536,1.352c0.099,0.489,0.139,0.954,0.119,1.394h-5.451c-0.01,0.319,0.028,0.622,0.112,0.908
		c0.084,0.288,0.221,0.54,0.408,0.762c0.188,0.221,0.428,0.396,0.718,0.527c0.292,0.132,0.636,0.198,1.029,0.198
		c0.507,0,0.923-0.118,1.246-0.352c0.324-0.234,0.539-0.593,0.64-1.07h1.183C167.074,29.905,166.722,30.52,166.177,30.934z
		 M165.888,26.259c-0.106-0.254-0.254-0.473-0.436-0.655c-0.183-0.183-0.399-0.329-0.647-0.437c-0.25-0.107-0.522-0.161-0.823-0.161
		c-0.311,0-0.592,0.054-0.839,0.161c-0.25,0.108-0.463,0.256-0.642,0.444c-0.179,0.188-0.318,0.407-0.423,0.655
		c-0.104,0.248-0.164,0.514-0.184,0.795h4.185C166.06,26.779,165.997,26.511,165.888,26.259z"/>
	<path fill="#0190C5" d="M171.908,24.117v1.057h-1.45v4.52c0,0.142,0.012,0.253,0.034,0.337c0.024,0.086,0.067,0.15,0.135,0.198
		c0.064,0.047,0.157,0.078,0.274,0.092c0.116,0.014,0.269,0.021,0.457,0.021h0.55v1.056h-0.916c-0.309,0-0.575-0.021-0.797-0.064
		c-0.219-0.042-0.397-0.12-0.533-0.232c-0.138-0.112-0.237-0.273-0.304-0.479s-0.099-0.479-0.099-0.817v-4.634h-1.239v-1.056h1.239
		v-2.184h1.196v2.184h1.452V24.117z"/>
	<path fill="#0190C5" d="M176.557,24.117v1.057h-1.451v4.52c0,0.142,0.013,0.253,0.035,0.337c0.023,0.086,0.067,0.15,0.133,0.198
		c0.068,0.047,0.159,0.078,0.275,0.092s0.27,0.021,0.458,0.021h0.55v1.056h-0.917c-0.31,0-0.575-0.021-0.795-0.064
		c-0.221-0.042-0.399-0.12-0.534-0.232c-0.139-0.112-0.238-0.273-0.305-0.479c-0.065-0.206-0.1-0.479-0.1-0.817v-4.634h-1.238
		v-1.056h1.238v-2.184h1.197v2.184h1.453V24.117z"/>
	<path fill="#0190C5" d="M183.244,30.934c-0.544,0.413-1.229,0.62-2.055,0.62c-0.582,0-1.087-0.094-1.513-0.282
		c-0.427-0.188-0.787-0.451-1.078-0.789c-0.292-0.336-0.51-0.741-0.655-1.211c-0.145-0.468-0.227-0.979-0.246-1.534
		c0-0.554,0.086-1.06,0.254-1.52c0.17-0.461,0.406-0.86,0.712-1.197c0.304-0.339,0.666-0.6,1.085-0.788
		c0.416-0.188,0.877-0.283,1.372-0.283c0.647,0,1.185,0.134,1.613,0.401c0.426,0.269,0.769,0.608,1.027,1.021
		s0.436,0.865,0.534,1.352c0.1,0.487,0.139,0.954,0.121,1.394h-5.45c-0.009,0.319,0.028,0.622,0.111,0.908
		c0.086,0.288,0.222,0.54,0.41,0.762c0.187,0.221,0.426,0.396,0.718,0.527c0.291,0.132,0.633,0.198,1.027,0.198
		c0.509,0,0.924-0.118,1.246-0.352c0.325-0.234,0.539-0.593,0.642-1.07h1.182C184.142,29.905,183.79,30.52,183.244,30.934z
		 M182.958,26.259c-0.108-0.254-0.256-0.473-0.438-0.655c-0.182-0.183-0.397-0.329-0.647-0.437
		c-0.247-0.107-0.521-0.161-0.822-0.161c-0.311,0-0.59,0.054-0.839,0.161c-0.248,0.108-0.462,0.256-0.641,0.444
		c-0.178,0.188-0.319,0.407-0.422,0.655c-0.104,0.249-0.164,0.514-0.184,0.795h4.183C183.129,26.779,183.064,26.511,182.958,26.259z
		"/>
	<path fill="#0190C5" d="M186.948,24.117v1.535h0.028c0.291-0.591,0.648-1.028,1.069-1.31c0.425-0.281,0.959-0.413,1.607-0.395
		v1.268c-0.48,0-0.889,0.066-1.227,0.198c-0.337,0.131-0.609,0.325-0.816,0.578c-0.207,0.252-0.357,0.561-0.451,0.922
		c-0.093,0.362-0.141,0.777-0.141,1.246v3.24h-1.198v-7.282H186.948z"/>
	<path fill="#0190C5" d="M196.426,21.343v8.929h5.322v1.127h-6.661V21.343H196.426z"/>
	<path fill="#0190C5" d="M203.003,22.808v-1.464h1.197v1.464H203.003z M204.2,24.117v7.282h-1.197v-7.282H204.2z"/>
	<path fill="#0190C5" d="M205.538,25.174v-1.057h1.224v-1.085c0-0.591,0.172-1.04,0.516-1.345s0.843-0.458,1.5-0.458
		c0.113,0,0.242,0.01,0.388,0.027c0.146,0.019,0.276,0.048,0.388,0.086v1.042c-0.103-0.039-0.215-0.064-0.337-0.078
		c-0.123-0.013-0.235-0.021-0.338-0.021c-0.294,0-0.517,0.058-0.675,0.169c-0.163,0.113-0.24,0.33-0.24,0.648v1.013h1.408v1.056
		h-1.408v6.226h-1.197v-6.225L205.538,25.174L205.538,25.174z"/>
	<path fill="#0190C5" d="M215.804,30.934c-0.546,0.413-1.229,0.62-2.056,0.62c-0.582,0-1.088-0.094-1.515-0.282
		c-0.427-0.187-0.786-0.451-1.076-0.789c-0.292-0.336-0.509-0.741-0.654-1.211c-0.146-0.468-0.229-0.979-0.247-1.534
		c0-0.554,0.085-1.06,0.255-1.52c0.168-0.461,0.406-0.86,0.71-1.197c0.306-0.339,0.667-0.6,1.086-0.788
		c0.417-0.188,0.875-0.283,1.373-0.283c0.646,0,1.185,0.134,1.613,0.401c0.426,0.269,0.767,0.608,1.027,1.021
		c0.257,0.413,0.436,0.865,0.535,1.352c0.1,0.489,0.14,0.954,0.12,1.394h-5.449c-0.012,0.319,0.027,0.622,0.11,0.908
		c0.086,0.288,0.221,0.54,0.408,0.762c0.188,0.221,0.428,0.396,0.719,0.527c0.292,0.132,0.636,0.198,1.029,0.198
		c0.508,0,0.922-0.118,1.245-0.352c0.324-0.234,0.538-0.593,0.64-1.07h1.184C216.699,29.905,216.348,30.52,215.804,30.934z
		 M215.516,26.259c-0.107-0.254-0.254-0.473-0.437-0.655c-0.185-0.183-0.399-0.329-0.647-0.437
		c-0.249-0.107-0.523-0.161-0.824-0.161c-0.31,0-0.59,0.054-0.838,0.161c-0.25,0.108-0.464,0.256-0.64,0.444
		c-0.18,0.188-0.32,0.407-0.424,0.655c-0.104,0.249-0.164,0.514-0.184,0.795h4.185C215.687,26.779,215.622,26.511,215.516,26.259z"
		/>
</g>
</svg>
